<svg width="20" height="20" viewBox="0 0 20 20" fill="none" xmlns="http://www.w3.org/2000/svg">
<path d="M10.0041 5.50781C7.44874 5.50781 5.38758 7.51172 5.38758 9.99609C5.38758 12.4805 7.44874 14.4844 10.0041 14.4844C12.5595 14.4844 14.6206 12.4805 14.6206 9.99609C14.6206 7.51172 12.5595 5.50781 10.0041 5.50781ZM10.0041 12.9141C8.35276 12.9141 7.00276 11.6055 7.00276 9.99609C7.00276 8.38672 8.34874 7.07812 10.0041 7.07812C11.6595 7.07812 13.0054 8.38672 13.0054 9.99609C13.0054 11.6055 11.6554 12.9141 10.0041 12.9141ZM15.8862 5.32422C15.8862 5.90625 15.4041 6.37109 14.8095 6.37109C14.2108 6.37109 13.7327 5.90234 13.7327 5.32422C13.7327 4.74609 14.2148 4.27734 14.8095 4.27734C15.4041 4.27734 15.8862 4.74609 15.8862 5.32422ZM18.9438 6.38672C18.8755 4.98438 18.5461 3.74219 17.4894 2.71875C16.4367 1.69531 15.159 1.375 13.7166 1.30469C12.23 1.22266 7.77419 1.22266 6.28758 1.30469C4.84919 1.37109 3.57151 1.69141 2.51482 2.71484C1.45812 3.73828 1.13267 4.98047 1.06035 6.38281C0.975977 7.82812 0.975977 12.1602 1.06035 13.6055C1.12866 15.0078 1.45812 16.25 2.51482 17.2734C3.57151 18.2969 4.84517 18.6172 6.28758 18.6875C7.77419 18.7695 12.23 18.7695 13.7166 18.6875C15.159 18.6211 16.4367 18.3008 17.4894 17.2734C18.542 16.25 18.8715 15.0078 18.9438 13.6055C19.0282 12.1602 19.0282 7.83203 18.9438 6.38672ZM17.0233 15.1562C16.7099 15.9219 16.1032 16.5117 15.3117 16.8203C14.1264 17.2773 11.3139 17.1719 10.0041 17.1719C8.69428 17.1719 5.87776 17.2734 4.69651 16.8203C3.90901 16.5156 3.30232 15.9258 2.98491 15.1562C2.51482 14.0039 2.6233 11.2695 2.6233 9.99609C2.6233 8.72266 2.51883 5.98437 2.98491 4.83594C3.2983 4.07031 3.90499 3.48047 4.69651 3.17187C5.88178 2.71484 8.69428 2.82031 10.0041 2.82031C11.3139 2.82031 14.1304 2.71875 15.3117 3.17187C16.0992 3.47656 16.7059 4.06641 17.0233 4.83594C17.4934 5.98828 17.3849 8.72266 17.3849 9.99609C17.3849 11.2695 17.4934 14.0078 17.0233 15.1562Z" fill="black"/>
</svg>
