<svg width="300" height="44" viewBox="0 0 300 44" fill="none" xmlns="http://www.w3.org/2000/svg">
<path d="M141.964 1.79565L120.536 30.8769L99.1073 1.79565V40.7501H104.464V18.0974L120.536 39.909L136.607 18.0974V40.7501H141.964V1.79565ZM160.714 40.7501H155.357V3.25012H172.768C175.965 3.25012 179.031 4.52004 181.291 6.78053C183.552 9.04101 184.822 12.1069 184.822 15.3037C184.822 18.5005 183.552 21.5664 181.291 23.8269C179.031 26.0873 175.965 27.3573 172.768 27.3573H160.714V40.7501ZM160.714 22.0001H172.768C174.544 22.0001 176.247 21.2946 177.503 20.0388C178.759 18.783 179.464 17.0797 179.464 15.3037C179.464 13.5277 178.759 11.8244 177.503 10.5686C176.247 9.31278 174.544 8.60726 172.768 8.60726H160.714V22.0001ZM221.955 40.7501H228.048L207.589 2.98226L187.133 40.7501H193.227L197.58 32.7144H217.602L221.955 40.7501ZM200.478 27.3573L207.589 14.2323L214.701 27.3573H200.478ZM259.822 30.2635C259.822 36.6144 253.996 41.4064 246.268 41.4064C243.764 41.3574 241.301 40.7684 239.046 39.6797C236.791 38.591 234.797 37.0283 233.202 35.0983L236.979 31.4153C238.071 32.854 239.473 34.0284 241.081 34.8515C242.689 35.6745 244.462 36.1251 246.268 36.1698C251.089 36.1698 254.464 33.743 254.464 30.2769C254.464 27.3037 252.439 25.3055 248.277 24.1617L243.75 23.1251C234.107 20.7573 234.107 14.9742 234.107 13.0724C234.107 7.09387 238.929 3.07601 246.121 3.07601C248.438 3.06862 250.731 3.55442 252.847 4.50115C254.962 5.44788 256.852 6.83387 258.391 8.56708L254.614 12.2582C252.407 9.88416 249.358 8.46882 246.121 8.3153C241.891 8.3153 239.464 10.0483 239.464 13.0751C239.464 13.9778 239.807 16.9912 244.214 17.9394L248.32 18.8635C255.847 20.626 259.822 24.5715 259.822 30.2635ZM297.322 30.2635C297.322 36.6144 291.496 41.4064 283.768 41.4064C281.264 41.3574 278.801 40.7684 276.546 39.6797C274.291 38.591 272.297 37.0283 270.702 35.0983L274.479 31.4153C275.571 32.854 276.973 34.0284 278.581 34.8515C280.189 35.6745 281.962 36.1251 283.768 36.1698C288.589 36.1698 291.964 33.743 291.964 30.2769C291.964 27.3037 289.939 25.3055 285.777 24.1617L281.25 23.1251C271.607 20.7573 271.607 14.9742 271.607 13.0724C271.607 7.09387 276.429 3.07601 283.621 3.07601C285.938 3.06862 288.231 3.55442 290.347 4.50115C292.462 5.44788 294.352 6.83387 295.891 8.56708L292.114 12.2582C289.907 9.88416 286.858 8.46882 283.621 8.3153C279.391 8.3153 276.964 10.0483 276.964 13.0751C276.964 13.9778 277.307 16.9912 281.714 17.9394L285.82 18.8635C293.347 20.626 297.322 24.5715 297.322 30.2635ZM33.185 32.4064C31.1247 34.4668 28.4997 35.8699 25.6419 36.4384C22.7841 37.0069 19.8219 36.7152 17.1299 35.6002C14.438 34.4852 12.1371 32.5969 10.5183 30.1742C8.89944 27.7515 8.03539 24.9032 8.03539 21.9894C8.03539 19.0756 8.89944 16.2273 10.5183 13.8046C12.1371 11.3819 14.438 9.49364 17.1299 8.37862C19.8219 7.26359 22.7841 6.97189 25.6419 7.54038C28.4997 8.10888 31.1247 9.51205 33.185 11.5724V11.5724L34.1332 12.5207L37.9207 8.74119L36.9644 7.80369C34.1548 4.9943 30.5753 3.08113 26.6784 2.30611C22.7815 1.53108 18.7423 1.929 15.0715 3.44956C11.4008 4.97011 8.26333 7.54501 6.05596 10.8486C3.84859 14.1523 2.67041 18.0363 2.67041 22.0095C2.67041 25.9827 3.84859 29.8667 6.05596 33.1703C8.26333 36.474 11.4008 39.0489 15.0715 40.5694C18.7423 42.09 22.7815 42.4879 26.6784 41.7129C30.5753 40.9379 34.1548 39.0247 36.9644 36.2153V36.2153L37.9126 35.2698L34.1251 31.4796L33.185 32.4064ZM68.3037 1.91083C64.3304 1.91083 60.4464 3.08905 57.1427 5.29649C53.839 7.50393 51.2641 10.6414 49.7436 14.3123C48.2231 17.9831 47.8253 22.0224 48.6004 25.9193C49.3756 29.8163 51.2889 33.3959 54.0984 36.2054C56.908 39.0149 60.4876 40.9282 64.3845 41.7034C68.2814 42.4785 72.3207 42.0807 75.9916 40.5602C79.6624 39.0397 82.7999 36.4648 85.0074 33.1611C87.2148 29.8575 88.393 25.9734 88.393 22.0001C88.393 19.362 87.8734 16.7496 86.8638 14.3123C85.8542 11.8749 84.3745 9.66031 82.509 7.79485C80.6435 5.92939 78.4289 4.44962 75.9916 3.44004C73.5542 2.43046 70.9419 1.91083 68.3037 1.91083V1.91083ZM68.3037 36.7323C65.39 36.7323 62.5417 35.8682 60.119 34.2494C57.6963 32.6307 55.808 30.3298 54.693 27.6379C53.578 24.9459 53.2862 21.9838 53.8546 19.126C54.4231 16.2683 55.8262 13.6432 57.8865 11.5829C59.9468 9.52259 62.5719 8.11949 65.4296 7.55105C68.2874 6.98261 71.2495 7.27435 73.9415 8.38939C76.6334 9.50443 78.9343 11.3927 80.553 13.8154C82.1718 16.2381 83.0359 19.0864 83.0359 22.0001C83.0359 25.9073 81.4837 29.6545 78.7209 32.4173C75.9581 35.1801 72.2109 36.7323 68.3037 36.7323ZM76.8939 17.1974L73.1064 13.4099L59.7135 26.8028L63.501 30.5903L76.8939 17.1974Z" fill="white"/>
</svg>
