<svg width="200" height="200" viewBox="0 0 200 200" fill="none" xmlns="http://www.w3.org/2000/svg">
<g clip-path="url(#clip0_1364_1105)">
<path d="M186.925 85.7891C187.123 85.4497 186.915 85.1951 186.481 85.1951C184.228 85.1951 181.277 85.2045 178.939 85.2045C178.382 85.2045 178.09 85.2705 177.826 85.7891C176.959 87.4485 166.408 103.26 164.447 106.325C164.117 106.796 163.711 106.73 163.664 106.193C163.466 104.373 161.891 102.27 159.412 101.271C157.526 100.507 155.669 100.366 153.755 100.62C150.285 101.082 147.192 102.921 144.477 104.976C140.385 108.088 136.849 112.123 132.285 115.112C129.796 116.734 126.383 118.148 124.101 116.036C122.036 114.122 122.272 109.87 125.431 106.579C125.761 106.23 126.166 106.523 126.1 106.834C125.798 108.324 126.166 109.804 127.298 110.841C128.674 112.076 130.645 112.218 132.333 111.388C134.322 110.398 135.491 108.493 135.84 106.334C136.368 102.978 133.785 100.017 130.551 99.7813C127.92 99.5927 125.402 100.507 122.951 102.534C121.725 103.553 121.018 104.307 119.962 105.825C119.708 106.193 119.302 106.23 119.321 105.684C119.444 101.384 117.671 98.9704 114.116 98.8855C111.363 98.8195 108.412 100.319 106.121 102.148C103.603 104.166 101.406 106.853 99.0493 109.37C98.757 109.681 98.5024 109.663 98.4175 109.059C98.3421 106.212 97.635 103.458 96.3149 101.497C95.8529 100.818 94.8723 100.479 94.0426 100.941C93.6655 101.148 92.336 101.761 91.3743 102.534C90.8934 102.93 90.7143 103.496 90.9217 104.232C92.1946 108.484 91.9117 113.321 90.1863 117.403C88.6023 121.147 85.5191 124.522 81.8985 125.663C79.513 126.417 77.0333 126.05 75.4964 123.938C73.3938 121.024 74.2424 115.942 77.3821 111.737C80.1542 108.031 84.1614 105.674 88.1591 104.156C88.6306 103.977 88.7248 103.675 88.5928 103.27C88.376 102.61 88.0271 101.714 87.8857 101.309C87.518 100.338 86.4902 100.177 85.2362 100.309C82.3322 100.649 79.711 101.639 77.1181 103.025C70.3389 106.655 66.9446 113.679 65.4548 117.441C64.7383 119.252 64.1254 120.374 63.3334 121.373C62.2679 122.712 60.9196 123.938 58.4682 126.097C58.2419 126.295 58.0816 126.71 58.2702 127.087C58.5247 127.605 59.7976 129.406 60.1559 129.567C60.5519 129.765 61.0234 129.491 61.2025 129.359C62.9185 128.199 64.974 126.351 65.9828 125.097C66.3317 124.673 66.6994 124.852 66.888 125.503C67.8309 128.85 70.2823 131.584 73.6767 132.725C79.8902 134.818 86.3394 131.782 91.2046 126.502C94.2972 123.146 95.4098 120.986 96.5978 119.516C98.6061 117.026 102.566 111.454 107.29 107.881C109.025 106.561 111.071 105.561 112.099 106.221C112.928 106.759 113.192 108.003 111.863 110.417C107.054 119.204 99.9733 129.529 98.6721 132.037C98.4364 132.471 98.6438 132.81 99.0964 132.81C101.614 132.801 104.112 132.801 106.394 132.801C106.771 132.782 106.941 132.612 107.139 132.339C110.835 126.559 114.305 121.052 118.029 115.367C118.237 115.027 118.425 115.291 118.435 115.442C118.51 116.762 118.84 118.573 119.623 119.751C121.028 121.939 123.026 122.882 125.242 122.9C127.005 122.919 127.892 122.655 129.796 121.948C131.343 121.373 132.587 120.619 133.53 119.94C134.086 119.553 134.181 120.204 134.171 120.298C133.313 124.89 134.369 130.321 138.933 132.584C144.392 135.271 150.388 131.49 153.839 128.077C154.179 127.747 154.537 127.784 154.575 128.492C154.65 129.793 155.235 131.339 156.319 132.423C159.214 135.327 165.041 134.177 170.896 129.642C174.658 126.738 178.59 122.636 182.144 118.299C182.276 118.129 182.371 117.865 182.116 117.592C181.579 117.026 180.796 116.376 180.259 115.876C180.013 115.669 179.655 115.725 179.448 115.885C175.808 119.346 172.527 123.296 167.784 126.568C166.191 127.681 163.636 128.586 162.495 127.04C162.052 126.436 162.099 125.606 162.542 124.513C163.909 121.062 185.793 87.7597 186.925 85.7891ZM158.007 113.717C158.054 113.971 158.384 114.217 158.714 114.339C158.827 114.377 158.893 114.462 158.761 114.735C157.828 116.725 156.979 117.875 155.81 119.61C154.735 121.213 153.528 122.457 152.067 123.655C149.86 125.484 146.796 127.464 144.26 126.134C143.138 125.55 142.648 123.975 142.666 122.702C142.723 119.12 144.316 115.433 147.258 111.822C150.85 107.4 154.82 105.108 157.422 106.362C160.119 107.645 159.261 110.766 158.054 113.217C157.969 113.406 157.96 113.566 158.007 113.717Z" fill="#00095B"/>
<path d="M28.2492 132.678C20.0934 132.735 12.9087 127.7 12.0885 118.969C11.6264 114.132 12.9936 109.823 15.7374 106.278C18.1605 103.119 22.2714 100.488 25.7506 99.8473C26.8821 99.6398 28.4001 99.7718 29.0318 100.517C30.0218 101.667 29.7295 102.921 28.7489 103.43C26.0995 104.788 22.9032 107.107 21.3286 110.266C20.0463 112.849 19.7917 115.97 21.7434 118.931C25.0152 123.881 34.1516 124.013 42.6374 116.121C44.74 114.188 46.6163 112.34 48.5303 110.143C52.2735 105.872 53.5087 104.307 58.487 97.4147C58.5436 97.3392 58.5625 97.2261 58.5342 97.179C58.4965 97.0941 58.421 97.0658 58.2796 97.0564C54.9607 97.1507 52.0661 98.1407 49.2563 100.243C48.4455 100.837 47.2858 100.752 46.7672 99.9698C46.2015 99.093 46.6069 97.9427 47.5403 97.3015C52.0661 94.1523 57.0067 93.5866 62.0511 92.738C62.0511 92.738 62.3999 92.7569 62.6922 92.3703C64.7665 89.7114 66.3317 87.3165 68.538 84.6294C70.7632 81.9045 73.6389 79.3964 75.8358 77.5201C78.9001 74.8801 80.8613 73.9938 82.8602 72.9095C83.3882 72.6361 82.7942 72.3061 82.6339 72.3061C71.4798 70.2129 59.8919 67.4974 48.8132 71.5989C41.1477 74.4652 37.7816 80.5467 39.4034 84.6105C40.5537 87.4957 44.344 87.9577 47.8986 86.2228C50.8498 84.7802 53.5747 82.4513 55.5076 79.453C56.5919 77.7936 58.8736 78.991 57.6385 81.8762C54.395 89.4946 48.2003 95.5384 40.6574 95.7929C34.2364 96.0004 30.0973 91.2766 30.1067 85.4497C30.135 73.9561 42.9297 66.3943 56.3656 65.2534C72.5546 63.9145 87.8857 68.2234 103.962 70.1752C116.275 71.6649 128.09 71.7026 140.46 68.8552C141.921 68.5346 142.949 69.468 142.855 70.9483C142.732 73.0887 141.082 75.1441 137 77.3693C132.361 79.915 127.514 80.6787 122.442 80.7259C110.194 80.8296 98.7758 76.0493 86.9711 73.4847C86.99 74.0032 87.122 74.6161 86.6882 74.9461C80.1542 79.7736 74.2424 84.6765 70.2823 91.5595C70.1503 91.7197 70.2258 91.8706 70.452 91.8517C73.8935 91.6726 76.9861 91.5783 80.1919 91.3237C80.7482 91.2766 80.7765 91.1352 80.7199 90.7297C80.437 88.3537 81.1253 85.6571 83.2185 83.7902C85.3494 81.8762 88.0271 81.6593 89.7997 83.0359C91.8175 84.6105 91.6383 87.4297 90.5352 89.5511C89.4131 91.7009 87.5651 92.8512 85.7831 93.4075C85.7831 93.4075 85.4154 93.4923 85.4625 93.8318C85.5379 94.3786 87.9611 95.7175 88.1685 96.0758C88.3666 96.4152 88.2628 96.9432 87.8951 97.3487C87.6405 97.641 87.2351 97.9144 86.726 97.905C86.3111 97.8955 86.0565 97.7541 85.5285 97.4618C84.4442 96.8678 83.0865 95.9061 82.1719 94.7652C81.8608 94.3786 81.7099 94.3692 80.9367 94.4163C77.467 94.6143 72.0455 95.1424 68.3777 95.5949C67.4914 95.7081 67.3594 95.8684 67.1709 96.1795C61.3156 105.825 55.0739 116.234 48.2192 123.193C40.8648 130.66 34.7456 132.631 28.2492 132.678ZM84.0105 89.8057C84.1048 90.3054 84.2934 90.3997 84.5196 90.3526C85.6322 90.1263 86.858 89.2117 87.5745 88.1557C88.2346 87.194 88.5457 85.7985 87.8857 85.2422C87.3011 84.7425 86.3582 84.8839 85.6511 85.5062C84.2556 86.7414 83.8219 88.5046 84.0105 89.8057Z" fill="#00095B"/>
</g>
<defs>
<clipPath id="clip0_1364_1105">
<rect width="200" height="200" fill="white"/>
</clipPath>
</defs>
</svg>
