<svg width="200" height="200" viewBox="0 0 200 200" fill="none" xmlns="http://www.w3.org/2000/svg">
<g clip-path="url(#clip0_562_22)">
<path d="M37.2556 116.978C37.2556 123.078 38.5944 127.761 40.3444 130.594C42.6389 134.306 46.0611 135.878 49.55 135.878C54.05 135.878 58.1667 134.761 66.1 123.789C72.4556 114.994 79.9444 102.65 84.9833 94.9111L93.5167 81.8C99.4444 72.6944 106.306 62.5722 114.172 55.7111C120.594 50.1111 127.522 47 134.494 47C146.2 47 157.35 53.7833 165.883 66.5056C175.222 80.4389 179.756 97.9889 179.756 116.1C179.756 126.867 177.633 134.778 174.022 141.028C170.533 147.072 163.733 153.111 152.294 153.111V135.878C162.089 135.878 164.533 126.878 164.533 116.578C164.533 101.9 161.111 85.6111 153.572 73.9722C148.222 65.7167 141.289 60.6722 133.661 60.6722C125.411 60.6722 118.772 66.8944 111.311 77.9889C107.344 83.8833 103.272 91.0667 98.7 99.1722L93.6667 108.089C83.5556 126.017 80.9944 130.1 75.9389 136.839C67.0778 148.639 59.5111 153.111 49.55 153.111C37.7333 153.111 30.2611 147.994 25.6333 140.283C21.8556 134 20 125.756 20 116.361L37.2556 116.978Z" fill="#0081FB"/>
<path d="M33.6056 67.7222C41.5167 55.5278 52.9333 47 66.0278 47C73.6111 47 81.15 49.2444 89.0222 55.6722C97.6333 62.7 106.811 74.2722 118.261 93.3444L122.367 100.189C132.278 116.7 137.917 125.194 141.217 129.2C145.461 134.344 148.433 135.878 152.294 135.878C162.089 135.878 164.533 126.878 164.533 116.578L179.756 116.1C179.756 126.867 177.633 134.778 174.022 141.028C170.533 147.072 163.733 153.111 152.294 153.111C145.183 153.111 138.883 151.567 131.917 144.994C126.561 139.95 120.3 130.989 115.483 122.933L101.156 99C93.9667 86.9889 87.3722 78.0333 83.5556 73.9778C79.45 69.6167 74.1722 64.35 65.75 64.35C58.9333 64.35 53.1444 69.1333 48.3 76.45L33.6056 67.7222Z" fill="url(#paint0_linear_562_22)"/>
<path d="M65.75 64.35C58.9333 64.35 53.1444 69.1333 48.3 76.45C41.45 86.7889 37.2556 102.189 37.2556 116.978C37.2556 123.078 38.5944 127.761 40.3444 130.594L25.6333 140.283C21.8556 134 20 125.756 20 116.361C20 99.2778 24.6889 81.4722 33.6056 67.7222C41.5167 55.5278 52.9333 47 66.0278 47L65.75 64.35Z" fill="url(#paint1_linear_562_22)"/>
</g>
<defs>
<linearGradient id="paint0_linear_562_22" x1="53.8889" y1="112" x2="163.889" y2="117.556" gradientUnits="userSpaceOnUse">
<stop stop-color="#0064E1"/>
<stop offset="0.4" stop-color="#0064E1"/>
<stop offset="0.83" stop-color="#0073EE"/>
<stop offset="1" stop-color="#0082FB"/>
</linearGradient>
<linearGradient id="paint1_linear_562_22" x1="45" y1="124.222" x2="45" y2="83.6667" gradientUnits="userSpaceOnUse">
<stop stop-color="#0082FB"/>
<stop offset="1" stop-color="#0064E0"/>
</linearGradient>
<clipPath id="clip0_562_22">
<rect width="160" height="106.111" fill="white" transform="translate(20 47)"/>
</clipPath>
</defs>
</svg>
