<svg width="64" height="64" viewBox="0 0 64 64" fill="none" xmlns="http://www.w3.org/2000/svg">
<path d="M31.5129 4L34.0635 8.50074C34.5881 9.42971 34.5881 10.5688 34.0635 11.4978L18.8782 38.2015L26.0466 50.8015C27.1779 52.7926 29.2605 54.0163 31.5077 54.0163C33.7601 54.0163 35.8376 52.7926 36.9689 50.8015L44.1373 38.2015L42.1986 34.8L34.0738 49.1007C33.5422 50.0204 32.566 50.586 31.5103 50.586C30.4546 50.586 29.4785 50.0204 28.9469 49.1007L22.7606 38.2015L36.8609 13.4007L39.4166 17.8963C39.9433 18.8266 39.9433 19.9682 39.4166 20.8985L29.5742 38.2015L31.5129 41.603L42.2089 22.8015L49.2179 35.1319C50.2931 37.0328 50.2931 39.3649 49.2179 41.2659L42.0907 53.7985C40.9902 55.717 37.6271 60 31.4975 60C25.3781 60 22.0253 55.717 20.93 53.7985L13.8078 41.2711C12.7307 39.3688 12.7307 37.0342 13.8078 35.1319L31.5026 4" fill="#ED5153"/>
</svg>
