<svg width="200" height="200" viewBox="0 0 200 200" fill="none" xmlns="http://www.w3.org/2000/svg">
<path fill-rule="evenodd" clip-rule="evenodd" d="M188 99.6829C188 76.1294 168.63 57 144.888 57C142.701 57 140.455 57.1246 138.269 57.4985C119.809 60.1779 107.422 73.8239 100.5 84.2921C93.5779 73.8239 81.1906 60.1779 62.7311 57.4985C60.545 57.1869 58.2985 57 56.1125 57C32.3095 57 13 76.1294 13 99.6829C13 123.236 32.3702 142.366 56.1125 142.366C58.2985 142.366 60.545 142.241 62.7919 141.867C81.2514 139.126 93.6383 125.479 100.561 115.012C107.483 125.479 119.87 139.126 138.33 141.867C140.516 142.179 142.762 142.366 145.009 142.366C168.63 142.366 188 123.236 188 99.6829ZM60.6055 126.913C59.0877 127.162 57.5695 127.224 56.0514 127.224C40.3852 127.224 27.6944 114.824 27.6944 99.6829C27.6944 84.4791 40.4459 72.1415 56.1121 72.1415C57.6303 72.1415 59.1481 72.2661 60.6662 72.4531C78.0935 75.0078 88.7199 92.6416 92.3629 99.6829C88.6591 106.786 77.972 124.358 60.6055 126.913ZM140.333 72.4531C122.906 75.0078 112.219 92.6416 108.637 99.6829C112.219 106.724 122.906 124.358 140.333 126.913C141.851 127.1 143.369 127.224 144.888 127.224C160.493 127.224 173.244 114.887 173.244 99.6829C173.244 84.5414 160.554 72.1415 144.888 72.1415C143.369 72.1415 141.851 72.2661 140.333 72.4531ZM43.9519 95.1107H70.0258V103.317H43.9519V95.1107ZM156.92 103.377H148.127V112.002H139.7V103.377H130.907V95.1107H139.7V86.4853H148.127V95.1107H156.92V103.377Z" fill="#008184"/>
</svg>
