<svg width="200" height="200" viewBox="0 0 200 200" fill="none" xmlns="http://www.w3.org/2000/svg">
<path d="M187 91.469H181.819L175.613 98.3987V91.469H171.263L171.285 108.527H175.613V102.045L181.499 108.527H187L179.068 100.105L187 91.469ZM164.249 98.4841L160.283 98.0367C157.959 97.7805 157.384 97.2045 157.384 96.4156C157.384 95.5412 158.578 94.7523 160.901 94.7523C163.141 94.7523 164.313 95.5845 164.526 96.8424H168.791C168.575 93.2382 165.549 91 161.136 91C155.891 91 153.247 93.0891 153.247 96.7776C153.247 99.7842 154.995 101.192 158.62 101.576L162.65 102.002C164.186 102.173 164.889 102.77 164.889 103.538C164.889 104.412 163.866 105.201 161.392 105.201C158.535 105.201 157.384 104.476 157.191 103.025H153.012C153.204 106.949 155.762 108.953 161.243 108.953C166.253 108.953 169.047 106.757 169.047 103.452C169.047 100.573 167.384 98.8461 164.249 98.4841ZM137.361 108.527H151.093V104.839H141.711V101.747H149.259V98.0367H141.711V95.1576H151.093V91.469H137.361V108.527ZM127.126 91.469H119.152V108.527H127.126C133.246 108.527 134.93 106.246 134.93 99.8696C134.93 93.878 133.31 91.469 127.126 91.469ZM126.951 104.84H123.493V95.1576H126.951C129.681 95.1576 130.491 95.9044 130.491 99.8696C130.495 103.494 129.578 104.84 126.951 104.84ZM107.339 91C101.134 91 97.914 94.8161 97.914 99.955C97.914 105.115 101.134 108.953 107.339 108.953C113.565 108.953 116.785 105.115 116.785 99.955C116.785 94.8161 113.565 91 107.339 91ZM107.339 105.115C104.12 105.115 102.349 103.154 102.349 99.955C102.349 96.8208 104.12 94.8377 107.339 94.8377C110.581 94.8377 112.329 96.8208 112.329 99.955C112.329 103.154 110.58 105.115 107.339 105.115ZM81.8792 95.1576H87.3801V108.527H91.7301V95.1576H97.2105V91.469H81.8792V95.1576ZM75.5472 102.002C75.5472 104.22 74.1822 105.115 71.8575 105.115C69.5977 105.115 68.1268 104.177 68.1268 102.002V91.469H63.7769V102.493C63.7769 107.419 68.169 108.953 71.8575 108.953C75.5255 108.953 79.896 107.419 79.896 102.493V91.469H75.5472V102.002ZM51.0469 91.469L44.5009 108.527H49L50.1423 105.328H57.4503L58.5742 108.527H63.2214L56.5954 91.469H51.0469ZM51.4371 101.704L53.8266 95.0171L56.1761 101.706L51.4371 101.704ZM12.134 108.528L27.4091 99.0266H35.333C35.3939 99.0266 35.4541 99.0386 35.5103 99.0619C35.5665 99.0852 35.6175 99.1194 35.6605 99.1625C35.7035 99.2055 35.7375 99.2567 35.7607 99.3129C35.7839 99.3691 35.7957 99.4294 35.7956 99.4902C35.8019 99.5692 35.7847 99.6482 35.7463 99.7174C35.7078 99.7866 35.6498 99.843 35.5795 99.8793L28.077 104.377C27.5896 104.669 27.4188 105.255 27.4188 105.694L27.4113 108.528H36.9455V92.0537C36.9457 91.9747 36.9299 91.8965 36.8991 91.8237C36.8682 91.751 36.8229 91.6853 36.766 91.6305C36.709 91.5758 36.6415 91.5332 36.5676 91.5052C36.4937 91.4773 36.4149 91.4646 36.336 91.468H27.2383L12 100.929V108.528H12.134Z" fill="black"/>
</svg>
