<svg width="200" height="200" viewBox="0 0 200 200" fill="none" xmlns="http://www.w3.org/2000/svg">
<path d="M95.5764 84L82.7193 101.449L69.8621 84V107.373H73.0764V93.7811L82.7193 106.868L92.3621 93.7811V107.373H95.5764V84ZM106.826 107.373H103.612V84.8727H114.059C115.977 84.8727 117.816 85.6346 119.172 86.9909C120.529 88.3472 121.291 90.1867 121.291 92.1048C121.291 94.0229 120.529 95.8624 119.172 97.2187C117.816 98.575 115.977 99.337 114.059 99.337H106.826V107.373ZM106.826 96.1227H114.059C115.124 96.1227 116.146 95.6994 116.9 94.9459C117.653 94.1924 118.076 93.1704 118.076 92.1048C118.076 91.0392 117.653 90.0173 116.9 89.2638C116.146 88.5103 115.124 88.087 114.059 88.087H106.826V96.1227ZM143.571 107.373H147.227L134.951 84.712L122.678 107.373H126.334L128.946 102.551H140.959L143.571 107.373ZM130.684 99.337L134.951 91.462L139.218 99.337H130.684ZM166.291 101.081C166.291 104.891 162.795 107.766 158.159 107.766C156.656 107.737 155.178 107.384 153.825 106.73C152.472 106.077 151.276 105.14 150.319 103.982L152.585 101.772C153.24 102.635 154.082 103.34 155.047 103.833C156.011 104.327 157.075 104.598 158.159 104.624C161.051 104.624 163.076 103.168 163.076 101.089C163.076 99.3048 161.861 98.1059 159.364 97.4196L156.648 96.7977C150.862 95.377 150.862 91.9071 150.862 90.7661C150.862 87.1789 153.755 84.7682 158.07 84.7682C159.461 84.7638 160.837 85.0553 162.106 85.6233C163.375 86.1913 164.509 87.0229 165.433 88.0629L163.166 90.2775C161.842 88.8531 160.013 88.0039 158.07 87.9118C155.532 87.9118 154.076 88.9516 154.076 90.7677C154.076 91.3093 154.282 93.1173 156.926 93.6863L159.39 94.2407C163.906 95.2982 166.291 97.6655 166.291 101.081ZM188.791 101.081C188.791 104.891 185.295 107.766 180.659 107.766C179.156 107.737 177.678 107.384 176.325 106.73C174.972 106.077 173.776 105.14 172.819 103.982L175.085 101.772C175.74 102.635 176.582 103.34 177.547 103.833C178.511 104.327 179.575 104.598 180.659 104.624C183.551 104.624 185.576 103.168 185.576 101.089C185.576 99.3048 184.361 98.1059 181.864 97.4196L179.148 96.7977C173.362 95.377 173.362 91.9071 173.362 90.7661C173.362 87.1789 176.255 84.7682 180.57 84.7682C181.961 84.7638 183.337 85.0553 184.606 85.6233C185.875 86.1913 187.009 87.0229 187.933 88.0629L185.666 90.2775C184.342 88.8531 182.513 88.0039 180.57 87.9118C178.033 87.9118 176.576 88.9516 176.576 90.7677C176.576 91.3093 176.782 93.1173 179.426 93.6863L181.89 94.2407C186.406 95.2982 188.791 97.6655 188.791 101.081ZM30.3087 102.366C29.0726 103.603 27.4975 104.445 25.7829 104.786C24.0682 105.127 22.2909 104.952 20.6757 104.283C19.0605 103.614 17.68 102.481 16.7087 101.027C15.7374 99.5735 15.219 97.8645 15.219 96.1162C15.219 94.368 15.7374 92.659 16.7087 91.2054C17.68 89.7517 19.0605 88.6188 20.6757 87.9498C22.2909 87.2808 24.0682 87.1057 25.7829 87.4468C27.4975 87.7879 29.0726 88.6298 30.3087 89.8661V89.8661L30.8777 90.435L33.1502 88.1673L32.5764 87.6048C30.8907 85.9192 28.7429 84.7713 26.4048 84.3063C24.0666 83.8413 21.6431 84.08 19.4407 84.9923C17.2382 85.9047 15.3558 87.4496 14.0313 89.4318C12.7069 91.414 12 93.7444 12 96.1283C12 98.5122 12.7069 100.843 14.0313 102.825C15.3558 104.807 17.2382 106.352 19.4407 107.264C21.6431 108.177 24.0666 108.415 26.4048 107.95C28.7429 107.485 30.8907 106.337 32.5764 104.652V104.652L33.1453 104.084L30.8728 101.81L30.3087 102.366ZM51.38 84.0691C48.996 84.0691 46.6656 84.776 44.6834 86.1005C42.7012 87.425 41.1562 89.3075 40.2439 91.51C39.3316 93.7125 39.0929 96.1361 39.558 98.4742C40.0231 100.812 41.1711 102.96 42.8568 104.646C44.5425 106.332 46.6903 107.48 49.0285 107.945C51.3666 108.41 53.7902 108.171 55.9927 107.259C58.1952 106.346 60.0777 104.801 61.4022 102.819C62.7266 100.837 63.4336 98.5066 63.4336 96.1227C63.4336 94.5398 63.1218 92.9724 62.516 91.51C61.9103 90.0476 61.0224 88.7188 59.9031 87.5995C58.7839 86.4802 57.4551 85.5924 55.9927 84.9866C54.5303 84.3809 52.9629 84.0691 51.38 84.0691V84.0691ZM51.38 104.962C49.6317 104.962 47.9228 104.444 46.4691 103.472C45.0155 102.501 43.8826 101.12 43.2136 99.5053C42.5445 97.8902 42.3695 96.1129 42.7105 94.3982C43.0516 92.6836 43.8935 91.1086 45.1297 89.8724C46.3659 88.6362 47.9409 87.7943 49.6555 87.4532C51.3702 87.1122 53.1475 87.2872 54.7626 87.9562C56.3778 88.6253 57.7583 89.7582 58.7296 91.2118C59.7009 92.6654 60.2193 94.3744 60.2193 96.1227C60.2193 98.467 59.288 100.715 57.6303 102.373C55.9726 104.031 53.7243 104.962 51.38 104.962ZM56.5341 93.2411L54.2616 90.9686L46.2259 99.0043L48.4984 101.277L56.5341 93.2411Z" fill="#171717"/>
</svg>
