<svg width="300" height="26" viewBox="0 0 300 26" fill="none" xmlns="http://www.w3.org/2000/svg">
<path d="M4.55352 23.6394C3.08622 22.8143 1.90106 21.5668 1.15211 20.0592C0.380282 18.5324 0 16.8056 0 14.8761V0.412676H5.22535V14.4648C5.22535 16.2338 5.6338 17.5901 6.44366 18.5465C7.25493 19.4986 8.42113 19.9746 9.92958 19.9746C11.4366 19.9746 12.6042 19.4986 13.4155 18.5465C14.231 17.5944 14.6338 16.2338 14.6338 14.4648V0.414084H19.8592V14.8789C19.8592 16.8099 19.4775 18.538 18.707 20.0648C17.9577 21.5726 16.7721 22.8201 15.3042 23.6451C13.8014 24.5084 12.0099 24.938 9.92394 24.938C7.83944 24.938 6.0507 24.5042 4.55352 23.6394ZM22.4408 0.414084H30.4493C32.7873 0.414084 34.6521 0.935211 36.0521 1.98169C37.4507 3.02676 38.1479 4.44507 38.1479 6.23521C38.1479 7.54366 37.869 8.62958 37.3056 9.48873C36.7423 10.3479 35.969 10.9887 34.9887 11.3986C37.8535 12.4789 39.2845 14.4606 39.2845 17.3535C39.2845 18.7296 38.9324 19.9662 38.2352 21.0577C37.5394 22.1493 36.5479 22.9986 35.262 23.6084C33.9761 24.2183 32.4789 24.5197 30.7592 24.5197H22.4408V0.414084ZM30.4127 10.1254C31.2394 10.1254 31.8944 9.90282 32.3901 9.45211C32.8817 9.00845 33.1296 8.38169 33.1296 7.57465C33.1296 6.77183 32.8817 6.14648 32.3901 5.69718C31.8944 5.25211 31.2394 5.02394 30.4127 5.02394H27.6662V10.1197H30.4127V10.1254ZM30.5535 19.9042C31.6732 19.9042 32.5394 19.6451 33.1451 19.1282C33.7535 18.6113 34.0592 17.8606 34.0592 16.8718C34.0592 15.8845 33.7535 15.1338 33.1437 14.6169C32.5352 14.0986 31.6732 13.8408 30.5521 13.8408H27.6648V19.9042H30.5521H30.5535ZM41.3085 0.414084H46.5338V24.5197H41.3085V0.414084ZM51.6563 23.5563C50.1423 22.6408 49.0535 21.331 48.393 19.6296L52.5479 16.531C52.9155 17.5873 53.5352 18.4352 54.4028 19.0803C55.2704 19.7225 56.2099 20.0437 57.2225 20.0437C58.0901 20.0437 58.8014 19.8211 59.3549 19.3718C59.9014 18.9211 60.1803 18.3211 60.1803 17.5648C60.1803 16.831 59.8704 16.1986 59.2507 15.6718C58.631 15.1437 57.4859 14.5803 55.8127 13.9845C53.7268 13.2239 52.131 12.3028 51.0211 11.2113C49.9113 10.1197 49.3535 8.64507 49.3535 6.78873C49.3535 5.50563 49.6831 4.34084 50.3493 3.31127C51.0155 2.27606 51.9408 1.46901 53.1324 0.884507C54.3254 0.3 55.6789 0.0056338 57.1859 0.0056338C59.0394 0.0056338 60.6507 0.377465 62.0141 1.12254C63.3775 1.86901 64.3887 2.96479 65.0563 4.41268L60.8986 7.30563C60.0718 5.44789 58.7662 4.5169 56.9789 4.5169C56.1789 4.5169 55.5183 4.71408 55.0014 5.10141C54.4859 5.49577 54.2268 5.99718 54.2268 6.6169C54.2268 7.30563 54.5887 7.91127 55.3113 8.42817C56.0352 8.94507 57.3099 9.52535 59.1423 10.1662C61.2972 10.9225 62.8761 11.838 63.8887 12.9042C64.8958 13.969 65.4014 15.3972 65.4014 17.1873C65.4014 18.7972 65.0296 20.1831 64.2859 21.3521C63.5569 22.5087 62.5147 23.4347 61.2803 24.0225C60.0211 24.6324 58.6211 24.9324 57.0873 24.9324C54.9747 24.9324 53.169 24.4718 51.6563 23.5563ZM85.4197 1.6338C87.2632 2.69907 88.774 4.25618 89.7831 6.13099C90.8253 8.04084 91.3465 10.1507 91.3465 12.469C91.3465 14.8127 90.8253 16.9296 89.7831 18.8225C88.7687 20.688 87.2587 22.237 85.4197 23.2986C83.5563 24.3845 81.4479 24.9324 79.1155 24.9324C76.7296 24.9324 74.6127 24.4113 72.7592 23.3648C70.9056 22.3197 69.4592 20.9084 68.4268 19.1282C67.3962 17.3568 66.861 15.3408 66.8775 13.2915C66.8775 11.3155 67.2338 9.5662 67.9408 8.04084C68.6177 6.55983 69.6161 5.24824 70.8634 4.20141L70.038 3.37324C71.0028 2.38451 72.2845 1.57746 73.8901 0.946479C75.4958 0.315493 77.2352 0 79.1155 0C81.4535 0 83.5563 0.543662 85.4197 1.6338ZM82.7606 19.0099C83.8123 18.371 84.6597 17.445 85.2028 16.3408C85.7761 15.2028 86.0606 13.9141 86.0606 12.4648C86.0606 11.0211 85.7704 9.72817 85.2028 8.59014C84.6599 7.48543 83.8125 6.55891 82.7606 5.91972C81.707 5.27887 80.493 4.95775 79.1155 4.95775C77.9479 4.95775 76.9099 5.15493 76.0028 5.54225C75.1504 5.89454 74.3823 6.42354 73.7493 7.09437L74.5761 7.92253C73.8437 8.54225 73.2606 9.26338 72.8211 10.0746C72.3873 10.8915 72.1704 11.9056 72.1704 13.1225C72.1704 14.3648 72.4493 15.5028 73.0127 16.5479C73.5705 17.5891 74.4093 18.4529 75.4338 19.0408C76.4873 19.662 77.7113 19.9732 79.1099 19.9732C80.4887 19.9732 81.707 19.6521 82.7606 19.0099ZM98.7056 5.37042V10.9169H108.914V14.9113H98.7042V24.5197H93.4789V0.414084H109.941V5.37183H98.7042L98.7056 5.37042ZM130.668 5.37042H123.93V24.5211H118.71V5.37042H111.939V0.412676H130.672V5.37042H130.668ZM147.765 23.3662C145.968 22.3197 144.558 20.8507 143.535 18.9577C142.513 17.0634 142.007 14.9014 142.007 12.4648C142.007 10.0535 142.518 7.90141 143.535 6.00704C144.552 4.11268 145.952 2.63803 147.728 1.58451C149.51 0.526761 151.493 0 153.692 0C156.031 0 157.999 0.476056 159.604 1.42817C161.21 2.38028 162.444 3.74084 163.317 5.50986L160.844 7.19718C160.085 5.77465 159.155 4.71408 158.045 4.00986C156.935 3.30563 155.52 2.95915 153.8 2.95915C152.148 2.95915 150.672 3.36338 149.365 4.16479C148.059 4.96761 147.046 6.09437 146.324 7.53803C145.6 8.98169 145.239 10.6268 145.239 12.4634C145.239 14.3732 145.585 16.0338 146.287 17.4563C146.985 18.8789 147.976 19.9873 149.262 20.7789C150.542 21.5704 152.055 21.962 153.8 21.962C155.566 21.962 156.961 21.6211 157.993 20.9282C159.025 20.2408 159.951 19.1169 160.776 17.5549L163.323 19.3451C162.335 21.1563 161.07 22.5423 159.521 23.4944C157.972 24.4465 156.068 24.9225 153.8 24.9225C151.575 24.9324 149.566 24.4099 147.765 23.3648V23.3662ZM172.063 23.3141C170.276 22.2443 168.819 20.7004 167.855 18.8535C166.848 16.9606 166.342 14.8282 166.342 12.4634C166.342 10.1 166.848 7.96761 167.855 6.07887C168.862 4.18591 170.266 2.69577 172.063 1.61972C173.861 0.543662 175.894 0 178.162 0C180.428 0 182.463 0.538028 184.259 1.61972C186.047 2.68908 187.503 4.23247 188.468 6.07887C189.475 7.97324 189.982 10.1042 189.982 12.4634C189.982 14.8296 189.475 16.9606 188.468 18.8535C187.461 20.7479 186.056 22.238 184.259 23.3141C182.458 24.3944 180.428 24.9338 178.162 24.9338C175.894 24.9338 173.861 24.3944 172.063 23.3141ZM182.634 20.7479C183.939 19.9352 184.952 18.807 185.675 17.3732C186.397 15.9408 186.759 14.3056 186.759 12.469C186.759 10.6324 186.397 8.99718 185.675 7.56479C184.952 6.13099 183.939 5.00282 182.634 4.19155C181.327 3.37465 179.835 2.97042 178.166 2.97042C176.494 2.97042 175.007 3.37887 173.7 4.19155C172.394 5.00282 171.382 6.13099 170.659 7.56479C169.937 8.99718 169.575 10.638 169.575 12.469C169.575 14.3056 169.937 15.9408 170.659 17.3732C171.382 18.8127 172.394 19.9352 173.7 20.7479C175.007 21.5648 176.494 21.969 178.166 21.969C179.835 21.969 181.327 21.5648 182.634 20.7479ZM193.699 0.414084H198.025L209.504 20.7986H209.711L209.504 17.9437V0.414084H212.665V24.5197H208.332L196.854 4.1338H196.646L196.854 6.99014V24.5197H193.693V0.414084H193.699ZM216.93 0.414084H221.256L232.735 20.7986H232.941L232.735 17.9437V0.414084H235.894V24.5197H231.563L220.085 4.1338H219.877L220.085 6.99014V24.5197H216.924V0.414084H216.93ZM255.661 21.5549V24.5197H240.161V0.414084H255.455V3.37324H243.325V11.1549H254.287V13.7732H243.325V21.5549H255.661ZM264.103 23.3662C262.307 22.3197 260.897 20.8507 259.875 18.9577C258.858 17.0634 258.346 14.9014 258.346 12.4648C258.346 10.0535 258.858 7.90141 259.875 6.00704C260.892 4.11268 262.292 2.63803 264.068 1.58451C265.844 0.526761 267.831 0 270.031 0C272.37 0 274.338 0.476056 275.944 1.42817C277.549 2.38028 278.783 3.74084 279.656 5.50986L277.183 7.19718C276.424 5.77465 275.494 4.71408 274.385 4.00986C273.273 3.31127 271.859 2.95915 270.139 2.95915C268.487 2.95915 267.01 3.36338 265.704 4.16479C264.397 4.96761 263.386 6.09437 262.663 7.53803C261.939 8.98169 261.579 10.6268 261.579 12.4634C261.579 14.3732 261.924 16.0338 262.627 17.4563C263.324 18.8789 264.315 19.9873 265.601 20.7789C266.882 21.5704 268.394 21.962 270.139 21.962C271.906 21.962 273.3 21.6211 274.332 20.9282C275.365 20.2408 276.289 19.1169 277.116 17.5549L279.661 19.3451C278.675 21.1563 277.41 22.5423 275.861 23.4944C274.311 24.4465 272.406 24.9225 270.139 24.9225C267.908 24.9324 265.9 24.4099 264.103 23.3648V23.3662ZM299.897 3.30563H292.782V24.5211H289.621V3.30563H282.475V0.414084H299.901V3.30563H299.897Z" fill="white"/>
</svg>
