<svg width="64" height="64" viewBox="0 0 64 64" fill="none" xmlns="http://www.w3.org/2000/svg">
<path d="M55.8475 31.9746C55.3308 7.38732 21.4908 -1.77502 8.46588 21.2636C9.04188 21.6659 9.83812 22.2094 10.4141 22.6118C9.4508 24.5511 8.76775 26.6174 8.38541 28.7487C8.12847 30.1167 8 31.5017 8 32.8922C8 45.6574 18.7167 56 31.9336 56C45.152 56 55.8687 45.6574 55.8687 32.8993C55.8687 32.5887 55.8687 32.281 55.8475 31.9746ZM13.9068 36.1012C13.5934 38.6028 13.7896 39.3807 13.7868 39.6814L13.2122 39.8833C12.9948 39.4739 12.44 38.0226 12.1972 36.073C11.5704 28.633 16.8263 21.9285 24.8198 20.6805C32.1525 19.6443 39.1633 24.0348 40.8066 30.1873L40.2292 30.3892C39.7435 29.7639 39.2137 29.1741 38.6437 28.6245C29.8005 20.0523 15.9016 23.9854 13.9068 36.0984V36.1012ZM36.68 40.2617C36.0462 41.1451 35.1999 41.8545 34.2193 42.3242C33.228 42.8006 32.1349 43.0262 31.036 42.9811C29.9371 42.9361 28.8661 42.6218 27.9172 42.0659C26.9816 41.5171 26.2005 40.7399 25.647 39.8071C25.1009 38.8874 24.804 37.8412 24.7859 36.7718C24.7703 35.7022 25.0346 34.6471 25.5525 33.7111C26.0781 32.7633 26.8359 31.9647 27.7548 31.3901C28.6855 30.8074 29.7455 30.4631 30.8409 30.3878C31.903 30.3317 32.9582 30.5879 33.8762 31.1247C34.7803 31.652 35.5038 32.4404 35.9515 33.3864C36.392 34.3266 36.5289 35.3713 36.344 36.3878C36.1559 37.4097 35.6581 38.3491 34.9181 39.0786L36.68 40.2617ZM50.2894 40.5059C46.8376 48.0715 39.7308 52.0301 32.1412 51.9384C17.5831 51.248 13.3506 35.0184 23.0776 29.1567L23.5054 29.569C23.3402 29.7807 22.7755 30.2212 21.8663 31.9407C20.8075 34.0273 20.4828 36.1082 20.6155 37.4099C21.3736 48.7534 37.815 51.0602 43.4776 39.8452C50.6889 24.4626 31.5779 8.84285 14.6085 20.7765L14.2174 20.3981C18.6828 13.64 27.399 10.6146 35.7256 12.6292C48.4612 15.7139 55.2983 28.5341 50.295 40.5031L50.2922 40.5059H50.2894Z" fill="white"/>
</svg>
