<svg width="64" height="64" viewBox="0 0 64 64" fill="none" xmlns="http://www.w3.org/2000/svg">
<path fill-rule="evenodd" clip-rule="evenodd" d="M57 46.3784V37.343H52.5397L52.5417 42.286C52.5417 43.6096 51.5137 44.6868 50.2468 44.6868C48.9774 44.6868 47.9485 43.6096 47.9485 42.286L47.9464 18H43.4865V46.3784H57Z" fill="white"/>
<path fill-rule="evenodd" clip-rule="evenodd" d="M22.5405 41.0911C22.5405 43.8724 20.7819 46.3784 15.7836 46.3784C10.782 46.3784 9.02703 43.1081 9.02703 41.0911V37.0574H13.4857V41.9274C13.4857 43.2314 14.5168 44.2927 15.7852 44.2927C17.0545 44.2927 18.0819 43.1989 18.0819 41.8935L18.0803 18H22.5405V41.0911Z" fill="white"/>
<path fill-rule="evenodd" clip-rule="evenodd" d="M40.7838 27.4589V22.624C40.7838 19.4819 37.8815 18 36.0534 18H26.5946V46.3784H36.0534C39.6022 46.3784 40.7838 44.1178 40.7838 42.6726V34.1661C40.7838 32.9652 39.5306 31.3761 37.6649 31.3761C39.5306 31.3761 40.7838 28.8711 40.7838 27.4589ZM34.1932 44.3514L31.3243 44.3456V32.8649H34.1932C36.0541 32.8649 36.0541 34.178 36.0541 38.6392C36.0541 43.1035 36.0541 44.3514 34.1932 44.3514ZM33.9042 30.1622L31.3243 30.1588V20.7027H33.9042C35.6246 20.7027 36.0541 21.0561 36.0541 25.4638C36.0541 29.8761 35.6246 30.1622 33.9042 30.1622Z" fill="white"/>
<path fill-rule="evenodd" clip-rule="evenodd" d="M11.054 28.8108C9.5631 28.8108 8.35135 30.0217 8.35135 31.5138C8.35135 33.0059 9.5631 34.2162 11.054 34.2162C12.5471 34.2162 13.7568 33.0059 13.7568 31.5138C13.7568 30.0217 12.5471 28.8108 11.054 28.8108Z" fill="white"/>
<path fill-rule="evenodd" clip-rule="evenodd" d="M7 18L11.393 28.1351L15.7838 18H7Z" fill="white"/>
</svg>
