<svg width="64" height="64" viewBox="0 0 64 64" fill="none" xmlns="http://www.w3.org/2000/svg">
<path d="M33.9 42.8C33.1 42.8 32.6 42.7 32.2 42.5C31.7 42.3 31.3 42 31.2 41.5C31.1 41.2 31.1 41.1 31.1 39.9V38.7H32.6V39.9C32.6 41.1 32.6 41.1 32.7 41.4C33 42.1 33.7 42.4 35 42.4C35.5 42.4 35.9 42.3 36.2 42.2C36.6 42 36.8 41.7 37 41.3L37.1 41.1V39.9V38.7H38.6V39.9C38.6 41 38.6 41.1 38.6 41.3C38.5 41.6 38.4 41.9 38.2 42.1C37.8 42.5 37.1 42.7 35.8 42.8C35.2 42.8 34.3 42.8 33.9 42.8ZM6 42.4V42.1H7.7C9.5 42.1 9.4 42.1 9.8 42C10.2 41.9 10.6 41.6 10.7 41.3C10.9 41 10.9 40.9 10.9 39.6V38.6H12.4V39.8C12.4 41.1 12.4 41.1 12.3 41.4C12.2 41.7 11.9 42 11.5 42.2C11.2 42.3 10.7 42.5 10.2 42.5C9.6 42.6 9.4 42.6 7.7 42.6H6L6 42.4ZM13.1 42.6C13.1 42.6 13.9 41.7 14.8 40.6L16.5 38.6H17.3H18.1L19.8 40.6C20.7 41.7 21.5 42.6 21.5 42.6C21.5 42.6 21.1 42.6 20.7 42.6H19.9L19.5 42.2L19.1 41.8H16.9H14.7L14.3 42.2L14 42.7H13.5C13.1 42.7 13.1 42.7 13.1 42.6ZM18.7 41.4L16.9 39.3C16.9 39.3 15.1 41.3 15.1 41.4C15.1 41.4 15.4 41.4 16.9 41.4C18.1 41.4 18.7 41.4 18.7 41.4ZM25.2 42.7C24.9 42.7 24.3 42.6 24.1 42.6C22.9 42.4 22.3 42 22.1 41.3C22 40.9 22 40.3 22.2 39.9C22.4 39.5 22.7 39.2 23.1 39.1C23.3 39 23.7 38.9 24 38.9C24.6 38.8 24.9 38.8 27.1 38.8H29.2V39.3H27.5C25.7 39.3 25.3 39.3 25 39.4C24.2 39.5 23.8 39.9 23.6 40.5C23.6 40.7 23.6 41.1 23.6 41.3C23.8 41.9 24.2 42.2 25 42.4C25.2 42.4 25.3 42.4 26.6 42.4H27.9V41.1H29.4V42.9H27.3C26.3 42.7 25.3 42.7 25.2 42.7ZM39.2 42.6C39.2 42.6 40 41.7 40.9 40.6L42.6 38.7H44.1L45.8 40.6C46.7 41.7 47.5 42.6 47.5 42.6H46.7H45.9L45.5 42.2L45.1 41.8H40.8L40.4 42.2L40 42.7H39.6L39.2 42.6ZM44.7 41.4L42.9 39.3L41.1 41.4C41.1 41.4 41.9 41.4 42.9 41.4C43.9 41.4 44.7 41.4 44.7 41.4ZM48.9 40.7V38.7H51.6C54.5 38.7 54.5 38.7 54.9 38.8C55.7 39 56 39.3 56 40C56 40.4 55.9 40.6 55.6 40.8C55.3 41 55 41.1 54.4 41.2C54.1 41.2 54.1 41.2 54.1 41.2C54.1 41.2 54.6 41.5 55.2 41.9C55.8 42.3 56.3 42.6 56.3 42.6C56.3 42.6 56.2 42.6 55.5 42.6H54.7L53.5 42L52.4 41.3H50.4V42.7H48.9V40.7ZM53.7 40.8C54.3 40.8 54.5 40.6 54.5 40C54.5 39.5 54.4 39.3 53.9 39.2C53.8 39.2 53.6 39.2 52.1 39.2H50.4V40.9H52C52.8 40.8 53.6 40.8 53.7 40.8ZM49 36.4C48.9 36.4 48.8 36.4 48.7 36.3C48.3 36.2 48 35.9 47.3 35.3C46.4 34.5 46.3 34.4 45.8 34.1C45.5 33.9 45.3 33.9 45 33.8C44.4 33.6 43.7 33.6 42 33.8C40.7 33.9 40.1 33.9 39.5 33.8C38.5 33.6 37.7 33.2 37 32.5C36.8 32.3 36.5 32 36.4 31.8C36.1 31.4 36 31.2 35.4 30.2C35.3 30 35.2 29.9 35.1 29.8C34.7 29.4 34.1 29.1 33.6 29.1C33.4 29.1 32.9 29.1 32.4 29.2C31.2 29.4 30.3 29.4 29.5 29.4C28.4 29.4 27.8 29.3 26.8 29H26.7L26.6 29.1C26.3 29.4 25.8 29.6 25.1 29.6C24.7 29.6 24.1 29.6 23.7 29.5C23.4 29.4 22.4 29.1 20.3 28.4C19 27.9 19 27.9 18.8 27.9C18.5 27.9 18.4 28 18.2 28.4C17.8 29.1 17.2 29.6 16.4 29.8H16.3L16.1 29.7C15.9 29.6 15.7 29.5 15.6 29.3C15.2 28.9 15.3 28.3 15.7 27.6C16.2 26.7 17 26.1 17.8 25.9C18 25.8 18.7 25.7 19.1 25.7C19.5 25.6 19.5 25.7 19.3 25.6C18.7 25.1 18 24.8 17.4 24.7C17.1 24.7 16.8 24.7 16.6 24.7C16.1 24.8 15.7 25 15.4 25.2C15.2 25.3 15 25.6 14.8 25.9C14.6 26.1 14.5 26.3 14.5 26.3C14.4 26.4 14.3 26.4 14.2 26.4C14.1 26.4 13.9 26.4 13.7 26.3C13.5 26.3 13.2 26.1 13.1 26H13V25.9C13 25.7 13 25.7 13 25.6L13.1 25.5V25.4C13 25.3 13 25.2 13 25.2V25.1H12.9C12.7 25.1 12.6 25 12.5 24.9H12.4C12 25.1 11.5 24.8 11.2 24.3C11.1 24.2 11.1 24.1 11 24C10.9 23.9 10.8 23.8 10.8 23.6C10.8 23.5 10.8 23.4 10.9 23.3C11 23.2 11.2 22.9 11.5 22.6C11.8 22.3 11.8 22.3 11.8 22.2C11.8 22.1 11.8 22 11.8 21.9C11.9 21.7 12.2 21.4 12.4 21.2C13 20.8 14 20.4 15.2 20.3C16.5 20.1 18.1 20.1 20 20.4C22.9 20.8 26.5 21.8 30.2 23.2C30.9 23.4 32.5 24 34 24.6C36.4 25.6 39.6 27 40.5 27.4C41.4 27.9 42.6 28.5 45.7 30.2C47.9 31.4 48.6 31.8 49.5 32.2C50.4 32.6 50.6 32.7 51 32.8C51.3 32.8 51.7 32.8 52 32.8C52.4 32.7 52.6 32.6 53.1 32.4C53.4 32.2 53.6 32.2 53.8 32.1C54.2 32.1 54.4 32.2 54.6 32.5C54.7 32.6 54.7 32.8 54.6 33C54.5 33.3 54.3 33.6 54.1 33.9C53.7 34.3 53.1 34.6 52.4 34.7C52.2 34.7 52.1 34.7 51.7 34.7C51.2 34.7 51.2 34.7 50.7 34.6H50.6L50.7 34.7C50.8 34.8 50.9 35 51 35.2V35.4L50.9 35.5C50.7 35.8 50.4 36.2 50.2 36.3C49.7 36.4 49.4 36.5 49 36.4ZM49.6 36C49.8 35.9 49.8 35.9 49.6 36C49.3 35.9 49 35.8 48.7 35.6C48.6 35.5 48.3 35.3 48.4 35.3C49.1 35.5 49.6 35.5 49.9 35.5C50.1 35.4 50.3 35.3 50.3 35.2C50.3 35.1 50.2 35 50.1 34.8C50 34.7 49.9 34.6 49.5 34.4C49.2 34.2 48.9 34.1 48.7 33.8C48.4 33.5 48 33.1 47.7 32.8C47.1 32.1 47 32 46.7 31.8C46.5 31.6 46.2 31.5 45.9 31.5C45.8 31.5 45.6 31.5 44.4 31.5C43 31.5 42.7 31.5 42.4 31.4C42.1 31.3 41.9 31.2 41.6 31C41.3 30.7 41.1 30.5 40.7 29.7C40.5 29.4 40.4 29.1 40.3 29C40.2 28.9 40.1 28.8 40 28.7C39.8 28.5 39.8 28.5 39.8 28.5C39.8 28.5 40.2 28.8 40.4 28.9C40.6 29 40.7 29.2 40.9 29.5C41.5 30.3 41.9 30.7 42.5 30.9C42.8 31 43.4 31.1 44.7 31.2C45.5 31.3 45.8 31.3 46 31.3C46.2 31.4 46.5 31.5 46.7 31.6C46.8 31.7 47.2 32 47.6 32.5C48 32.9 48.5 33.4 48.6 33.4C49.2 33.9 49.9 34.2 50.6 34.3C50.8 34.3 51.6 34.3 51.9 34.3C52.2 34.3 52.5 34.2 52.7 34.1C53.1 34 53.5 33.7 53.7 33.4C54 33.3 54 33.1 54 33C54 32.9 53.9 32.7 53.9 32.7C53.8 32.6 53.6 32.6 53 32.9C52.7 33.1 52.5 33.1 52.4 33.1C51.7 33.3 50.8 33.2 50 32.8C49.8 32.7 48.8 32.2 45.4 30.4C44.2 29.8 43.8 29.6 42.9 29.1C41.1 28.2 38.4 26.9 34.8 25.5C32.6 24.6 31.7 24.3 29.8 23.6C28 22.9 25.1 22 23.6 21.6H23.5C23.6 21.8 24 22.3 24.1 22.5C24.3 22.8 24.5 23.2 24.5 23.2H24.4C24.4 23.2 24.3 23.1 24.2 23C23.5 22.1 22.5 21.4 21.3 21C20.4 20.7 19.4 20.6 18.5 20.6C18.1 20.6 17.9 20.7 17.6 20.8C17.4 20.9 17 21.1 16.8 21.2C16.6 21.3 16.4 21.5 16.4 21.5C16.4 21.5 16.5 21.5 16.5 21.6C17.2 21.8 17.8 22.4 18.4 23.2C18.8 23.5 19 23.9 19 23.9C19 23.9 19 23.9 18.9 23.9C18 23.2 16.8 22.5 16.1 22.4C15.4 22.2 15 22 14.9 21.7C14.9 21.6 14.9 21.6 15.1 21.7C15.3 21.7 15.7 21.7 15.9 21.7C16.2 21.6 16.4 21.5 16.6 21.3C16.7 21.2 16.8 21 16.8 21C16.8 21 16.5 21 16.2 21C15.2 21 14.7 21.1 14.1 21.2C13.2 21.3 12.5 21.6 12.3 22C12.2 22 12.2 22.1 12.2 22.1C12.2 22.2 12.2 22.3 12.3 22.3C12.4 22.3 12.4 22.3 12.5 22.1C12.7 21.9 13 21.7 13.3 21.6C13.4 21.6 14.2 21.6 14.2 21.6C14.2 21.6 14.1 21.8 14 22C13.9 22.1 13.6 22.3 13.5 22.4C13.3 22.6 13.1 22.6 12.7 22.7C12.6 22.7 12.4 22.8 12.3 22.8C12 22.9 11.6 23.2 11.5 23.6C11.4 23.8 11.4 24 11.6 24.2C11.8 24.4 12.1 24.5 12.3 24.3C12.4 24.2 12.5 24.1 12.6 23.7C12.9 23.1 13 22.9 13.2 22.8C13.4 22.7 13.7 22.7 13.9 22.8C14 22.9 14.2 23.1 14.3 23.2C14.5 23.6 14.6 24.1 14.4 24.4C14.4 24.8 14.1 25.3 13.6 25.7C13.5 25.8 13.4 25.9 13.5 25.9C13.5 26 13.9 26.1 14 26.1H14.1C14.1 26.1 14.3 25.8 14.5 25.6C14.8 25.2 14.9 25.1 14.9 25C15.1 25 15.4 24.7 15.6 24.6C15.9 24.3 16 24 15.9 23.6C15.9 23.2 15.8 22.9 15.6 22.7V22.6H15.7C15.8 22.6 16 22.7 16.1 22.7C16.4 22.9 16.7 23.2 16.9 23.6C16.9 23.7 17 23.8 17.1 23.8C17.2 23.9 17.3 24 17.4 24C17.5 24 17.9 24.1 18.1 24.2C18.7 24.4 19.1 24.6 19.9 25.1C20.2 25.3 20.3 25.4 20.3 25.3C20.3 25.3 20.3 25.2 20.2 25.1C20.1 24.8 20.1 24.4 20.2 24.1C20.2 24 20.2 23.9 20.2 23.9C20.2 23.9 20.2 23.9 20.3 23.9C20.3 23.9 20.4 23.9 20.4 24C20.5 24.6 20.9 25.2 21.5 25.7C21.9 26.1 22.7 26.4 23.4 26.7L23.6 26.8V26.9C23.6 27 23.6 27 23.5 27C23.4 27 23 26.9 22.8 26.9C22.5 26.8 22.1 26.7 21.6 26.5C21 26.3 20.8 26.2 20.5 26.2C20.3 26.2 20.2 26.2 19.9 26.2C19.5 26.2 18.9 26.2 18.4 26.3C17.3 26.5 16.7 26.9 16.1 27.9C15.9 28.2 15.8 28.4 15.9 28.7C15.9 28.9 16.1 29.2 16.3 29.4L16.4 29.5H16.5C16.6 29.5 16.6 29.5 16.6 29.4C16.6 29.4 16.6 29.4 16.5 29.4C16.4 29.3 16.2 29.2 16.2 29.1C16.1 28.9 16.1 28.6 16.2 28.3C16.3 28.1 16.4 27.9 16.4 27.9C16.4 27.9 16.4 27.9 16.5 27.9V28C16.5 28.1 16.5 28.2 16.5 28.2C16.5 28.6 16.7 28.9 17.1 29H17.2L17.3 28.9C17.4 28.8 17.6 28.6 17.7 28.5C17.8 28.4 17.8 28.2 17.9 28.1C17.9 27.9 18.1 27.7 18.3 27.6C18.5 27.5 18.8 27.5 19.1 27.5C19.2 27.5 20.1 27.8 21.1 28C23.7 28.7 23.7 28.7 24.2 28.8C24.5 28.8 25 28.8 25.2 28.8C25.4 28.8 25.7 28.7 25.8 28.6C26 28.5 26.2 28.3 26.2 28.2C26.4 27.9 26.3 27.3 26.1 26.8C25.9 26.3 25.6 25.7 25.2 25.2C26.3 26 27.8 26.6 29.5 26.8C29.8 26.8 30.3 26.9 30.5 26.9H30.7V27C31 27 31 27 31 27C31 27 30.9 27 30.8 27C30.2 27.1 29.3 27.1 28.6 27C28.1 26.9 27.4 26.8 26.9 26.6C26.8 26.6 26.7 26.5 26.6 26.5C26.6 26.5 26.6 26.6 26.7 26.7C26.9 27.1 27 27.4 27 27.8C27 27.9 27 28 27 28.1V28.2L27.2 28.3C27.7 28.5 28.4 28.7 29.2 28.8C29.5 28.8 29.7 28.8 30.3 28.8C31.3 28.8 31.7 28.8 32.7 28.6C33.1 28.5 33.7 28.5 33.9 28.6C34 28.6 34.1 28.6 34.1 28.6C34.1 28.6 34.1 28.4 34 28.3C33.9 28.1 33.7 27.9 33.5 27.7L33.3 27.5C33.3 27.4 33.4 27.5 33.5 27.6C34 27.9 34.7 28.5 35.2 29.2C35.4 29.4 35.5 29.7 35.7 30C36 30.5 36.2 30.9 36.5 31.2C37.3 32.2 38.3 32.8 39.5 33C39.9 33.1 40.1 33.1 41.5 33C42.6 32.9 42.8 32.9 43.2 32.9C44.1 32.9 44.9 33 45.4 33.3C45.8 33.5 46.6 34.1 47.3 34.8C48 35.4 48.3 35.7 48.7 35.9C49 36 49.3 36.1 49.6 36ZM15.3 21.4C15.3 21.2 15.5 21.1 15.7 21C15.9 21 16.5 21 16.5 21C16.5 21 16.5 21.1 16.3 21.2C16 21.3 15.8 21.4 15.6 21.4C15.5 21.4 15.4 21.4 15.3 21.4ZM13.6 25.1C13.7 25.1 13.8 24.9 13.9 24.7C14 24.4 14 23.9 13.8 23.6C13.6 23.4 13.3 23.4 13.1 23.6C13 23.8 12.8 24.2 12.8 24.4C12.8 24.5 12.8 24.6 12.9 24.8L13 25H13.2C13.4 25.2 13.5 25.2 13.6 25.1ZM13 22.3C13.1 22.3 13.2 22.2 13.3 22.1L13.4 22H13.3C13.1 22 12.9 22 12.8 22.2C12.8 22.3 12.8 22.3 13 22.3Z" fill="white"/>
</svg>
