<svg width="64" height="64" viewBox="0 0 64 64" fill="none" xmlns="http://www.w3.org/2000/svg">
<path fill-rule="evenodd" clip-rule="evenodd" d="M13.664 18.0069H16.6126C15.104 19.5154 13.8011 21.12 12.6766 22.8069L13.664 18.0069ZM15.0629 28.0183C16.2697 25.344 18.0389 22.848 20.3223 20.5851C21.2607 19.65 22.2694 18.788 23.3394 18.0069H28.0023C27.8651 18.0754 27.7143 18.144 27.5634 18.2126C25.5406 19.2 23.6891 20.5234 22.0503 22.1417C20.3223 23.856 18.944 25.7211 17.9497 27.696C16.9897 29.616 16.4 31.5909 16.208 33.5657C15.8309 37.5429 17.1269 41.232 19.856 43.9406C20.4236 44.5056 21.0514 45.0069 21.728 45.4354H16.9006C15.8241 44.2307 14.9656 42.8478 14.3634 41.3486C13.664 39.6069 13.3143 37.728 13.3143 35.76C13.3143 33.1886 13.904 30.5897 15.0629 28.0114V28.0183ZM21.2343 24.384C21.695 23.8281 22.1824 23.2949 22.6949 22.7863C25.0263 20.4754 27.7417 18.8777 30.512 18.0069H33.0834L32.7817 19.4469C29.5931 19.9063 26.4731 21.504 23.9771 23.9931C23.84 24.1303 23.7166 24.2537 23.5931 24.384H21.2343ZM35.9429 35.808C35.024 36.7269 33.9543 37.3851 32.8777 37.7966L33.1726 36.3566C33.9653 36.0143 34.6864 35.5257 35.2983 34.9166C36.3269 33.9154 36.944 32.6537 37.04 31.3851C37.1429 30.1097 36.7314 28.9371 35.8743 28.08C35.6216 27.8349 35.3353 27.6271 35.024 27.4629L35.3394 25.92C35.9566 26.1531 36.5189 26.5029 36.9851 26.9691C37.9726 27.9497 38.4937 29.184 38.4937 30.5486C38.4937 32.3177 37.5886 34.1829 35.9566 35.8149L35.9429 35.808ZM39.3989 30.5417C39.3989 28.9303 38.7817 27.4766 37.616 26.3246C37.0197 25.736 36.2976 25.2905 35.504 25.0217L35.8674 23.28C37.0331 23.5543 38.0617 24.1303 38.8846 24.96C42.08 28.1143 41.4766 33.4834 37.4926 37.44C35.9566 38.9486 34.1463 40.0114 32.3086 40.4983L32.6514 38.8183C34.0914 38.3931 35.4423 37.584 36.5806 36.4526C38.3909 34.656 39.392 32.544 39.392 30.5417H39.3989ZM36.1143 31.3097C36.0457 32.3726 35.5177 33.4354 34.6537 34.2857C34.281 34.6526 33.8614 34.9685 33.4057 35.2251L34.8183 28.4023C34.9691 28.4983 35.0926 28.608 35.2297 28.7246C35.888 29.3897 36.2103 30.3017 36.1349 31.3303L36.1143 31.3097ZM9.60457 43.4263C9.87944 44.1155 10.1978 44.7866 10.5577 45.4354H8L8.87086 41.2251C9.06311 41.9714 9.30361 42.7044 9.59086 43.4194L9.60457 43.4263ZM12.3886 35.7669C12.3886 37.8446 12.7726 39.84 13.5131 41.6777C14.0556 43.0315 14.795 44.2977 15.7074 45.4354H11.6137C11.1645 44.6829 10.7748 43.8966 10.448 43.0834C9.91037 41.7447 9.54181 40.3442 9.35086 38.9143L12.1143 25.4811C13.4857 22.9714 15.2686 20.6126 17.4491 18.4594C17.6069 18.3017 17.7646 18.1509 17.9291 18H21.8514C21.0926 18.605 20.3669 19.2505 19.6777 19.9337C17.312 22.2789 15.4811 24.8709 14.2263 27.648C13.0126 30.3223 12.3954 33.0651 12.3954 35.7531L12.3886 35.7669ZM20.1097 34.3817C20.1097 32.3246 20.6926 30.2537 21.7966 28.2994H23.7577C22.7086 30.0411 22.1326 31.9543 22.1326 33.8263C22.1326 34.1486 22.16 34.464 22.2011 34.7726H20.1234C20.1165 34.6447 20.1119 34.5166 20.1097 34.3886V34.3817ZM29.3806 28.2926C29.1841 28.4489 28.9963 28.616 28.8183 28.7931C27.5977 30.0069 26.9257 31.4674 26.9257 32.9074C26.9257 33.5794 27.0766 34.2103 27.3509 34.7589H25.7257C25.5968 34.2898 25.5322 33.8053 25.5337 33.3189C25.5337 31.6046 26.3154 29.7943 27.6869 28.2994H29.3874L29.3806 28.2926ZM23.0514 33.8194C23.0514 31.9474 23.6823 30.0206 24.8343 28.2994H26.4937C26.0191 28.8993 25.6206 29.5558 25.3074 30.2537C24.848 31.2686 24.6217 32.3109 24.6217 33.3394C24.6217 33.8194 24.6697 34.3131 24.7794 34.7794H23.1063C23.072 34.464 23.0514 34.1486 23.0514 33.8194ZM38.1371 38.0846C42.4983 33.7646 43.1017 27.8469 39.5497 24.3223C38.5897 23.376 37.4034 22.7246 36.0663 22.4023L36.4777 20.3863C38.2811 20.7017 39.9269 21.4834 41.2229 22.7726C42.9577 24.4869 43.8971 26.6126 43.9794 28.9851C44 29.6271 43.9633 30.2697 43.8697 30.9051C43.4446 33.8126 41.8606 36.7474 39.4126 39.168C37.2731 41.2937 34.5166 42.768 31.7463 43.3097L32.1234 41.4857C34.2629 41.0194 36.3749 39.84 38.1577 38.0846H38.1371ZM41.8743 22.1211C40.7771 21.0446 39.4606 20.256 37.9451 19.7897C37.5266 19.6632 37.1006 19.5625 36.6697 19.488L36.9577 18.0069H39.632C41.0928 18.5333 42.4217 19.3709 43.5269 20.4617C44.6789 21.6137 45.5566 22.9303 46.1326 24.384H44.912L44.48 26.4686L44.4457 26.3314C43.9657 24.7543 43.0949 23.3486 41.8606 22.1211H41.8743ZM47.1337 24.384C46.5166 22.6697 45.5291 21.1406 44.1851 19.8171C43.4713 19.1101 42.6666 18.5014 41.792 18.0069H46.784C48.4658 19.7996 49.6562 21.9962 50.24 24.384H47.12H47.1337ZM32.2057 22.2926C30.512 22.6011 28.8663 23.3211 27.3851 24.3771H24.8891C27.1794 22.1966 29.9154 20.8526 32.5897 20.4L32.192 22.2926H32.2057ZM32 23.2526L31.7669 24.3771H29.0789C29.9935 23.867 30.9775 23.4928 32 23.2663V23.2526ZM17.12 33.6549C17.4217 30.6034 18.7657 27.504 20.96 24.7406L20.2057 28.2926H20.7543C19.7257 30.2606 19.1771 32.3383 19.1771 34.3817C19.1771 34.5189 19.1771 34.6354 19.1771 34.7657H18.8617L18.0251 38.928H20.1989C20.6711 39.906 21.3065 40.7964 22.0777 41.5611C23.5863 43.056 25.4789 43.9886 27.632 44.3177L27.4057 45.4354H23.6617C22.4879 44.928 21.4184 44.2072 20.5074 43.3097C17.9703 40.7931 16.7771 37.3646 17.1269 33.6411L17.12 33.6549ZM28.7634 38.9486L28.4206 40.6286C27.2217 40.3566 26.1152 39.775 25.2114 38.9417H28.7771L28.7634 38.9554V38.9486ZM28.2149 41.52L27.824 43.44C25.8491 43.1383 24.1211 42.288 22.7497 40.9234C22.1537 40.3367 21.6456 39.6669 21.2411 38.9349H23.9497C24.0869 39.0926 24.224 39.2366 24.3611 39.3806C25.4583 40.4777 26.7611 41.1909 28.2286 41.52H28.2149ZM40.5714 45.4354H36.704C38.333 44.6358 39.8443 43.6159 41.1954 42.4046L40.5714 45.4354ZM46.9486 29.3349C46.928 29.6914 46.9006 30.0549 46.8594 30.4183C46.6331 32.2286 46.0571 34.0526 45.1589 35.8011H43.1017C43.9589 34.2583 44.5211 32.6469 44.7611 31.0217C44.8434 30.4526 44.8846 29.8903 44.8846 29.3349H46.9417H46.9486ZM52.3109 18.0069C52.7395 18.7417 53.113 19.5072 53.4286 20.2971C53.9493 21.612 54.313 22.9838 54.512 24.384H51.1794C50.6399 22.0359 49.5493 19.85 47.9977 18.0069H52.3177H52.3109ZM53.36 18.0069H56L55.0811 22.4777C54.7079 20.9188 54.1315 19.4157 53.3669 18.0069H53.36ZM50.6514 29.3349C50.6309 29.5406 50.6103 29.7463 50.5829 29.952C50.3771 31.9269 49.8423 33.8949 49.0057 35.8011H46.1806C47.0034 34.0869 47.552 32.304 47.7577 30.5211C47.8126 30.1303 47.8469 29.7326 47.8674 29.3349H50.6446H50.6514ZM51.5017 30.0549C51.5223 29.8149 51.5429 29.5749 51.5703 29.3349H53.4217L52.1189 35.808H49.9931C50.7817 33.9223 51.296 31.9886 51.5017 30.048V30.0549ZM31.5474 44.2491C34.6194 43.7417 37.6914 42.1577 40.064 39.792C40.887 38.9798 41.6309 38.0913 42.2857 37.1383L41.5314 40.8274C41.4286 40.9234 41.3257 41.0194 41.2366 41.1154C39.2923 43.0371 36.9522 44.5114 34.3794 45.4354H31.2937L31.5406 44.256L31.5474 44.2491ZM29.4629 29.4377C29.8211 29.0804 30.2245 28.7715 30.6629 28.5189L29.3943 34.7589H28.4137C28.0366 34.2446 27.8446 33.6137 27.8446 32.9074C27.8446 31.7074 28.4137 30.4731 29.4629 29.4377Z" fill="white"/>
</svg>
