<svg width="20" height="20" viewBox="0 0 20 20" fill="none" xmlns="http://www.w3.org/2000/svg">
<g clip-path="url(#clip0_1493_1045)">
<path d="M6.79297 15.7578C6.79297 15.8359 6.70312 15.8984 6.58984 15.8984C6.46094 15.9102 6.37109 15.8477 6.37109 15.7578C6.37109 15.6797 6.46094 15.6172 6.57422 15.6172C6.69141 15.6055 6.79297 15.668 6.79297 15.7578ZM5.57813 15.582C5.55078 15.6602 5.62891 15.75 5.74609 15.7734C5.84766 15.8125 5.96484 15.7734 5.98828 15.6953C6.01172 15.6172 5.9375 15.5273 5.82031 15.4922C5.71875 15.4648 5.60547 15.5039 5.57813 15.582ZM7.30469 15.5156C7.19141 15.543 7.11328 15.6172 7.125 15.707C7.13672 15.7852 7.23828 15.8359 7.35547 15.8086C7.46875 15.7813 7.54687 15.707 7.53516 15.6289C7.52344 15.5547 7.41797 15.5039 7.30469 15.5156ZM9.875 0.546875C4.45703 0.546875 0.3125 4.66016 0.3125 10.0781C0.3125 14.4102 3.03906 18.1172 6.93359 19.4219C7.43359 19.5117 7.60938 19.2031 7.60938 18.9492C7.60938 18.707 7.59766 17.3711 7.59766 16.5508C7.59766 16.5508 4.86328 17.1367 4.28906 15.3867C4.28906 15.3867 3.84375 14.25 3.20312 13.957C3.20312 13.957 2.30859 13.3437 3.26562 13.3555C3.26562 13.3555 4.23828 13.4336 4.77344 14.3633C5.62891 15.8711 7.0625 15.4375 7.62109 15.1797C7.71094 14.5547 7.96484 14.1211 8.24609 13.8633C6.0625 13.6211 3.85938 13.3047 3.85938 9.54687C3.85938 8.47266 4.15625 7.93359 4.78125 7.24609C4.67969 6.99219 4.34766 5.94531 4.88281 4.59375C5.69922 4.33984 7.57812 5.64844 7.57812 5.64844C8.35938 5.42969 9.19922 5.31641 10.0313 5.31641C10.8633 5.31641 11.7031 5.42969 12.4844 5.64844C12.4844 5.64844 14.3633 4.33594 15.1797 4.59375C15.7148 5.94922 15.3828 6.99219 15.2813 7.24609C15.9063 7.9375 16.2891 8.47656 16.2891 9.54687C16.2891 13.3164 13.9883 13.6172 11.8047 13.8633C12.1641 14.1719 12.4688 14.7578 12.4688 15.6758C12.4688 16.9922 12.457 18.6211 12.457 18.9414C12.457 19.1953 12.6367 19.5039 13.1328 19.4141C17.0391 18.1172 19.6875 14.4102 19.6875 10.0781C19.6875 4.66016 15.293 0.546875 9.875 0.546875ZM4.10937 14.0195C4.05859 14.0586 4.07031 14.1484 4.13672 14.2227C4.19922 14.2852 4.28906 14.3125 4.33984 14.2617C4.39062 14.2227 4.37891 14.1328 4.3125 14.0586C4.25 13.9961 4.16016 13.9687 4.10937 14.0195ZM3.6875 13.7031C3.66016 13.7539 3.69922 13.8164 3.77734 13.8555C3.83984 13.8945 3.91797 13.8828 3.94531 13.8281C3.97266 13.7773 3.93359 13.7148 3.85547 13.6758C3.77734 13.6523 3.71484 13.6641 3.6875 13.7031ZM4.95313 15.0937C4.89063 15.1445 4.91406 15.2617 5.00391 15.3359C5.09375 15.4258 5.20703 15.4375 5.25781 15.375C5.30859 15.3242 5.28516 15.207 5.20703 15.1328C5.12109 15.043 5.00391 15.0312 4.95313 15.0937ZM4.50781 14.5195C4.44531 14.5586 4.44531 14.6602 4.50781 14.75C4.57031 14.8398 4.67578 14.8789 4.72656 14.8398C4.78906 14.7891 4.78906 14.6875 4.72656 14.5977C4.67188 14.5078 4.57031 14.4688 4.50781 14.5195Z" fill="black"/>
</g>
<defs>
<clipPath id="clip0_1493_1045">
<rect width="20" height="20" fill="white"/>
</clipPath>
</defs>
</svg>
