<svg width="64" height="64" viewBox="0 0 64 64" fill="none" xmlns="http://www.w3.org/2000/svg">
<path fill-rule="evenodd" clip-rule="evenodd" d="M32 8C27.2533 8 22.6131 9.40758 18.6663 12.0447C14.7195 14.6819 11.6434 18.4302 9.8269 22.8156C8.0104 27.201 7.53512 32.0266 8.46116 36.6822C9.38721 41.3377 11.673 45.6141 15.0294 48.9705C18.3859 52.327 22.6623 54.6128 27.3178 55.5388C31.9734 56.4649 36.799 55.9896 41.1844 54.1731C45.5698 52.3566 49.3181 49.2805 51.9553 45.3337C54.5924 41.3869 56 36.7467 56 32C56 28.8483 55.3792 25.7274 54.1731 22.8156C52.967 19.9038 51.1992 17.258 48.9706 15.0294C46.742 12.8008 44.0962 11.033 41.1844 9.82689C38.2726 8.62078 35.1517 8 32 8ZM32 49.6C28.5191 49.6 25.1163 48.5678 22.222 46.6338C19.3277 44.6999 17.0718 41.9512 15.7397 38.7352C14.4076 35.5192 14.0591 31.9805 14.7382 28.5664C15.4173 25.1523 17.0935 22.0163 19.5549 19.5549C22.0163 17.0935 25.1524 15.4173 28.5664 14.7382C31.9805 14.0591 35.5193 14.4076 38.7352 15.7397C41.9512 17.0718 44.7 19.3277 46.6339 22.222C48.5678 25.1163 49.6 28.519 49.6 32C49.6 36.6678 47.7457 41.1444 44.4451 44.4451C41.1445 47.7457 36.6678 49.6 32 49.6Z" fill="white"/>
<path d="M37.7376 21.7376L42.2624 26.2624L26.2624 42.2624L21.7376 37.7376L37.7376 21.7376Z" fill="white"/>
</svg>
