<svg width="1920" height="940" viewBox="0 0 1920 940" fill="none" xmlns="http://www.w3.org/2000/svg">
<g clip-path="url(#clip0_1908_1011)">
<path d="M1857.27 528.066C1857.48 527.709 1857.56 527.493 1857.93 527.22C1870.71 517.72 1903.97 512.33 1920 512.414V514.334C1909.54 514.461 1899.76 515.126 1889.53 517.556C1884.13 518.838 1860.17 528.265 1857.27 528.066Z" fill="#EEEEEE" fill-opacity="0.15"/>
<path d="M1731.38 940C1731.36 934.389 1730.72 929.23 1730.24 923.677C1729.11 910.444 1722.93 895.667 1719.18 882.873L1695.09 799.985C1690.34 783.351 1687.89 766.526 1684.14 749.699C1682.15 740.745 1679.93 732.05 1675.79 723.826C1665.42 703.267 1647.96 687.156 1630.49 672.593C1614.51 659.261 1592.25 640.838 1572.81 633.835C1545.74 624.088 1512.72 633.582 1486.84 619.901C1464.91 608.31 1463.36 579.723 1439.36 570.158C1432.81 567.546 1425.46 566.761 1418.44 566.732C1401.76 566.663 1357.08 575.957 1355.07 549.946C1353.78 533.26 1367.63 513.877 1351.88 499.853C1327.3 477.964 1289.31 480.95 1260.88 466.543C1239.85 455.89 1222.51 437.165 1205.62 421.081C1199.73 415.469 1185.6 404.873 1184.37 396.846C1184.04 394.659 1184.86 392.901 1186.3 391.333C1190.63 386.648 1201.05 385.987 1207.14 385.956C1236.54 385.807 1260.14 397.524 1284.23 373.384C1293.89 363.706 1301.56 350.918 1301.5 336.909C1301.45 324.586 1297.9 300.785 1307.08 291.469C1308.79 289.737 1310.82 288.772 1313.29 288.85C1318.04 288.999 1322.5 293.547 1325.36 296.903C1330.19 302.573 1333.75 309.183 1338.31 315.044C1350.89 331.225 1369.34 343.183 1390.04 344.915C1417.54 347.214 1442.03 335.188 1470.24 337.728C1485.86 339.134 1500.87 344.034 1515.71 348.821C1561.91 363.718 1589.68 374.511 1639.43 367.59C1648.7 366.3 1661.53 364.871 1668.99 358.718C1671.19 356.912 1672.08 354.409 1672.27 351.661C1673.38 336.283 1650.55 307.404 1641.99 293.66C1629.86 274.18 1595.02 216.972 1590.48 197.659C1589.32 192.742 1588.86 186.467 1592.78 182.603C1593.59 181.802 1594.55 181.277 1595.58 180.806L1596.69 181.412C1593.85 185.588 1590.11 190.304 1591.23 195.678C1594 209.101 1634.84 279.03 1644.33 293.716C1654.11 308.842 1667.17 324.865 1673.11 341.943C1674.74 346.623 1675.34 352.153 1672.73 356.615C1669.39 362.363 1662.02 364.714 1655.93 366.222C1600.81 379.883 1565.86 367.106 1514.47 350.424C1497.92 345.052 1481.52 339.869 1463.97 339.347C1430.58 338.352 1393.11 357.931 1361.88 338.471C1355.28 334.359 1346.06 327.76 1340.82 322.044C1334.02 314.623 1322.06 288.646 1310.1 291.207C1308.71 291.504 1307.51 292.791 1306.78 293.945C1297.17 309.055 1310.77 340.011 1294.52 364.428C1288.42 373.588 1279.66 377.145 1273.03 384.897C1269.13 389.458 1257.3 390.048 1251.54 390.452C1236.82 391.486 1197.94 382.063 1188.23 393.252C1186.85 394.856 1186.93 395.181 1186.88 397.2C1192.09 409.095 1236.89 448.018 1248.25 456.197C1255.73 461.583 1264.43 466.688 1273.05 470.019C1297.08 479.303 1347.16 480.129 1358.75 506.715C1366.51 524.544 1347.22 555.141 1366.99 563.121C1387.54 571.419 1415.64 560.296 1438.69 567.881C1465.74 576.786 1464.48 605.443 1486.14 617.284C1508.93 629.745 1539.71 624.3 1564.62 629.717C1599.21 637.24 1664.69 693.632 1678.85 725.531C1688.1 746.409 1689.07 770.562 1694.98 792.492C1702.78 821.449 1711.57 850.219 1719.97 879.011C1723.26 890.245 1727.13 901.43 1729.88 912.797C1732 921.554 1733.58 930.97 1733.62 940H1731.38Z" fill="#EEEEEE" fill-opacity="0.15"/>
<path d="M1745.4 341.357C1732.5 320.234 1709.72 320.657 1691.73 306.861C1675.4 294.348 1635.81 239.545 1640.77 219.005C1641.73 214.99 1644.26 210.886 1647.83 208.692C1658.88 201.909 1696.33 205.139 1710.42 205.213C1736.6 205.351 1765.15 202.884 1790.43 196.031C1798.61 193.812 1806.05 189.77 1814.26 187.64C1786.55 205.897 1724.93 207.978 1692.04 207.901C1679.42 207.872 1662.24 205.761 1650.23 209.573C1646.13 210.874 1643.17 215.624 1642.31 219.637C1638.86 235.768 1660.5 265.223 1669.17 278.076C1676.27 288.591 1685.03 299.907 1695.67 307.059C1715.4 320.312 1753.16 322.935 1747.1 355.438C1743.87 372.691 1731.06 382.862 1717.34 392.108C1699.64 404.043 1659.68 408.047 1638.3 414.458C1622.25 419.269 1607.46 427.358 1590.93 430.709C1582.59 432.402 1574.07 432.905 1565.69 431.172C1556.23 429.215 1548.63 424.257 1543.35 416.106C1539.25 409.786 1536.13 402.864 1531.92 396.603C1521.61 381.29 1503.74 372.709 1486.12 368.851C1454.42 361.908 1435.21 380.573 1407.62 391.002C1396.57 395.179 1384.32 395.733 1374.15 402.184C1366.9 406.785 1362.32 413.185 1360.47 421.586C1358.62 430.046 1360.36 436.637 1365.06 443.867C1375.48 459.918 1391.68 471.733 1402.53 487.597C1408.77 496.722 1408.13 510.64 1415.64 519.092C1421.62 525.832 1429.37 529.461 1438.1 531.239C1458.13 535.323 1477.82 536.241 1490.43 554.973C1499.15 567.931 1503.37 585.792 1521.05 589.117C1528.87 590.588 1537.16 589.066 1544.77 587.128C1582.39 577.56 1591.83 572.596 1629.1 590.118C1644.43 597.324 1658.06 606.11 1667.93 620.164C1673.33 627.854 1677.58 636.317 1682.79 644.129C1698.46 667.559 1718.71 676.411 1745.65 681.225C1754.2 682.754 1762.13 684.023 1770.33 687.131C1773.65 690.691 1775.83 694.063 1777.58 698.617C1782.67 711.83 1782.91 726.372 1788.2 739.765C1793.63 753.524 1808.16 775.138 1807.82 789.437C1807.64 796.905 1803.58 803.164 1798.22 808.08C1782.24 822.734 1759.41 832.527 1757.85 857.377C1756.34 881.55 1770.37 901.984 1774.28 925.103C1775.11 930.01 1774.87 935.043 1774.87 940H1773.74C1773.26 931.359 1772.39 923.46 1770 915.126C1761.94 887.069 1744.12 857.456 1767.36 831.323C1778.4 818.904 1807.03 806.109 1805.83 787.74C1804.84 772.541 1792.08 755.951 1786.69 741.687C1781.77 728.678 1779.79 698.442 1769.86 690.147C1761.21 682.911 1724.54 681.574 1706.77 670.7C1666.22 645.886 1680.64 612.755 1618.62 587.492C1606.56 582.578 1592.28 578.561 1579.13 580.159C1558.45 582.673 1528.12 600.55 1509.02 586.046C1495.8 576.001 1493.4 557.956 1480.59 547.252C1462.78 532.373 1439.86 538.642 1422.67 528.046C1408.86 519.534 1408.95 504.916 1402.24 491.95C1391.76 471.701 1360.6 453.702 1357.9 431.139C1356.86 422.437 1360.52 413.06 1366.01 406.415C1369 402.785 1372.84 400.217 1377.09 398.263C1386.33 394.021 1396.7 393.556 1406.06 389.934C1426.32 382.096 1444 367.535 1466.32 365.607C1484.4 364.046 1509.09 371.443 1522.9 383.111C1547.55 403.927 1539.37 433.122 1583.51 429.61C1603.84 427.993 1620.93 417.985 1640.06 412.197C1672.45 402.401 1711.69 402.926 1735.34 374.874C1744.13 364.438 1745.96 354.543 1745.4 341.357Z" fill="#EEEEEE" fill-opacity="0.15"/>
<path d="M1869.13 0H1870.68C1861.37 18.2679 1843.08 21.6109 1844.4 48.5694C1859.27 75.3365 1892.89 72.4123 1907.03 103.254C1912.34 114.946 1912.77 128.269 1908.24 140.282C1903.06 153.911 1889.38 168.865 1879.18 178.528C1853.23 203.79 1825.52 217.935 1790.12 224.897C1774.75 227.921 1739.46 236.186 1734.08 253.477C1729.43 268.414 1762.97 286.624 1773.1 296.434C1781.93 305.14 1789.31 315.213 1794.95 326.265C1803.86 344.056 1809.86 390.547 1788.43 403.268C1776.53 410.336 1751.69 417.8 1737.53 422.951C1703.15 435.464 1669.44 449.215 1635.33 462.398C1612.15 471.241 1591.06 476.147 1568.22 486.494C1554.82 492.572 1538.91 507.851 1556.99 520.565C1570.88 529.824 1593.04 529.21 1607.14 534.647C1635.93 545.751 1666.36 552.806 1695.06 562.355C1727.91 573.29 1735.72 604.069 1777.36 597.66C1810.84 592.506 1850.54 562.683 1870.44 604.88C1886.06 635.673 1873.35 653.853 1862.71 683.162C1851.97 713.012 1872.47 729.927 1884.84 752.499C1900.27 780.627 1881.13 828.89 1853.77 842.554C1856.4 838.451 1869.41 828.351 1873.26 822.816C1880.97 811.705 1883.07 805.305 1886.31 793.432C1898.33 749.273 1859.31 738.386 1857.95 700.274C1857.09 676.704 1879.65 653.19 1875.27 626.666C1874.7 617.103 1864.97 594.859 1856.39 589.988C1823.08 571.071 1785.07 612.294 1748.28 597.613C1728.97 591.119 1714.76 570.604 1695.39 564.564C1666.09 555.428 1637.15 548.034 1608.37 536.772C1592.91 530.722 1570.32 532.593 1556 522.363C1551.33 519.026 1548.4 514.092 1547.66 508.649C1545.24 499.695 1555.63 490.319 1563.11 486.72C1584.68 476.352 1612.73 469.387 1635.13 460.965C1658.51 452.175 1680.52 442.424 1703.97 433.656C1729.08 424.263 1754.25 415.555 1779.09 405.714C1783.67 403.9 1789.1 401.29 1792.06 397.273C1801.57 384.723 1802.57 366.481 1800.59 351.629C1796.34 319.762 1772.6 295.472 1746.79 278.657C1742.17 275.643 1731.16 263.703 1731.61 258.625C1734.08 230.889 1777.82 227.795 1798.43 221.031C1808.47 217.923 1821.86 215.552 1831.05 210.532C1860.83 194.265 1911.7 157.38 1909.29 119.428C1907.2 86.5011 1873.05 78.0551 1851.57 61.5721C1846.58 57.7329 1842.23 51.0055 1841.91 44.5823C1840.95 28.7147 1858.93 11.7903 1869.13 0Z" fill="#EEEEEE" fill-opacity="0.15"/>
<path d="M1634.22 0H1638.73C1631.73 3.63361 1620.87 7.71622 1618.32 15.8435C1617.33 19.0145 1617.91 22.0324 1619.46 24.9221C1628.1 41.0565 1700.18 74.9267 1719.45 82.7577C1741.13 91.5708 1779.31 100.036 1794.73 117.558C1800.2 123.767 1801.13 133.634 1798.88 141.308C1797.37 146.498 1794.29 151.84 1789.36 154.439C1784.92 156.786 1775.73 159.171 1770.8 159.519C1754.6 160.661 1737.81 157.805 1721.57 157.472C1696.34 156.956 1670.92 158.584 1645.72 157.269C1622.38 156.049 1589.85 149.341 1567.82 156.551C1563.36 158.01 1556.43 166.072 1554.85 170.398C1552.25 177.611 1554.96 187.89 1558.21 194.497C1573.12 224.764 1605.4 264.338 1615.58 294.393C1618.61 303.315 1620.14 314.281 1617.15 323.337C1615.68 327.797 1612.58 332.252 1608.29 334.409C1607.34 334.885 1606.37 335.176 1605.32 335.311C1608.03 330.198 1614.38 327.798 1616.03 321.634C1627.25 279.72 1543.86 207.166 1553.01 169.133C1559.81 140.83 1633.83 154.92 1653.97 155.939C1672.49 156.874 1690.7 154.338 1709.16 154.318C1730.38 154.296 1769.46 164.1 1787.68 152.736C1792.84 149.522 1796.34 144.663 1797.71 138.732C1799.89 129.249 1797 122.745 1789.94 116.491C1769.27 98.1724 1733.08 91.0661 1707.35 79.7474C1686.48 70.57 1666.77 59.8931 1647.01 48.5521C1637.18 42.91 1624.6 37.2766 1618.47 27.3389C1616.21 23.6788 1615.17 19.4953 1616.25 15.2638C1618.28 7.2347 1627.81 3.86019 1634.22 0Z" fill="#EEEEEE" fill-opacity="0.15"/>
<path d="M1756.33 0H1760.7C1744.23 10.8495 1696.66 12.026 1684.91 30.8119C1683.01 43.0241 1718.16 58.3601 1727.1 62.8379C1759.54 79.0809 1846.92 95.8566 1827.39 147.407C1824.77 154.346 1803.51 172.601 1796.51 175.566C1764.96 188.94 1729.66 184.859 1696.46 182.102C1691.73 181.712 1665.15 180.556 1663.38 177.163C1671.41 176.266 1680.51 178.812 1688.57 179.608C1725.37 183.241 1778.92 189.844 1809.23 164.808C1818.37 157.271 1827.65 146.303 1828.69 134.083C1832.7 87.0291 1712.78 72.4538 1686.98 40.9556C1684.35 37.7381 1682.38 34.2431 1682.84 29.9901C1689.49 13.2436 1742.28 9.19181 1756.33 0Z" fill="#EEEEEE" fill-opacity="0.15"/>
<path d="M1747.72 456.913C1757.01 441.361 1858.87 449.97 1860.23 394.2C1861.2 355.013 1843.73 318.714 1850.93 281.864C1852.12 275.844 1887.08 249.169 1892.4 242.793C1901.21 232.991 1911.11 218.795 1920 209.287V212.098C1910.61 223.207 1901.78 235.77 1892.18 246.125C1875.11 264.527 1846.65 273.045 1850.7 303.232C1852.98 320.153 1855.28 337.392 1858.52 354.247C1862.59 376.947 1867.87 400.84 1851.12 420.147C1828.91 445.748 1790.58 442.406 1761 452.805C1759.2 453.439 1748.84 456.986 1747.72 456.913Z" fill="#EEEEEE" fill-opacity="0.15"/>
<path d="M1857.27 528.066C1848.62 535.019 1826.61 541.802 1815.28 545.197C1797.6 550.495 1779.89 549.4 1763.62 540.525C1755.3 535.988 1707.01 499.222 1705.44 492.338C1704.68 488.931 1706.68 485.088 1708.64 482.434C1715.16 473.574 1736.96 458.569 1747.73 456.913C1743.81 460.182 1739.16 462.508 1734.75 465.058C1722.51 472.143 1714.39 478.426 1705.64 489.583C1712.41 500.167 1750.24 530.064 1761.95 537.068C1767.91 540.637 1774.35 543.511 1781.17 544.997C1801.27 549.377 1821.26 542.346 1839.62 534.756C1845.23 532.436 1851.29 529.171 1857.27 528.066Z" fill="#EEEEEE" fill-opacity="0.15"/>
<path d="M1820.96 940C1825.71 895.708 1802 882.545 1845.54 846.823C1846.58 845.97 1847.61 845.546 1848.92 845.26L1849.58 846.231C1845.2 851.536 1836.1 857.217 1830.35 864.473C1826.92 868.78 1823.29 874.485 1822.04 879.843C1818.73 894.108 1824.14 923.084 1823.55 940H1820.96Z" fill="#EEEEEE" fill-opacity="0.15"/>
<path d="M1871.77 940C1874.1 922.616 1872.1 904.52 1875.21 887.395C1876.75 878.812 1884.22 867.733 1888.6 860.092L1890.56 859.472C1890.58 864.619 1880.09 877.518 1878.09 884.944C1873.56 901.856 1874.48 922.483 1874.09 940H1871.77Z" fill="#EEEEEE" fill-opacity="0.15"/>
<path d="M1916.93 0H1918.44C1910.3 17.1821 1904.43 31.6289 1920 47.3058V50.0602C1904.19 33.6775 1905.11 18.5934 1916.93 0Z" fill="#EEEEEE" fill-opacity="0.15"/>
<path d="M1920 829.412C1914.97 834.397 1898.01 853.224 1894.28 855.789L1893.57 855.18C1894.99 850.065 1914.84 831.629 1920 826.639V829.412Z" fill="#EEEEEE" fill-opacity="0.15"/>
<path d="M1809.69 4.26855L1810.73 4.62552C1810.68 5.14802 1810.82 5.73951 1810.56 6.19303C1807.95 10.6359 1770.96 23.9469 1763.19 30.6025C1759.65 33.6383 1753.25 37.3456 1752.68 42.3203C1752.12 47.1992 1756.02 50.6037 1759.68 53.0422C1766.02 57.2815 1774.02 59.7469 1781.06 62.7113C1806.36 73.3618 1839.64 84.6547 1856.54 107.545C1861.95 114.861 1864.31 123.122 1862.76 132.153C1858.95 154.292 1837.88 172.598 1820.66 184.906L1819.37 184.631C1819.36 184.217 1819.17 183.772 1819.33 183.388C1819.72 182.471 1825.99 178.372 1827.18 177.437C1834.67 171.531 1842.52 164.752 1848.66 157.424C1851.87 153.591 1860.05 137.203 1860.75 132.564C1866.34 95.7283 1805.68 75.3333 1779.44 64.3471C1770.98 60.8096 1758.26 57.2096 1752.8 49.6189C1751.14 47.3159 1750.27 44.4852 1750.86 41.6545C1753.97 26.5878 1796.84 12.9413 1809.69 4.26855Z" fill="#EEEEEE" fill-opacity="0.15"/>
<path d="M804.428 940C813.098 927.148 829.361 917.179 844.308 913.907C849.558 916.185 852.595 918.156 854.723 923.636C856.636 928.563 856.697 934.765 857.182 940H854.108C854.084 937.108 854.003 934.217 853.867 931.328C853.627 926.891 852.383 922.342 848.881 919.343C846.449 917.26 843.233 916.632 840.111 916.95C828.817 918.099 813.434 931.569 806.678 940H804.428Z" fill="#EEEEEE" fill-opacity="0.15"/>
<path d="M777.77 940C780.345 932.301 784.236 924.987 787.64 917.626C793.594 904.749 799.401 886.274 813.032 879.644C834.259 869.318 865.021 875.027 886.17 882.622C892.971 885.064 900.603 888.837 903.83 895.692C906.049 900.401 905.353 904.725 903.559 909.443C899.573 919.924 892.674 930.878 886.174 940H884.805C889.275 929.636 896.927 920.777 901.19 910.347C902.952 906.035 904.082 901.044 902.102 896.604C899.321 890.368 892.115 886.984 886.055 884.759C866.472 877.57 834.257 871.338 814.459 880.809C800.837 887.325 784.417 926.251 779.518 940H777.77Z" fill="#EEEEEE" fill-opacity="0.15"/>
<path d="M1215.83 940C1226.36 933.76 1264.87 925.717 1267.43 913.53C1268.18 909.961 1266.36 906.273 1264.27 903.5C1251.12 886.088 1227.24 879.616 1215.24 860.9C1205.26 845.33 1201.2 826.339 1194.38 809.314C1188.63 794.945 1180.3 781.166 1172.88 767.585C1154.05 733.149 1142.17 709.658 1104.13 694.173C1094.79 690.371 1085.08 686.854 1075.03 685.587C1066.47 684.508 1060.88 684.826 1053.97 690.232C1038.9 702.022 1031.05 720.645 1020.17 735.945C997.669 767.553 957.609 793.723 917.506 788.902C896.323 786.356 876.417 775.131 856.423 768.249C838.782 762.178 821.894 759.734 803.45 758.423C782.899 756.963 763.409 755.526 745.97 768.899C743.902 770.486 742.029 773.229 739.353 773.511C739.657 771.012 740.409 769.758 742.417 768.156C763.045 751.697 795.257 754.273 819.633 757.628C886.275 766.798 921.979 815.03 987.994 765.251C998.85 757.059 1009.13 747.513 1017.23 736.533C1033.24 714.816 1044.25 679.264 1077.53 683.793C1084.87 684.791 1091.7 687.284 1098.62 689.811C1121.9 698.314 1138.73 709.775 1153.73 729.769C1159.17 737.025 1163.35 745.941 1167.81 753.886C1176.96 770.215 1186.47 786.49 1194.11 803.593C1205.74 829.645 1209.08 859.239 1234.16 876.755C1243.88 883.544 1272.19 899.298 1269.82 913.8C1269.2 917.542 1266.22 920.394 1263.16 922.348C1250.33 930.537 1233.3 931.923 1220.67 940H1215.83Z" fill="#EEEEEE" fill-opacity="0.15"/>
<path d="M1024.86 940C1037.12 932.58 1058.07 933.577 1071.65 936.976C1074.25 937.629 1076.94 938.547 1079.22 940H1024.86Z" fill="#EEEEEE" fill-opacity="0.15"/>
<path d="M739.644 940C743.108 925.153 746.992 910.049 748.072 894.802C749.913 868.789 739.197 836.211 765.479 819.783C789.629 804.688 821.872 806.282 848.431 812.547C877.316 819.36 905.633 830.617 935.855 826.621C960.835 823.317 987.656 810.337 1010.46 800.061C1043.86 785.013 1102.53 749.897 1129.08 793.115C1140.55 811.794 1151.29 869.843 1146.03 891.096C1144.81 896.034 1142 898.889 1138.38 902.248C1108.07 905.748 1080.19 889.074 1049.91 889.407C1037.46 889.543 1025.08 893.075 1013.72 897.988C1009.83 899.668 1005.49 902.751 1001.29 903.254C1001.57 902.217 1001.34 902.244 1002.36 901.659C1062.38 867.031 1107.68 910.029 1136.12 900.131C1139.17 899.071 1141.85 895.984 1144.13 893.743C1148.21 865.497 1141.87 813.925 1124.68 790.747C1118.33 782.171 1109.4 776.052 1098.71 774.497C1069.41 770.238 1035.52 790.441 1009.58 802.013C987.141 812.024 963.028 823.369 938.794 828.13C894.121 836.903 848.559 804.971 798.024 811.028C785.003 812.588 772.827 816.51 762.329 824.539C755.548 829.726 751.236 836.562 750.042 845.14C748.593 855.555 750.796 865.899 751.055 876.314C751.559 896.638 747.387 920.696 741.13 940H739.644Z" fill="#EEEEEE" fill-opacity="0.15"/>
<path d="M758.117 940C761.448 929.835 764.9 919.64 767.518 909.265C772.681 888.816 774.046 865.199 788.715 848.861C790.197 847.21 792.514 844.36 794.596 843.502C794.953 843.355 795.27 843.336 795.643 843.257C802.028 841.901 807.295 839.136 814.109 838.44C848.295 834.945 884.931 852.44 923.021 850.413C941.813 849.413 959.878 844.935 977.709 839.115C1009.18 828.844 1072.47 796.269 1102.81 815.11C1113.38 821.675 1118.97 831.866 1121.63 843.677C1123.34 851.297 1123.03 860.163 1118.65 866.897C1115.01 872.52 1108.85 876.4 1102.32 877.737C1083.67 881.564 1063.57 872.116 1044.59 872.106C1035.93 872.103 1027.88 874.169 1019.83 877.187C997.341 885.612 927.984 923.91 911.808 940H909.806C911.152 938.229 912.626 936.667 914.292 935.193C932.237 919.316 954.581 908.665 975.525 897.357C988.978 890.09 1002.41 882.197 1016.67 876.606C1025.21 873.258 1034.99 870.256 1044.21 869.767C1059.99 868.929 1075.97 875.676 1091.83 876.499C1099.79 876.912 1107.43 875.505 1113.42 869.919C1118.27 865.396 1120.33 858.932 1120.5 852.443C1120.76 841.871 1116.22 830.512 1108.92 822.872C1104.12 817.853 1092.58 811.064 1085.5 810.897C1033.05 809.661 976.313 851.352 915.978 853.113C880.683 854.143 828.654 829.644 796.758 844.877C777.363 854.14 774.401 889.138 769.731 907.687C766.985 918.594 763.499 929.355 759.881 940H758.117Z" fill="#EEEEEE" fill-opacity="0.15"/>
<path d="M1039.69 649.492C1043.77 649.286 1048.21 648.863 1052.21 649.725C1064.17 652.289 1075.71 658.012 1086.99 662.559C1105.4 669.973 1127.72 675.828 1142.66 689.427C1175.51 719.32 1194.82 768.364 1226.92 801.333C1245.42 820.345 1269.49 821.081 1289.3 836.019C1298.48 842.944 1305.64 852.263 1312.45 861.413C1328.14 882.451 1339.82 899.54 1362.49 913.677C1372.05 919.635 1390.6 928.355 1393.62 940H1392C1383.62 924.635 1354.37 913.141 1340.62 900.128C1321.06 881.633 1309.66 853.774 1288.08 837.785C1268.62 823.355 1243.75 821.56 1225.98 803.747C1205.74 783.466 1190.25 757.013 1174.47 733.232C1164.34 717.949 1153.91 701.537 1139.54 689.876C1124.03 677.295 1105.62 672.494 1087.6 665.075C1078.21 661.208 1068.89 656.403 1059.14 653.562C1053.94 652.046 1044.54 649.255 1039.66 652.281C1022.52 662.899 1017.51 716.04 996.938 731.046L996.516 730.168C1000.16 722.721 1006.03 716.691 1009.83 709.219C1016.91 695.324 1025.76 660.073 1036.8 651.922C1037.81 651.178 1038.73 650.31 1039.69 649.492Z" fill="#EEEEEE" fill-opacity="0.15"/>
<path d="M966.534 940C988.809 921.383 1028.71 900.895 1058.28 903.465C1096.3 906.767 1157.43 944.864 1191.7 916.798C1194.62 914.41 1196.88 911.852 1197.24 907.974C1198.36 896.259 1178.03 877.59 1173.15 865.009C1167.72 851.03 1167.51 835.585 1165.15 820.938C1161.53 798.361 1147.12 761.17 1132.15 744.023C1122.99 733.517 1110.7 725.517 1096.47 724.6C1090.86 724.239 1084.07 724.645 1078.75 726.48C1061.37 732.475 1039.29 753.751 1024.66 765.521C1019.8 769.432 1014.78 774.342 1009.1 776.921C1005.55 778.528 1002.5 782.686 998.841 783.462L998.353 782.416C1008.71 774.725 1019.05 767.384 1029.13 759.288C1049.14 743.206 1072.09 718.78 1100.24 722.861C1115.93 725.137 1128.97 735.501 1138.1 748.013C1151.08 765.819 1163.92 799.494 1167.1 821.407C1168.94 834.051 1169.2 850.385 1174.11 862.183C1179.55 875.304 1201.25 896.553 1199.12 909.699C1198.43 914.006 1194.33 917.851 1190.93 920.241C1177.11 929.945 1155.32 929.882 1139.4 926.856C1122.68 923.678 1106.57 917.688 1090.38 912.536C1040.33 896.613 1013.91 909.794 971.963 938.21L969.338 940H966.534Z" fill="#EEEEEE" fill-opacity="0.15"/>
<path d="M675.866 940C688.16 920.413 691.057 899.295 685.836 876.68C679.775 850.425 650.669 811.648 666.769 785.252C675.749 770.527 698.871 766.983 712.372 756.797C725.783 746.678 732.545 726.693 750.341 722.85C769.276 718.76 848.362 733.634 867.967 740.26C891.159 748.099 913.783 761.951 938.841 762.788L939.112 763.656C917.892 767.418 885.277 747.526 864.881 741.183C844.414 734.818 762.922 718.932 745.779 726.29C731.786 732.296 725.59 750.054 713.348 758.603C699.799 768.063 678.281 772.176 668.446 786.07C662.959 793.822 663.379 803.739 665.035 812.664C671.573 847.89 694.036 868.106 689.572 908.293C688.361 919.194 685.307 929.409 679.067 938.519C678.716 939.035 678.352 939.522 677.955 940H675.866Z" fill="#EEEEEE" fill-opacity="0.15"/>
<path d="M719.643 940C722.169 925.058 727.053 910.316 726.413 894.995C725.061 862.617 702.269 829.888 736.4 805.737C762.386 787.348 795.873 778.789 827.313 784.282C872.094 792.105 904.193 817.453 952.697 804.797C959.531 803.011 968.391 800.799 974.203 796.673C975.413 795.812 976.491 794.8 977.522 793.732L979.791 793.303C979.659 795.249 979.434 795.71 977.916 797.019C974.925 799.597 969.984 800.862 966.3 802.143C949.341 808.036 932.439 812.054 914.358 810.26C862.913 805.155 830.499 771.984 774.147 789.382C760.271 793.666 746.356 800.244 734.964 809.336C726.923 815.756 720.849 823.848 719.649 834.302C718.518 844.162 720.685 854.503 722.729 864.107C727.275 885.464 729.998 903.379 724.933 925.016C723.859 929.607 722.943 935.875 720.879 940H719.643Z" fill="#EEEEEE" fill-opacity="0.15"/>
<path d="M699.129 940C704.843 921.413 707.917 903.958 705.417 884.445C702.122 858.713 672.708 808.543 702.534 792.776C709.204 789.25 731.439 776.267 736.169 775.282C734.501 778.131 730.792 779.291 728.064 780.938C703.151 795.984 683.883 798.103 693.177 833.478C705.841 881.675 715.744 888.384 700.8 940H699.129Z" fill="#EEEEEE" fill-opacity="0.15"/>
<path d="M995.306 940C1014.97 925.912 1041.67 915.884 1065.97 919.921C1077.48 921.834 1115.69 933.409 1124.49 940H1120.24C1112.76 935.327 1081.95 925.075 1072.35 923.06C1045.51 917.43 1020.93 925.26 998.362 940H995.306Z" fill="#EEEEEE" fill-opacity="0.15"/>
<path d="M937.509 940C941.522 935.724 995.494 903.527 999.562 903.654C999.759 903.66 999.956 903.724 1000.14 903.759C999.694 905.465 998.259 906.388 996.712 907.22C977.344 917.581 958.19 928.331 939.525 940H937.509Z" fill="#EEEEEE" fill-opacity="0.15"/>
<path d="M994.716 784.231C995.288 784.304 995.85 784.687 996.366 784.944C994.594 788.114 986.653 792.003 983.447 794.19L981.816 793.525C983.044 790.545 991.809 786.167 994.716 784.231Z" fill="#EEEEEE" fill-opacity="0.15"/>
<path d="M1165.28 126.552C1168.41 125.747 1174.02 125.517 1177.26 125.927C1179.53 126.215 1181.73 127.397 1183.06 129.225L1183.06 129.226C1185.54 132.647 1185.55 137.367 1185 141.667H1185C1184.13 148.656 1182.02 157.083 1178.98 165.132C1176.03 172.935 1172.22 180.333 1167.84 185.712L1167.41 186.226C1161.78 192.919 1154.53 198.307 1147.52 203.675C1137.21 203.899 1128.75 202.843 1119.2 198.899C1117.51 198.143 1115.91 197.126 1114.32 196.047L1112.72 194.949L1111.98 194.43C1108.26 191.8 1104.24 188.568 1100.92 184.868C1097.37 180.916 1094.66 176.483 1093.89 171.726C1092.97 166.092 1094.84 160.733 1098.29 156.171L1098.29 156.17C1104.84 147.508 1116.34 140.88 1128.88 136.02C1141.4 131.169 1154.85 128.123 1165.2 126.568L1165.24 126.562L1165.28 126.552Z" stroke="#EEEEEE" stroke-opacity="0.15" stroke-width="1.6"/>
<path d="M1090.11 103.391C1091.48 102.902 1091.53 102.687 1092.83 103.291C1089 106.367 1082.88 107.673 1078.18 109.175C1060.85 114.718 1020.14 122.406 1009.83 138.29C1008.08 140.984 1007.34 143.492 1008.06 146.693C1009.22 151.958 1012.29 156.558 1015.72 160.64C1030.9 178.793 1080.68 218.019 1101.42 230.965C1114.71 239.26 1139.23 248.316 1154.88 244.375C1179.68 238.131 1191.68 214.564 1203.85 194.685C1204.32 197.087 1203.8 198.049 1202.82 200.285C1195.34 217.431 1179.47 237.151 1161.52 244.048C1146.3 249.899 1126.18 245.738 1111.73 239.123C1091.96 230.07 1013.93 170.312 1007.33 151.746C1005.78 147.364 1005.48 142.07 1007.63 137.825C1015.43 122.391 1072.22 109.585 1090.11 103.391Z" fill="#EEEEEE" fill-opacity="0.15"/>
<path d="M1176.41 42.2169C1183.81 41.8532 1190.38 42.824 1197.47 44.9553C1221.12 52.0646 1262.73 73.155 1274.38 95.3804C1276.69 99.7777 1277.9 104.913 1276.35 109.766C1271.66 124.484 1253.63 130.367 1242.43 139.741C1234.88 146.074 1228.4 154.118 1223.07 162.382C1219.8 167.449 1211.51 186.347 1207.57 188.372C1207.57 188.186 1207.56 188 1207.57 187.815C1208.07 183.395 1212.27 177.117 1214.42 173.102C1222.75 157.475 1232.55 144.091 1247.28 133.978C1253.5 129.697 1260.39 125.752 1265.92 120.597C1266.99 120.16 1268.06 119.557 1268.85 118.696C1272.04 115.193 1275.4 110.526 1275.3 105.638C1275.11 96.6203 1266.89 87.9553 1260.55 82.1913C1242.45 65.7319 1201.74 42.9728 1176.5 44.3929C1161.26 45.2507 1147.72 67.221 1138.3 77.6507C1134.04 82.3806 1111.49 98.2379 1105.63 98.4872C1104.77 98.5247 1104.94 98.3888 1104.23 98.8499C1104.1 98.9389 1103.99 99.057 1103.86 99.161C1112.51 90.9364 1125.18 86.8733 1134.37 78.568C1144.38 69.5153 1150.77 56.7101 1161.61 48.533C1166.16 45.102 1170.95 43.5238 1176.41 42.2169Z" fill="#EEEEEE" fill-opacity="0.15"/>
<path d="M1127.41 114.078C1128.07 114.029 1128.89 114.292 1129.54 114.411C1119.93 123.207 1080.84 130.499 1064.93 140.677C1060.34 143.605 1053.67 149.126 1052.68 154.837C1051.73 160.42 1055.53 166.422 1058.66 170.709C1074.8 192.785 1109.05 221.353 1136.64 225.453C1152.52 227.813 1161.38 219.313 1173.21 210.536C1170.82 216.862 1163.16 220.917 1157.42 223.981C1147.61 229.224 1136.09 228.182 1125.82 225.003C1103.19 218.003 1064.38 187.674 1053.65 166.623C1051.19 161.814 1049.79 156.344 1051.62 151.084C1057.48 134.259 1110.79 122.087 1127.41 114.078Z" fill="#EEEEEE" fill-opacity="0.15"/>
<path d="M1190.2 82.3891C1194.46 82.2005 1198.88 81.9831 1203.07 82.8534C1211.3 84.564 1219.73 88.0934 1224.34 95.4883C1228.3 101.837 1229.02 109.272 1227.25 116.453C1225.07 125.36 1189.53 191.032 1182.79 201.205C1180.56 204.57 1177.53 208.823 1174.09 210.945L1173.61 210.372C1174.91 205.925 1181.51 199.285 1184.16 194.905C1191.71 182.365 1198.11 168.997 1204.75 155.959C1210.27 140.957 1224.99 128.49 1226.23 111.737C1226.71 105.312 1224.61 99.6991 1220.39 94.8735C1209.81 82.7894 1193.5 81.3021 1179.47 88.1839C1172.71 91.5012 1166.63 96.3768 1160.18 100.273C1154.97 103.417 1148.83 105.953 1143.39 108.809C1140.17 110.501 1135.23 113.826 1131.65 113.557L1132.13 112.472C1152.33 103.647 1169.36 90.0452 1190.2 82.3891Z" fill="#EEEEEE" fill-opacity="0.15"/>
<path d="M1137.54 0H1139.6C1132.94 7.22639 1128.27 11.553 1123.48 20.3689C1112.49 40.6077 1106.37 67.0817 1083.91 78.3626C1074.32 83.1694 1064.24 86.9496 1053.85 89.6404C1028.72 96.0234 973.481 101.441 974.363 138.908C974.953 164.127 1018.7 188.846 1038.33 204.255C1076.06 233.887 1146.63 293.348 1191.47 243.644C1222.45 207.524 1226.32 144.364 1288.63 144.731C1321.55 143.966 1345.23 163.186 1370.3 184.094C1377.94 190.473 1421.68 234.641 1421.4 200.381C1419.72 179.004 1384.56 139.831 1369.48 123.342C1352.08 111.125 1335.13 99.2333 1318.33 86.2763C1305.67 76.5034 1290.09 53.8729 1278.18 47.4827C1249.2 31.9329 1218.09 19.326 1190.84 0H1195.25C1211.82 12.1946 1234.39 22.7873 1252.44 32.6965C1259.96 36.8232 1268.66 38.8304 1276.39 43.5519C1281.13 46.5096 1285.52 49.9892 1289.48 53.9255C1303.16 67.586 1310.24 77.1137 1326.83 90.4795C1340.43 101.432 1363.92 113.984 1375.3 126.092C1390.4 142.15 1421.28 180.216 1424.93 202.998C1425.31 205.409 1423.46 209.582 1421.52 211.162C1406.18 223.624 1380.46 195.635 1369.67 186.629C1362.97 181.033 1357.67 175.578 1350.64 170.834C1329.5 156.569 1318.29 148.291 1293.59 147.124C1226.07 141.798 1225.1 213.103 1187.93 250.181C1164.96 273.113 1129.13 264.886 1102.76 251.926C1080.73 241.1 1061.6 223.945 1041.77 209.467C1022.58 195.457 1002.13 181.58 984.872 165.23C978.056 158.656 971.475 146.145 972.244 136.712C972.563 132.755 974.663 126.891 976.65 123.185C997.397 84.5789 1060.64 98.5941 1091.22 70.9128C1116.4 48.1187 1110.37 24.7471 1137.54 0Z" fill="#EEEEEE" fill-opacity="0.15"/>
<path d="M1102.05 0H1103.76C1092.25 25.9057 1089.98 49.0832 1060.77 62.2197C1025.88 77.9119 970.997 58.5439 953.822 100.543C944.522 123.294 936.485 151.167 958.678 168.715C972.919 180.594 991.425 188.225 1006.15 199.212C1036.63 221.943 1061.5 250.298 1096.87 266.057C1110.63 274.196 1165.72 283.69 1179.91 276.877C1239.1 247.366 1225.54 134.888 1316.17 168.445C1369.18 188.07 1388.88 262.733 1452.95 238.003C1467.42 232.417 1464.78 210.603 1458.78 199.981C1439.16 165.265 1414.6 123.914 1383.04 99.1133C1365.94 87.1023 1350.42 83.685 1333 66.1396C1312.81 45.7863 1312.91 21.5974 1285.57 11.7639C1273.27 7.34745 1256.01 5.218 1245.88 0H1252.22C1257.24 3.5802 1284.26 7.54649 1293.38 12.7589C1315.19 25.2194 1316.24 45.6464 1335.21 65.1779C1352.69 83.1795 1372.5 87.5883 1386.41 98.5416C1411.65 118.414 1450.52 175.11 1462.89 205.555C1465.51 211.996 1467.28 225.049 1463.71 230.971C1460.4 236.436 1456.12 238.972 1450.27 240.819C1387.96 260.5 1371.34 198.317 1323.58 174.323C1308.13 166.564 1289.21 160.756 1271.89 166.01C1249.21 172.887 1238.23 200.642 1228.29 219.271C1217.58 239.358 1202.74 271.765 1179.37 278.545C1152.07 286.469 1110.4 275.887 1085.86 263.24C1056.59 248.156 1034.48 222.941 1008.21 203.653C991.837 191.641 972.572 182.644 956.887 169.854C950.775 164.867 946.397 158.038 943.837 150.506C938.794 135.712 948.159 107.404 954.787 94.1837C971.503 60.8319 1021.29 73.5052 1052.78 63.227C1090.27 50.9949 1087.11 28.0926 1102.05 0Z" fill="#EEEEEE" fill-opacity="0.15"/>
<path d="M1339.34 0H1341.21C1344.19 11.259 1344.68 23.5637 1347.73 34.6376C1356.38 66.0812 1394.12 71.3179 1421.69 72.0267C1434.9 72.3665 1449.6 71.0461 1462.84 72.3937C1466.74 72.7869 1473.9 75.8078 1474.13 80.4348C1474.49 87.9797 1465.23 96.9793 1461.06 102.946C1445.29 125.49 1460.64 150.007 1472.01 170.294C1483.68 191.124 1496.84 212.036 1501.64 235.689C1505.1 253.366 1495.23 259.789 1479 261.842C1464.3 263.707 1449.5 264.599 1434.68 264.512C1374.62 263.686 1373.85 230.372 1331.62 197.548C1319.29 187.962 1299.65 179.205 1284.05 182.271C1248.86 189.186 1239.62 244.312 1220.28 269.919L1219.26 269.933C1220.4 264.879 1245.03 221.125 1248.32 211.236C1253.68 200.158 1265.64 184.642 1277.58 181.831C1332.37 168.922 1358.52 231.079 1395.63 255.116C1413.38 266.613 1471.13 263.505 1492.33 256.975C1494.19 255.185 1496.16 253.403 1497.75 251.372C1511.84 233.381 1463.7 163.555 1455.92 142.98C1441.53 104.914 1473.67 95.223 1471.83 79.9272C1469.91 75.9866 1464.21 74.0109 1460.21 73.8876C1428.36 72.905 1395.37 77.7555 1366.08 61.5799C1341.89 48.2226 1345.21 23.6588 1339.34 0Z" fill="#EEEEEE" fill-opacity="0.15"/>
<path d="M1077.33 0H1078.52C1078.37 1.43347 1078.1 2.86784 1077.76 4.2678C1059.81 79.0707 984.637 34.9383 950.016 56.8811C943.987 60.6953 939.291 66.8162 935.68 72.8949C929.581 83.1705 907.031 138.871 904.364 151.435C912.785 183.958 969.909 197.327 996.122 215.513C1028.99 238.308 1054.34 272.921 1094.01 283.272C1123.32 290.923 1162.28 300.607 1192.32 293.629C1204.05 290.945 1214.63 273.782 1217.86 272.958L1217.47 275.259C1212.01 280.053 1207.18 289.406 1201.79 290.792C1197.75 291.83 1189.25 297.405 1186.46 297.659C1156.74 300.751 1126.57 292.989 1098.26 286.444C1050.59 275.422 1029.68 239.374 991.106 214.778C970.547 201.665 943.913 193.477 923.54 179.472C916.87 174.886 910.031 168.897 905.79 161.904C902.559 156.736 902.665 147.647 904.887 142.175C910.336 128.757 916.511 115.875 921.076 102.079C940.725 42.8733 957.094 48.3129 1012.4 48.5805C1024.79 48.6404 1039.01 47.4464 1050.65 41.4855C1067.16 33.0266 1072.16 16.7576 1077.33 0Z" fill="#EEEEEE" fill-opacity="0.15"/>
<path d="M638.825 895.727C642.485 892.885 647.085 889.181 647.593 884.206C651.382 847.132 607.02 808.635 622.254 756.743C624.184 750.172 626.35 743.024 631.777 738.494C652.692 721.039 681.647 732.224 685.622 693.353C687.439 675.576 678.351 646.017 694.193 633.292C699.642 628.915 706.401 627.844 713.202 628.642C741.845 631.998 759.797 660.933 786.327 669.531C790.111 670.755 794.023 671.536 797.986 671.859C821.898 673.811 840.535 649.629 864.064 658.725C893.079 669.944 906.899 705.163 945.966 705.743C953.025 705.848 959.4 704.919 965.109 700.429C982.341 686.866 985.678 658.009 987.825 637.8C989.184 624.98 990.741 611.972 990.609 599.068C990.441 583.645 980.597 550.225 994.397 539.155C997.462 536.7 1000.81 536.389 1004.59 536.867C1027 539.699 1047.38 569.569 1060.34 585.861C1069.11 596.878 1079.49 608.28 1091.47 615.87C1122.58 635.583 1165.14 635.924 1188.85 667.484C1204.49 688.293 1210.54 707.652 1229.9 727.637C1262.77 761.58 1302.27 768.765 1332.28 797.806C1352.34 817.223 1361.56 845.741 1382.2 863.357C1391.05 870.915 1401.23 876.172 1411.85 880.788C1449.98 897.372 1459.54 902.385 1480.04 940H1477.98C1454.56 903.721 1452.41 900.079 1412.18 882.962C1401.99 878.627 1392.01 874.299 1383.31 867.296C1359.99 848.526 1350.67 817.141 1327.49 796.364C1301.05 772.664 1265.49 762.648 1238.55 739.027C1227.78 729.582 1217.75 718.631 1209.98 706.566C1199.35 690.051 1191.66 670.183 1176.22 657.314C1150.13 635.56 1113.19 634.638 1086.46 615.047C1078.49 609.203 1071.29 602.086 1064.77 594.672C1051.19 579.191 1027.72 543.744 1007.08 539.189C1003.61 538.421 999.469 538.277 996.366 540.303C994.256 541.688 992.447 543.902 990.759 545.764C987.703 562.843 991.753 579.359 992.241 596.476C993.056 624.737 989.597 685.375 965.006 702.514C957.084 708.03 947.962 709.17 938.616 707.447C900.705 700.459 886.473 668.136 862.281 659.986C835.517 650.97 820.679 683.423 782.2 670.13C759.972 662.452 721.533 616.898 697.273 633.634C691.433 637.662 688.432 643.645 687.293 650.518C683.503 673.4 696.236 704.857 673.608 721.455C652.396 737.013 628.445 728.098 622.648 762.833C620.341 776.66 621.745 792.336 625.495 805.791C628.747 817.458 633.618 829.296 638.043 840.591C643.274 853.945 659.265 883.473 643.447 894.923C637.903 898.937 629.243 898.331 622.862 897.208C594.979 892.3 557.281 863.601 529.762 882.553C522.933 887.256 511.913 904.313 505.991 906.273C511.368 895.921 526.68 879.789 537.932 876.214C566.454 867.156 596.354 890.511 623.56 895.281C628.585 896.162 633.748 895.981 638.825 895.727Z" fill="#EEEEEE" fill-opacity="0.15"/>
<path d="M515.595 940C537.573 923.792 548.904 901.27 580.067 905.91C600.296 908.922 625.195 920.863 643.385 921.963C648.547 922.274 653.901 921.421 658.125 918.251C664.716 913.303 667.987 905.206 668.98 897.258C670.5 885.092 667.599 872.155 663.559 860.728C653.682 832.797 620.587 784.274 651.758 759.362C665.013 748.77 682.962 746.799 695.796 734.648C714.366 717.065 710.678 675.706 737.517 679.281C757.554 681.95 775.233 695.402 796.571 699.137C815.128 702.385 834.38 695.361 852.391 700.12C879.875 707.382 915.915 732.508 941.297 735.437C951.862 736.656 961.547 734.544 970.181 728.173C983.953 718.026 992.859 701.463 998.138 685.528C1000.66 677.924 1002.32 670.06 1003.83 662.201C1006.21 649.73 1011.96 599.654 1029.66 602.431C1041.94 604.357 1062.68 625.194 1074.35 632.573C1097.2 647.026 1125.38 651.67 1146.72 668.63C1182.67 697.204 1201.3 741.23 1237.28 769.461C1267.48 793.147 1303.08 791.319 1327.27 826.458C1338.94 843.394 1346.53 863.08 1361.88 877.309C1386.68 900.309 1432.59 909.091 1447.91 940H1445.42C1433.59 912.992 1380.93 899.14 1358.61 877.379C1338.86 858.137 1332.02 829.169 1310.77 811.121C1296.93 799.363 1279.59 793.391 1263.16 786.308C1225.24 769.962 1206.68 741.493 1182.61 710.039C1171.29 695.248 1159.18 680.55 1144.13 669.372C1123.06 653.71 1096.87 649.083 1074.85 635.695C1064.34 629.306 1039.77 605.705 1029.73 604.637C1013.11 602.871 1008.26 649.381 1006.05 660.816C1004.35 669.586 1002.5 678.337 999.694 686.828C994.594 702.217 986.456 717.697 973.472 727.858C966.075 733.644 955.884 738.46 946.35 738.418C928.116 738.337 889.507 717.172 870.92 709.1C866.112 707.013 860.81 704.137 855.76 702.838C836.171 697.798 814.71 704.531 794.612 700.922C774.405 697.293 756.9 683.49 736.959 681.354C712.317 678.714 714.592 719.929 697.928 735.593C684.798 747.934 666.399 749.77 652.925 760.688C623.623 784.428 654.592 831.079 664.257 856.714C668.903 869.036 672.506 882.712 670.917 895.975C669.955 904.003 666.207 915.463 659.414 920.505C645.183 931.07 599.458 910.779 581.537 908.418C547.762 903.968 542.094 922.16 518.872 940H515.595Z" fill="#EEEEEE" fill-opacity="0.15"/>
<path d="M442.412 940C444.733 932.823 449.554 928.509 456.202 925.116C470.397 917.87 487.188 916.98 500.799 908.66L501.463 909.249C494.158 921.085 458.298 916.404 443.687 940H442.412Z" fill="#EEEEEE" fill-opacity="0.15"/>
<path d="M0 659.79C5.98282 653.278 11.5582 647.069 18.391 641.39C27.4866 633.832 37.4738 627.298 46.379 619.522C63.1884 604.844 82.2106 563.891 90.0147 542.571C100.015 515.25 93.5806 464.069 117.392 445.01C122.704 440.83 129.213 438.458 135.969 438.239C144.016 437.954 152.361 440.928 158.237 446.475C162.972 450.945 165.725 456.819 165.772 463.361C165.999 495.512 130.003 508.574 120.333 535.68C114.131 553.061 125.409 572.17 128.655 589.209C135.687 626.122 116.172 666.241 90.3784 691.599C82.8878 698.964 66.1732 709.667 56.9868 715.224L56.2923 714.514C59.5884 708.356 75.4027 701.901 81.3513 696.919C94.9566 685.524 107.339 670.673 115.239 654.77C145.941 592.97 109.077 566.074 117.524 537.713C126.776 506.648 164.962 495.623 163.836 458.862C159.266 450.774 153.577 443.409 144.194 440.728C137.505 438.817 129.466 440.079 123.44 443.458C112.838 449.402 107.294 461.513 104.303 472.81C99.3159 491.645 99.42 511.256 95.6381 530.215C92.0354 548.275 81.7636 565.124 73.8672 581.582C71.647 586.209 70.1332 591.212 67.7206 595.734C64.2674 602.206 58.0413 611.323 52.971 616.561C43.7532 626.083 31.5087 633.527 21.1046 641.736C13.38 647.831 6.62422 655.042 0 662.289V659.79Z" fill="#EEEEEE" fill-opacity="0.15"/>
<path d="M0 630.662C7.45033 626.838 15.8103 617.085 21.7436 611.042C55.149 577.022 64.4019 538.936 74.1215 493.975C77.8553 476.703 81.8509 459.404 88.987 443.161C92.618 434.897 100.829 416.687 109.786 413.215L109.891 414.716C68.9618 459.749 79.4775 527.943 49.457 578.841C36.2896 601.166 18.9897 616.834 0 634.048V630.662Z" fill="#EEEEEE" fill-opacity="0.15"/>
<path d="M0 864.156C8.90598 850.012 15.3665 831.31 16.8054 814.608C17.2569 809.367 16.0024 799.851 18.1379 795.353C22.1944 803.376 15.8679 831.073 12.9567 839.997C9.77663 849.745 5.57765 859.35 0 867.982V864.156Z" fill="#EEEEEE" fill-opacity="0.15"/>
<path d="M109.786 413.215C115.746 404.637 124.956 398.951 135.22 397.019C145.629 395.061 154.917 398.206 163.448 404.135C179.271 415.131 193.01 431.809 196.336 451.156C199.58 470.015 195.876 488.289 184.823 503.895C174.628 518.291 159.908 531.359 154.054 548.328C147.377 567.686 149.169 588.463 147.765 608.521C145.986 633.904 132.452 670.948 116.34 690.673C109.656 698.857 101.503 705.357 92.9298 711.46C88.2342 714.802 69.4182 728.666 65.6218 729.916C68.267 723.936 98.3127 705.283 105.653 698.728C113.104 692.144 119.382 684.343 124.222 675.659C134.136 657.598 143.856 632.903 145.488 612.339C147.126 591.685 144.781 569.55 151.626 549.66C159.762 526.023 181.699 511.188 191.101 488.565C197.091 474.153 197 454.473 191.005 440.08C184.347 424.094 168.906 407.301 152.643 400.874C138.607 395.328 129.935 398.466 118.658 407.141C115.969 409.21 113.425 411.708 110.27 413.028C110.11 413.095 109.947 413.153 109.786 413.215Z" fill="#EEEEEE" fill-opacity="0.15"/>
<path d="M0 893.133C20.7051 877.554 31.2626 839.2 33.6887 814.564C36.1367 789.707 32.0111 767.197 48.0658 745.655C51.4987 741.049 59.8295 730.771 65.6219 729.916C65.5621 730.027 65.5054 730.139 65.4424 730.248C63.9074 732.901 60.9106 735.092 58.7233 737.266C51.8673 744.081 44.2379 752.533 40.9181 761.774C36.2604 774.74 37.8787 788.394 36.8895 801.869C34.7416 831.127 25.3235 877.42 0 895.309V893.133Z" fill="#EEEEEE" fill-opacity="0.15"/>
<path d="M0 599.326C28.0988 568.863 45.0267 536.502 53.9048 495.946C57.3182 480.353 59.7269 464.351 64.9193 449.217C72.9258 425.883 86.5934 404.621 98.0297 382.827C104.402 370.685 111.624 354.224 122.747 345.683C132.242 338.393 166.811 331.275 178.801 330.745C185.14 330.465 190.248 332.17 196.049 334.378C199.717 338.461 203.401 342.306 204.615 347.852C208.15 364 203.776 380.709 206.053 397.006C209.593 422.345 220.826 446.39 219.341 472.402C217.349 507.311 184.312 529.265 171.618 559.776C164.541 576.786 166.057 596.679 163.554 614.606C160.002 640.046 138.265 694.544 118.813 711.766C117.99 712.495 117.425 712.841 116.363 713.129C120.483 705.827 127.143 699.837 131.661 692.68C142.123 676.101 156.581 641.35 160.044 622.218C163.989 600.418 162.485 577.406 171.02 556.577C182.018 529.74 208.999 511.609 215.725 482.79C222.549 453.555 207.954 425.355 204.078 396.84C201.158 375.369 209.316 357.598 197.104 337.822C192.038 334.914 187.232 332.786 181.311 332.524C171.434 332.087 132.523 340.262 123.887 347.123C110.867 357.468 71.4967 434.366 65.6961 452.299C61.2675 465.991 59.4198 480.58 56.2629 494.61C47.3033 534.429 30.4546 573.287 0 601.425V599.326Z" fill="#EEEEEE" fill-opacity="0.15"/>
<path d="M0 911.464C9.51806 907.745 19.4977 901.975 26.3378 894.277C38.5597 880.524 51.5289 839.99 52.9017 821.63C54.4178 801.355 48.4467 779.629 59.644 761.025C62.4518 756.36 66.3139 752.309 70.2779 748.608C75.406 743.82 112.06 714.196 116.363 713.129C116.243 713.321 116.125 713.515 116.003 713.706C105.841 729.635 71.2062 742.313 59.4792 765.254C51.6274 780.614 56.4424 801.966 55.7245 818.567C54.9898 835.555 39.1375 884.236 27.6483 896.559C20.2874 904.454 9.65653 909.049 0 913.408V911.464Z" fill="#EEEEEE" fill-opacity="0.15"/>
<path d="M412.546 940C414.998 926.756 419.794 915.995 431.356 908.092C446.437 897.784 465.541 896.618 480.956 887.343C507.347 871.462 500.901 835.847 545.055 844.366C556.565 846.587 601.123 864.025 608.757 858.907C611.188 857.277 613.118 855.709 613.738 852.682C617.377 834.907 607.018 812.514 603.419 795.135C598.837 773.005 595.805 731.119 617.003 716.188C632.062 705.581 655.563 705.553 659.901 683.334C664.283 660.888 645.147 625.23 668.476 609.074C682.207 599.565 698.999 597.664 715.117 600.784C745.522 606.671 765.878 638.056 792.79 640.985C819.347 643.877 831.227 610.757 863.683 622.028C892.497 632.033 905.372 668.811 936.689 673.492C941.981 674.283 946.706 673.961 951.262 670.97C961.022 664.57 965.822 654.462 967.95 643.331C971.212 626.335 970.819 607.583 968.044 590.544C964.809 570.636 943.191 519.617 963.375 505.755C971.597 500.1 985.669 500.11 995.081 502.036C1027.43 508.659 1051.33 537.142 1073.02 559.931C1081.54 568.893 1090.55 578.463 1101.36 584.692C1112.66 591.212 1126.27 593.339 1138.78 596.461C1164.81 602.959 1201.19 613.048 1216.54 636.642C1233.88 663.303 1234.99 695.112 1259.07 722.013C1279.57 744.909 1310.55 754.032 1334.96 771.659C1361.16 790.58 1375.62 820.159 1399.35 841.476C1410.91 851.855 1423.41 856.651 1437.9 861.709C1475.14 874.7 1480.99 886.947 1499.96 919.644C1504 926.609 1510.02 933.024 1513.63 940H1512.21C1494.16 923.113 1489.3 896.181 1469.97 880.17C1451.71 865.048 1426.45 864.075 1407.73 850.917C1380.72 831.929 1367.31 801.345 1342.72 780.56C1316.78 758.618 1282.04 749.258 1258.31 724.536C1231.78 696.902 1229.14 647.489 1205.5 626.991C1186.88 610.837 1157.18 603.022 1133.63 597.114C1121.38 594.037 1108.06 591.561 1097.17 584.789C1080.43 574.394 1063.69 552.545 1049.33 538.254C1032.43 521.438 1007.46 501.872 982.228 502.219C972.544 502.352 965.644 505.932 959.025 512.669C950.588 535.4 965.484 565.655 969.628 588.276C972.853 605.88 973.509 624.158 970.116 641.798C968.222 651.606 963.544 665.882 954.722 671.476C921.147 692.78 890.526 634.507 863.547 624.017C831.877 611.702 816.023 650.368 785.481 641.488C758.977 633.781 742.454 607.896 714.246 602.557C699.453 599.756 682.197 601.28 669.649 610.216C649.282 624.717 664.808 661.494 661.392 682.236C656.934 709.295 636.336 704.464 618.401 717.687C597.448 733.134 600.831 773.349 605.649 795.817C609.263 812.673 618.788 834.512 615.9 851.632C615.395 854.626 614.362 858.206 611.605 859.877C600.502 866.611 570.294 853.129 557.955 849.534C526.374 840.333 515.947 843.44 498.583 871.723C495.502 876.743 492.402 882.064 487.432 885.449C472.511 895.608 453.998 897.404 438.361 906.034C423.876 914.029 418.314 924.756 413.898 940H412.546Z" fill="#EEEEEE" fill-opacity="0.15"/>
<path d="M0 500.457L0.320741 499.859C2.96377 494.837 4.73155 489.023 6.29511 483.582C10.9649 467.329 14.4128 450.789 20.3067 434.908C27.5498 415.392 40.4484 390.003 44.6718 370.486C48.0375 354.932 44.4936 338.031 45.7151 322.221C46.5155 311.864 49.7828 301.307 53.0661 291.512C61.0931 267.562 72.9519 241.163 98.9006 232.736C113.305 228.104 128.963 229.398 142.412 236.332C157.987 244.482 167.141 260.342 181.121 270.481C186.529 274.402 193.295 277.119 199.304 280.041C219.558 289.893 257.637 305.261 264.74 328.023C271.743 350.467 249.62 373.47 246.262 394.994C240.205 433.821 262.255 475.613 242.378 512.403C231.176 533.138 211.145 548.45 202.325 570.445C195.145 588.35 193.638 608.742 189.637 627.536C185.127 648.727 175.983 669.898 168.337 690.128C165.579 697.427 163.173 706.127 159.517 712.951C143.897 742.103 109.632 752.945 99.6769 777.968C92.7912 795.276 99.6019 814.343 97.4269 832.169C95.7403 845.985 87.6446 858.343 83.8601 871.611C79.2031 887.936 81.1283 907.957 71.9052 922.559C68.1875 928.444 62.965 932.265 56.3187 934.239C49.1615 936.365 39.0053 936.512 32.6026 940H24.1819C30.0026 935.394 43.4922 935.469 50.9145 933.809C62.5807 931.202 68.9164 926.339 73.2176 915.156C78.1055 902.449 77.433 888.093 81.0264 874.97C84.7966 861.203 93.4074 847.618 95.1516 833.514C97.5075 814.464 91.3283 795.863 97.9172 776.998C106.289 753.027 143.196 739.02 157.555 712.377C161.026 705.936 162.978 698.206 165.599 691.339C173.957 669.439 183.328 647.176 188.332 624.212C192.476 605.193 193.774 584.912 201.742 566.93C210.17 547.908 226.51 534.257 237.434 516.824C263.402 475.379 236.549 437.976 243.335 397.824C246.774 377.474 268.305 350.471 263.431 330.55C256.354 301.625 200.569 286.88 178.123 270.816C165.315 261.649 156.78 247.447 143.126 239.381C131.057 232.251 114.839 230.368 101.277 233.981C68.985 242.583 50.0883 293.455 47.6763 323.161C46.3702 339.246 49.8933 355.423 46.3979 371.438C41.4323 394.189 26.7266 420.333 19.2625 443.322C13.3157 461.638 9.91444 489.044 0.324567 504.923C0.219648 505.098 0.108189 505.267 0 505.439V500.457Z" fill="#EEEEEE" fill-opacity="0.15"/>
<path d="M0 559.431C31.4624 521.696 32.3828 479.021 48.8142 435.48C56.5678 414.935 68.9359 395.497 74.3713 374.176C79.951 352.289 76.7939 324.597 88.8343 305.043C95.9213 293.533 107.204 289.048 120.18 287.863C148.028 285.319 205.475 299.072 226.746 316.839C234.018 322.914 237.743 330.644 238.521 340.039C240.23 360.687 229.298 380.052 229.021 400.548C228.632 429.327 240.512 458.696 233.991 487.446C227.115 517.754 199.529 537.333 187.674 565.261C180.9 581.223 181.273 598.729 178.151 615.508C173.747 639.185 151.587 699.545 136.859 716.624C120.991 735.026 92.3917 744.545 81.0373 766.245C71.134 785.173 77.9303 806.363 75.651 826.483C74.2344 838.987 68.4317 850.007 64.8832 861.91C61.1283 874.505 59.0252 888.854 53.518 900.754C51.2436 905.669 48.1702 910.004 43.9179 913.404C32.3094 922.684 14.0484 925.432 0 929.536V927.202C13.7445 924.864 36.0923 919.947 45.8577 909.537C49.1387 906.038 51.2868 900.62 53.0224 896.154C57.0347 885.831 59.2853 874.696 62.5921 864.118C65.8218 853.786 70.6951 843.275 72.5991 832.638C74.3072 823.096 73.7109 813.247 73.4662 803.62C71.9488 743.936 100.712 751.92 133.445 717.196C149.684 699.97 170.838 642.755 175.501 618.063C179 599.532 179.232 579.977 186.774 562.432C198.336 535.534 225.52 516.634 232.07 487.375C238.596 458.222 225.959 429.556 226.906 400.638C227.559 380.679 237.77 361.843 236.925 341.867C236.543 332.852 232.502 325.278 225.85 319.263C204.176 299.663 147.612 287.922 118.586 289.74C108.773 290.355 96.93 295.424 91.64 304.069C79.0577 324.632 82.5962 349.41 76.7683 371.913C70.8892 394.613 58.4553 414.64 50.4074 436.476C34.3722 479.984 32.1819 525.801 0 562.284V559.431Z" fill="#EEEEEE" fill-opacity="0.15"/>
<path d="M483.473 0H481.946C480.025 12.7889 479.764 21.035 472.161 31.8184C471.064 33.7825 467.327 40.4202 459.184 42.0716C434.279 43.5849 430.727 20.7582 422.323 0H420.683C425.148 13.8829 431.794 44.5269 459.184 44.5269C461.869 44.2013 467.754 40.1392 470.857 37.3771C476.395 32.4474 482.516 10.3085 483.473 0Z" fill="#EEEEEE" fill-opacity="0.15"/>
<path d="M80.1368 0H82.2693C57.0785 25.5301 42.5041 52.3977 56.8829 87.6882C60.776 97.2427 60.115 112.856 54.8461 121.665C49.1429 131.199 38.2545 136.126 30.5672 143.961C28.652 145.898 13.0294 151.666 10.0398 152.422C10.5175 151.827 20.1591 146.905 21.5011 146.149C30.1595 141.267 38.1873 136.33 45.4907 129.48C70.6381 105.894 47.5355 84.2673 49.5481 57.2602C51.2637 34.2368 63.6081 14.8601 80.1368 0Z" fill="#EEEEEE" fill-opacity="0.15"/>
<path d="M39.1336 0H40.835C33.0266 16.1941 23.1278 36.2875 20.4508 53.793C16.9555 76.65 33.2894 103.524 11.2892 122.042C8.74341 124.185 3.01367 128.566 0 129.619V127.056C33.3943 111.711 16.2171 81.1945 18.0015 56.6696C19.0905 41.7017 31.3944 13.6836 39.1336 0Z" fill="#EEEEEE" fill-opacity="0.15"/>
<path d="M571.061 820.717C578.82 813.317 581.236 807.096 581.443 796.16C581.978 767.917 567.749 721.406 590.017 699.705C605.748 684.376 633.364 684.232 634.112 656.799C634.73 634.144 621.394 610.821 640.818 591.719C654.806 577.964 679.58 573.047 698.532 573.399C747.59 574.31 756.924 604.941 785.614 608.908C813.943 612.826 829.523 585.344 864.588 596.596C872.72 599.206 880.517 603.043 887.796 607.486C899.917 614.884 916.973 630.687 931.433 631.601C934.199 631.776 936.752 631.012 938.737 629.031C945.084 622.713 944.663 610.248 944.438 601.93C944.091 588.77 941.991 576.654 937.847 564.15C930.373 541.642 905.025 501.804 924.999 480.626C933.77 471.326 948.263 469.296 960.441 469.133C979.856 468.874 1001.55 472.566 1019.24 480.781C1040.33 490.581 1055.36 509.492 1072.74 524.329C1079.7 530.27 1088.63 536.061 1096.61 540.604C1106.86 546.428 1119.46 549.658 1130.68 553.243C1163.11 563.601 1194.89 575.84 1219.68 600.109C1254.67 634.361 1255.88 682.957 1281.98 709.081C1302.69 729.817 1333.25 739.562 1356.37 757.313C1370.43 768.111 1383.16 781.944 1395.68 794.459C1402.73 801.502 1409.6 809.017 1418.05 814.405C1440.97 828.998 1468.14 835.04 1489.25 853.227C1505.58 867.3 1510.69 885.456 1521.88 902.826C1530.66 916.451 1542.05 928.228 1553.09 940H1550.88C1539.96 929.669 1528.56 917.787 1520.55 904.929C1509.75 887.585 1504.12 868.412 1487.8 854.848C1465.51 836.319 1439.82 830.863 1416.79 816.136C1395.61 802.595 1376.6 775.649 1355.59 759.596C1332.51 741.957 1299.22 730.223 1279.18 709.623C1270.25 700.442 1265 687.856 1260.18 676.205C1247.54 645.675 1236.95 617.076 1210.91 595.08C1187.3 575.125 1158.88 564.32 1129.83 555.051C1117.17 551.014 1103.64 547.127 1092 540.679C1076.99 532.366 1063.82 519.16 1051.39 507.525C1041.12 497.928 1029.87 488.068 1017.25 481.656C1003.12 474.472 973.969 470.31 958.416 470.886C947.503 471.291 933.491 473.846 925.863 482.263C908.034 501.933 931.889 541.273 939.122 561.376C942.9 571.876 945.413 582.405 945.966 593.583C946.472 603.985 948.169 622.079 940.678 629.97C939.741 630.953 938.7 631.743 937.492 632.36C924.716 638.897 898.214 616.58 887.379 609.828C880.161 605.328 871.874 600.523 863.618 598.231C827.453 588.187 808.861 616.824 780.999 609.993C772.568 607.925 765.74 603.456 758.788 598.505C735.442 581.881 722.926 575.787 693.673 576.251C676.435 576.525 655.036 579.42 642.492 592.626C625.759 610.242 635.03 631.932 635.655 652.819C636.723 688.53 608.076 683.095 589.517 703.102C572.344 721.618 582.817 768.47 583.563 792.603C583.917 804.071 581.68 813.006 573.668 821.467C549.831 825.061 530.576 814.215 508.027 815.853C477.953 818.038 479.289 850.201 459.877 865.734C452.134 871.93 432.232 877.011 421.896 883.256C399.815 896.597 391.709 916.043 385.778 940H384.709C387.292 918.888 396.487 899.891 413.483 886.647C427.195 875.961 445.477 873.641 457.288 864.891C483.051 845.805 474.622 808.075 520.448 814.07C537.956 816.361 553.039 821.596 571.061 820.717Z" fill="#EEEEEE" fill-opacity="0.15"/>
<path d="M1645.78 940C1640.66 922.18 1633.81 905.402 1626.9 888.222C1620.89 873.295 1615.12 858.364 1607.82 844.003C1599.27 827.193 1589.38 810.991 1580.42 794.386C1570.42 775.848 1561.64 756.64 1548.5 740.028C1537.66 726.326 1525.44 715.348 1510.14 706.901C1495.99 699.08 1480.97 693.282 1465.87 687.575C1457.91 684.563 1449.23 681.933 1441.77 677.848C1423.62 667.907 1410.32 650.884 1391.15 642.309C1380.75 637.659 1369.8 638.441 1358.7 638.138C1327.6 637.291 1305.55 627.291 1296.28 595.459C1280.34 540.686 1281.8 544.679 1235.18 513.41C1219.27 502.74 1203.63 490.81 1186.87 481.542C1182.87 479.332 1178.57 476.894 1174.19 475.558C1159.27 471.017 1140.91 471.964 1127.83 462.52C1106.33 447.009 1097.98 418.043 1079.33 399.375C1067.07 387.099 1051.11 380.243 1035.84 372.51C1002.73 355.728 969.947 340.228 932.346 337.162C920.128 336.165 907.581 336.634 895.323 336.66C879.911 336.693 863.803 336.138 848.861 340.503C839.804 343.148 832.145 348.007 827.571 356.464C817.724 374.668 830.612 396.387 828.2 415.915C826.89 426.513 799.538 483.841 789.924 486.759C771.222 492.432 738.487 469.641 714.963 467.702C681.797 464.967 618.31 499.953 594.419 520.738C584.438 529.435 575.94 539.698 569.257 551.123C560.63 565.734 556.316 581.704 548.634 596.567C540.362 612.572 528.316 626.424 521.067 643.155C516.555 653.571 505.467 695.385 501.533 700.652C495.524 708.697 485.512 713.208 476.078 715.666C463.456 718.956 450.969 720.989 439.615 727.916C432.222 732.427 413.926 755.407 410.522 756.296C410.339 753.707 412.864 751.542 414.552 749.599C422.812 740.098 432.522 729.229 443.669 723.142C460.023 714.212 484.697 717.816 497.038 702.382C508.914 687.531 511.294 661.404 518.607 643.652C525.12 627.841 536.458 614.352 544.567 599.401C555.201 579.796 560.928 558.187 574.006 539.774C585.245 523.951 602.963 510.226 619.128 499.699C626.452 494.93 635.25 491.742 643.206 488.103C647.152 486.297 650.574 483.626 654.444 481.847C659.735 479.416 665.553 477.857 671.011 475.814C682.465 471.527 692.204 466.783 704.691 465.911C715.788 465.136 726.544 467.35 737.035 470.824C750.932 475.425 782.241 494.43 793.738 481.171C798.731 475.412 801.23 467.825 804.924 461.225C815.23 442.817 828.273 426.393 826.421 403.922C824.931 385.833 816.203 365.64 829.576 349.613C838.478 338.944 855.54 336.518 868.633 335.49C881.625 334.47 894.755 334.633 907.776 334.796C917.999 334.925 928.68 334.596 938.85 335.701C972.487 339.356 1005.03 354.236 1034.8 369.4C1048.79 376.523 1063.77 383.076 1075.78 393.337C1098.41 412.663 1106.32 444.312 1130.47 461.352C1144.56 471.277 1164.45 469.737 1180.26 475.831C1191.08 480.003 1264.59 528.789 1273.46 537.287C1298.05 560.826 1289.51 603.869 1317.11 624.568C1340.28 641.943 1368.66 630.505 1393.66 641.055C1412.2 648.884 1424.83 666.385 1442.54 675.699C1467.65 688.896 1496.24 693.928 1520.02 710.265C1552.07 732.286 1566.28 763.692 1584.09 796.703C1592.96 813.13 1603.06 829.032 1611.15 845.852C1622.77 869.999 1633.08 895.914 1641.97 921.205C1644.16 927.39 1645.55 933.861 1647.72 940H1645.78Z" fill="#EEEEEE" fill-opacity="0.15"/>
<path d="M1017.35 0H1021.19C1006.6 10.7759 978.535 5.89784 962.719 5.03314C901.495 1.6853 893.097 22.7571 888.359 78.1378C886.315 102.026 838.925 138.071 839.944 166.662C840.874 200.849 887.877 218.245 912.901 233.3C952.275 256.988 958.341 293.708 982.556 326.968C995.381 344.578 1037.67 330.219 1056.63 325.317C1102.76 313.382 1150.5 334.207 1197.1 333.697C1204.38 333.647 1221.68 333.435 1227.99 329.968C1262.31 311.124 1251.64 254.031 1280.33 227.491C1284.71 222.791 1294.85 218.021 1301.61 219.165C1342.95 226.16 1353.63 286.064 1393.58 297.305C1416.98 303.885 1444.63 296.738 1468.38 299.099C1494.8 301.728 1520.49 310.285 1547.02 311.989C1564.59 313.278 1580.98 305.405 1576.37 285.138C1573.75 272.282 1566.83 264.639 1561.41 252.957C1549.71 227.737 1500.58 164.089 1523.47 138.806C1535.34 125.68 1583.34 132.135 1602.07 133.268C1614.36 133.92 1626.67 134.235 1638.98 134.21C1657.89 134.329 1683.71 136.674 1698.82 122.905C1700.47 121.402 1701.42 119.606 1701.38 117.338C1701.21 102.898 1635.62 69.5955 1621.58 62.6795C1607.33 55.6673 1588.82 50.4224 1577.19 39.2833C1573.01 35.2701 1571.06 29.1034 1571.01 23.4165C1570.93 15.5763 1574.04 8.41918 1579.42 2.80977C1579.55 7.40164 1573.14 15.5695 1572.68 21.9225C1572.23 28.2123 1577.02 36.431 1581.74 40.4667C1591.43 48.7439 1605.95 53.1132 1617.48 58.4743C1635.62 66.9131 1688.78 94.776 1699.95 108.383C1702.06 110.961 1703.78 114.08 1703.31 117.53C1698.56 152.138 1567.55 128.731 1540.01 133.108C1534.89 133.947 1530.09 136.143 1526.11 139.47C1493.74 166.875 1582.03 258.269 1578.83 293.921C1578.32 299.522 1575.36 305.444 1570.87 308.925C1566.41 312.385 1555.38 314.699 1549.76 314.521C1522.74 313.673 1495.44 304.14 1468.55 300.947C1440.19 297.58 1406.93 309.643 1380.9 294.063C1353.76 277.828 1332.68 225.249 1303.43 221.297C1259.09 215.305 1262.48 308.33 1235.31 328.511C1208.33 348.55 1117.78 321.392 1081.86 323.613C1073.96 324.101 1065.43 324.895 1057.73 326.632C1037.64 331.154 1017.37 340.018 996.366 336.513C976.575 333.213 968.822 310.215 961.031 294.37C947.7 267.246 930.984 245.741 904.404 230.642C892.766 224.031 880.584 218.259 869.331 210.994C860.359 205.201 850.854 197.691 844.752 188.815C819.562 152.172 870.217 117.189 883.614 87.0668C889.955 72.8099 888.466 56.4031 891.46 41.3377C894.13 27.9003 898.416 20.3789 909.851 12.8908C944.138 -9.55876 995.953 14.6851 1016.66 0.476975L1017.35 0Z" fill="#EEEEEE" fill-opacity="0.15"/>
<path d="M1052.07 0H1053.19C1053.17 0.202687 1053.16 0.405884 1053.14 0.608061C1052.4 7.14147 1046.04 17.3374 1040.83 21.3432C1009.47 45.4608 944.063 11.1855 920.5 43.6996C908.402 60.3965 910.565 81.7241 901.581 99.1452C891.485 118.724 871.29 135.261 867.939 158.016C866.881 165.194 868.814 171.126 873.122 176.906C886.553 194.928 947.241 214.317 969.769 229.072C996.731 246.73 1016.07 275.69 1046.02 288.773C1072.68 300.421 1124.74 308.202 1153.79 312.104C1166.92 313.868 1201.78 317.069 1212.35 309.015C1218.09 304.636 1224.33 299.08 1228.31 293.019C1243.62 269.699 1253.85 222.13 1273.82 204.992C1280.88 198.939 1289.37 196.878 1298.49 198.154C1347.5 205.007 1359.29 266.17 1401.08 278.417C1420.45 284.095 1458.39 280.296 1481.22 282.593C1493.26 283.804 1522.74 289.076 1532.33 281.835C1535.42 279.495 1538.47 276.308 1538.87 272.278C1541.47 246.353 1475.5 162.504 1485.83 130.537C1487.49 125.424 1493.04 120.27 1497.07 116.834C1527.92 90.4485 1593.88 102.322 1598.75 97.4995C1598.89 97.3523 1599.09 95.6551 1599.15 95.3355C1595.36 89.7788 1571.77 80.0041 1565.03 76.6601C1541.66 65.0775 1530.51 47.6496 1524.21 22.7306C1518.78 1.23561 1514.1 7.4913 1497.62 14.6483C1477.35 22.803 1457.79 31.8719 1437.39 39.5455C1421.48 45.2318 1390.48 47.8341 1379.05 32.801C1372.69 24.3483 1370.52 10.4633 1368.09 0H1370.61C1373.04 10.4081 1374.18 28.1722 1383.56 34.2172C1424.65 60.6945 1475.96 14.6538 1516.37 6.38847C1522.72 5.08884 1527.95 30.0636 1530.08 35.5683C1539.9 60.8718 1559.36 73.2093 1583.54 83.2081C1588.68 85.3532 1601.37 90.5884 1601.68 96.8594C1599.97 99.1124 1596.28 100.677 1593.55 100.731C1565.88 101.285 1537.8 97.5023 1511.7 109.674C1505.8 112.425 1490.21 123.352 1488.45 129.542C1482.46 150.598 1497.06 173.665 1506.22 191.961C1515.02 209.414 1523.7 226.925 1532.27 244.493C1538.01 256.33 1548.13 277.248 1530.53 284.594C1512.89 291.955 1489.5 284.255 1471.12 283.233C1450.15 282.069 1428.18 285.235 1407.38 281.611C1359.02 271.634 1356.03 222.239 1308.9 202.878C1250.78 179.01 1250.37 296.693 1211.93 311.238C1175.29 325.096 1083.61 303.347 1045.84 290.609C1020.96 282.218 996.169 250.048 974.85 235.241C956.616 223.967 925.755 208.181 906.951 200.557C834.039 170.998 874.509 141.423 900.719 95.6898C904.839 88.5006 908.016 64.1285 913.238 52.9102C941.578 -7.98161 1025.28 64.9321 1052.07 0Z" fill="#EEEEEE" fill-opacity="0.15"/>
<path d="M1684.61 940C1685.18 906.74 1671.75 887.485 1660.42 858.459C1655.68 846.324 1652.64 833.348 1648.92 820.865C1645.69 810.012 1642.29 798.647 1637.63 788.316C1618.87 746.688 1574.12 681.703 1530.35 665.59C1507.36 657.126 1481.3 657.417 1459.55 645.45C1440.46 634.949 1433.14 609.016 1411.54 602.968C1387.58 596.26 1354.6 610.192 1333.06 598.028C1310.75 585.433 1319.73 555.073 1313.95 534.852C1311.83 527.42 1307.69 521.438 1301.5 516.814C1296.45 513.042 1290.73 510.348 1284.97 507.879C1269.98 501.473 1253.89 496.013 1240.18 487.097C1222.17 475.385 1206.85 460.177 1187.75 450.027C1175.78 443.669 1161.88 441.01 1150.21 434.332C1132.54 424.229 1128.49 403.354 1123.43 385.194C1121.48 378.181 1116.75 367.283 1120.8 360.485C1123.51 355.931 1129.07 353.866 1134.01 352.888C1140.07 351.688 1146.5 352.039 1152.64 352.059C1178.22 352.144 1222.79 359.751 1245.05 354.271C1284.18 344.637 1264.3 290.307 1283.32 259.264C1288.81 250.29 1295.91 246.526 1305.8 244.261C1334.06 252.337 1346.77 297.433 1374.61 313.09C1403.62 329.407 1440.85 313.952 1472.18 317.146C1516.84 321.699 1559.86 347.878 1605.32 335.311L1604.62 335.781C1588.96 345.961 1562.93 340.109 1546.16 336.321C1522.14 330.896 1498.49 321.948 1473.95 319.218C1440.54 315.502 1404.27 331.348 1372.86 314.475C1347.3 300.747 1333.04 259.403 1312.22 248.745C1306.16 245.644 1300.37 246.432 1294.73 249.999C1283.72 256.956 1279.76 270.034 1277.22 282.074C1273.04 301.949 1276.15 338.766 1258.45 350.484C1250.92 355.474 1241.28 357.405 1232.36 357.996C1205.4 359.782 1153.05 349.004 1130.92 355.046C1126.75 356.185 1122.85 358.524 1121.88 363.044C1119.57 373.729 1132.58 411.586 1139.19 421.262C1151.02 438.569 1172.4 439.359 1189.74 448.301C1211.23 459.383 1228.45 478.704 1249.87 490.344C1266.75 499.511 1287.2 503.905 1302.77 515.126C1331.47 535.807 1303.07 592.143 1344.33 599.743C1366.1 603.754 1389.4 594.279 1410.53 600.529C1433.85 607.426 1440.64 631.222 1460.02 643.167C1472.42 650.804 1486.85 653.275 1500.87 656.234C1513.24 658.846 1525.55 661.203 1537.2 666.317C1562.96 677.629 1589.72 707.13 1605.7 729.888C1622.82 754.282 1637.74 779.969 1647.07 808.383C1652.28 824.268 1655.9 840.846 1661.7 856.492C1672.52 885.624 1688.23 906.642 1686.74 940H1684.61Z" fill="#EEEEEE" fill-opacity="0.15"/>
<path d="M374.662 0H376.522C379.142 3.95937 381.761 11.0423 383.201 15.3099C394.425 48.5831 392.08 75.1465 362.434 97.7291C348.86 108.069 336.965 119.579 354.382 134.148C381.181 156.563 419.024 171.222 435.005 204.108C443.028 220.669 434.339 236.345 435.12 253.143C435.524 261.836 441.071 271.908 443.632 280.17C453.649 311.086 429.497 342.184 412.514 365.618L387.755 399.704C383.573 405.451 374.022 418.015 371.797 424.051C365.149 442.082 375.46 466.115 369.104 485.739C357.121 522.74 333.289 552.877 316.711 588.289C300.675 622.543 306.992 644.345 300.437 679.449C296.249 701.877 288.021 722.726 285.6 746.316C282.758 774.013 285.097 800.771 284.078 828.318C283.438 845.636 279.131 865.649 279.125 883.228C279.123 886.026 282.242 894.292 283.324 897.313C308.969 851.109 334.105 804.714 362.217 759.83C372.202 743.889 384.144 721.692 397.868 708.853C419.577 688.543 458.374 687.364 476.359 665.007C482.141 657.819 487.387 640.663 490.497 632.958C494.492 623.063 523.982 561.859 528.23 559.406C528.894 563.99 522.075 572.92 519.478 577.716C509.751 595.955 500.75 614.573 492.497 633.524C489.222 641.181 485.764 652.713 482.573 658.897C479.946 664.096 476.317 668.727 471.897 672.524C450.464 690.848 406.024 694.067 388.535 721.767C351.598 780.269 314.52 841.85 282.644 903.129C280.797 897.343 277.738 890.24 277.482 884.216C276.721 866.301 281.053 848.114 281.86 830.183C283.265 799.008 280.062 768.056 284.887 737.013C288.276 715.222 296.527 694.444 299.649 672.611C302.993 649.221 300.924 623.712 309.22 601.381C324.233 560.964 354.672 527.031 367.142 485.888C373.496 464.92 361.485 441.654 370.558 421.964C374.815 412.726 381.739 404.58 387.715 396.4C403.976 374.143 429.586 343.337 439.357 317.974C445.942 300.88 445.183 289.207 438.54 272.137C436.506 266.908 434.158 261.374 433.28 255.806C430.942 240.993 439.461 227.419 435.462 212.458C423.334 167.071 355.852 151.981 344.108 124.365C338.147 110.345 362.579 95.9156 371.232 87.1818C376.493 81.8716 381.018 75.7114 383.815 68.7454C392.859 46.2293 383.707 20.9175 374.662 0Z" fill="#EEEEEE" fill-opacity="0.15"/>
<path d="M643.068 526.266C657.02 516.744 697.821 503.979 714.412 507.097C760.968 515.849 761.588 547.065 822.5 543.218C831.893 542.624 843.588 541.58 851.619 536.258C854.937 534.06 857.076 530.795 857.855 526.902C861.152 510.41 846.985 492.737 847.347 475.736C847.762 456.306 861.763 446.399 868.598 429.95C875.673 412.926 864.58 385.24 881.209 373.433C890.121 367.106 905.272 366.152 915.841 368.094C936.344 371.86 954.553 383.69 973.791 391.194C981.891 394.354 990.947 396.035 999.366 398.219C1026.04 405.14 1050.77 414.128 1070.72 433.935C1090.14 453.222 1098.52 475.512 1122.83 490.321C1134.44 497.389 1153.36 497.755 1166.51 501.019C1197.95 508.815 1241.03 540.938 1259.09 567.406C1277.73 594.711 1283.24 630.928 1308.38 653.759C1326.63 670.327 1352.59 673.91 1374.83 682.685C1395.71 690.928 1412.6 705.398 1432.17 715.928C1450.03 725.537 1469.05 732.695 1486.53 743.082C1494.14 747.608 1502.48 753.092 1508.84 759.295C1532.78 782.653 1552.15 824.603 1569.34 853.741C1578.41 869.137 1614.6 925.837 1618.21 940H1616.95C1612.49 929.888 1606.16 920.26 1600.53 910.755L1574.9 867.375C1558.44 839.455 1543.38 809.866 1525.12 783.142C1518.9 774.05 1512.17 765.383 1503.85 758.126C1482.38 739.407 1455.54 731.292 1431.12 717.722C1414.55 708.512 1399.42 696.949 1382.41 688.444C1358.76 676.607 1329.56 674.387 1308.95 657.101C1278.96 631.947 1274.79 585.581 1245.2 553.57C1227.75 534.702 1191.23 509.155 1166.05 502.921C1149.27 498.766 1130.66 498.196 1115.83 488.435C1091.97 472.737 1080.79 440.66 1053.33 422.286C1026.83 404.558 997.322 402.209 968.531 391.301C953.128 385.465 938.766 375.793 922.747 371.791C913.863 369.572 902.228 368.904 893.26 370.775C884.312 372.642 879.019 377.182 874.176 384.648C871.926 401.272 876.881 417.694 869.017 433.339C864.73 441.866 858.39 449.293 854.002 457.785C844.968 475.265 851.891 490.406 857.285 507.454C859.674 515.006 862.176 524.375 858.128 531.785C855.017 537.482 849.005 540.378 842.986 542.055C835.594 544.115 827.292 544.638 819.646 545.326C785.677 548.387 771.75 536.526 743.699 520.699C699.396 495.701 685.437 514.462 643.068 526.266Z" fill="#EEEEEE" fill-opacity="0.15"/>
<path d="M115.612 940C119.247 929.412 120.423 919.364 121.19 908.232C121.534 903.244 121.428 897.58 122.786 892.752C126.915 878.081 137.181 865.924 139.276 850.52C141.95 830.866 135.918 812.101 142.338 792.709C149.84 770.049 178.149 761.945 187.478 740.183C193.875 725.259 194.491 706.438 198.006 690.591C202.181 671.769 209.536 653.804 214.702 635.277C219.327 618.688 221.186 601.383 227.421 585.23C239.771 553.231 268.994 537.83 277.423 501.486C280.395 488.672 280.988 474.627 279.75 461.555C277.97 442.763 271.622 421.84 277.699 403.297C287.376 373.772 332.989 341.917 318.133 311.304C306.558 287.449 246.235 271.996 254.085 249.685C259.767 233.533 297.307 222.398 288.013 201.643C268.671 158.446 147.544 165.4 170.887 101.078C171.272 100.041 171.671 99.0082 172.086 97.982C173.942 93.2786 178.292 88.3122 181.839 84.7381L182.567 85.2352L182.798 84.0928C182.738 84.2638 182.682 84.4361 182.619 84.6058C179.382 93.3141 171.844 98.9201 170.497 108.653C169.239 117.733 170.675 126.782 176.257 134.227C196.625 161.391 295.667 173.117 291.156 209.687C288.849 228.387 255.585 239.282 255.075 253.03C254.949 256.422 257.393 259.763 259.373 262.332C278.82 287.56 327.753 288.427 322.388 331.225C319.208 356.592 287.761 377.124 279.79 403.024C273.642 422.998 280.202 443.199 281.87 463.318C283.088 478.746 281.479 494.266 277.121 509.116C267.644 540.56 240.007 556.981 229.165 585.46C223.104 601.383 220.836 618.927 216.397 635.359C211.223 654.514 204.018 672.969 199.572 692.37C195.784 708.908 195.479 727.617 187.991 743.054C177.83 764.006 151.838 772.472 143.431 794.612C136.91 811.786 144.11 832.951 141.176 850.992C138.697 866.242 128.747 878.13 124.923 892.698C122.39 902.345 123.135 912.604 122.001 922.458C121.308 928.476 119.461 934.231 117.681 940H115.612Z" fill="#EEEEEE" fill-opacity="0.15"/>
<path d="M300.17 252.327C306.929 231.92 335.619 219.352 326.494 200.821C309.481 166.271 206.841 149.005 220.588 107.447C223.403 98.9381 232.041 90.3198 240.109 86.2871C242.324 85.1798 244.746 84.3409 247.07 83.4875L247.652 84.0633C245.079 86.8464 241.239 88.2146 238.02 90.1418C228.578 95.7929 220.942 104.798 221.4 116.282C221.705 123.927 226.651 130.476 232.154 135.379C252.793 153.766 329.093 178.899 330.689 207.243C331.093 214.411 326.704 220.408 322.076 225.412C315.603 232.413 303.641 241.582 304.016 252.024C304.241 258.291 308.123 262.977 312.601 266.989C328.712 281.424 352.868 293.606 354.272 317.991C356.226 351.953 310.528 376.578 298.904 407.372C291.708 426.438 298.032 445.937 299.188 465.389C300.04 478.598 298.756 491.857 295.386 504.656C289.747 526.941 278.4 543.741 264.465 561.629C257.125 571.052 249.546 580.655 245.168 591.904C238.958 607.865 235.472 625.464 230.807 641.971C226.931 655.686 221.8 669.037 218.918 683.021C211.045 721.209 220.458 746.345 191.39 778.274C179.363 791.485 168.235 799.76 169.112 819.489C169.669 832.034 172.118 844.556 169.846 857.071C167.652 869.151 160.081 878.557 155.401 889.596C148.853 905.042 147.594 923.413 146.207 940H143.743C146.683 925.505 146.408 910.39 150.984 896.238C155.569 882.064 165.715 869.917 168.278 855.103C171.142 838.547 162.713 819.323 168.91 803.826C177.623 782.041 201.293 772.435 208.991 745.599C214.028 728.037 212.543 708.457 215.497 690.398C218.17 674.056 224.116 658.807 228.625 642.964C233.533 625.724 237.196 607.525 243.672 590.834C254.877 561.955 281.266 544.4 291.325 512.488C295.487 499.287 298.092 484.223 297.632 470.351C297.093 454.073 290.047 428.007 294.958 412.64C298.088 402.848 303.35 393.473 309.648 385.376C327.248 362.747 367.776 332.806 346.182 300.66C333.73 282.121 308.154 273.54 300.17 252.327Z" fill="#EEEEEE" fill-opacity="0.15"/>
<path d="M298.333 118.625C300.265 112.961 304.757 103.923 310.351 101.294C311.474 100.766 312.024 101.147 313.166 101.429C310.432 108.236 297.14 110.904 302.212 122.501C316.066 154.181 420.088 173.544 401.127 224.622C396.167 237.984 388.017 248.866 394.512 263.564C405.911 289.357 422.254 294.875 409.68 328.53C394.97 367.908 355.281 386.103 341.548 417.802C332.645 438.354 345.037 469.944 337.312 496.431C329.19 524.275 314.417 548.061 300.038 572.915C293.374 584.432 285.717 597.077 281.549 609.714C276.968 623.602 276.627 638.924 273.623 653.208C270.284 669.082 263.699 684.071 261.564 700.253C255.47 746.46 261.332 792.689 257.288 838.848C255.292 861.62 251.377 884.451 247.727 907.006C245.979 917.811 243.379 929.08 242.774 940H240.282C243.488 926.682 245.013 912.598 247.114 899.051C251.083 873.462 255.59 847.576 256.089 821.647C256.911 778.955 252.833 734.43 261.068 692.254C263.536 679.618 268.482 667.54 271.357 655.001C275.899 635.183 276.164 616.048 284.764 597.206C300.517 562.692 325.473 533.03 335.636 495.91C343.626 466.729 327.45 434.5 344.563 408.111C367.553 372.658 434.988 333.876 404.06 283.509C397.07 272.127 387.35 260.863 390.606 246.535C394.796 228.096 408.368 216.439 396.169 196.899C374.032 161.443 311.006 152.664 298.502 119.093C298.444 118.938 298.389 118.781 298.333 118.625Z" fill="#EEEEEE" fill-opacity="0.15"/>
<path d="M1586.26 940L1585.87 939.363C1576.32 923.847 1562.4 911.14 1552.39 895.963C1538.37 874.699 1526.74 851.986 1511.63 831.378C1478.34 785.993 1425.88 763.396 1378.49 736.122L1331.37 708.537C1321.14 702.544 1309.93 697.376 1300.94 689.545C1273.26 665.436 1256.5 606.113 1227 573.552C1204.27 548.461 1176.59 535.215 1144.19 527.526C1129.03 523.93 1113.98 520.246 1100.54 512.06C1089.54 505.368 1081.43 496.013 1073.21 486.289C1053.6 463.099 1033.73 445.76 1003.29 438.722C984.038 434.269 967.669 435.417 948.563 439.103C943.641 440.052 938.653 440.598 933.887 442.2C930.532 443.329 907.25 452.591 906.414 452.298C906.047 452.169 905.987 451.646 905.772 451.32C908.553 448.786 913.188 447.823 916.687 446.477C937.894 438.312 960.506 432.727 983.363 433.782C1015.88 435.284 1044.74 450.857 1066.32 474.687C1076.06 485.445 1084.23 497.452 1095.89 506.329C1115.64 521.366 1139.99 523.394 1162.93 530.364C1179.93 535.557 1195.85 543.791 1209.9 554.664C1240.06 577.731 1256.06 612.213 1273.13 645.054C1280.38 658.995 1287.92 673.552 1299.15 684.745C1313.34 698.877 1336.62 709.085 1354.13 719.303C1369.21 728.094 1384.15 737.027 1399.42 745.48C1439.17 767.503 1480.05 788.09 1509.07 824.321C1524.56 843.681 1536.16 866.111 1549.48 886.948C1554.33 894.552 1559.54 901.915 1565.1 909.008C1572.52 918.36 1583.7 929.012 1588.39 940H1586.26Z" fill="#EEEEEE" fill-opacity="0.15"/>
<path d="M197.208 940C201.397 918.423 208.852 897.507 212.885 875.906C217.035 853.673 215.988 830.954 218.772 808.62C221.355 787.893 227.742 767.806 230.682 747.132C234.062 723.37 230.212 700.484 237.097 677.086C240.547 665.361 245.577 654.148 249.001 642.43C253.618 626.63 255.465 609.507 262.654 594.602C267.168 585.245 273.436 576.707 279.18 568.071C292.724 547.705 305.896 526.178 311.899 502.216C314.632 491.309 315.916 479.326 315.549 468.082C314.802 445.125 308.399 422.493 321.405 401.687C340.826 370.614 404.79 337.39 374.577 292.594C365.46 279.077 344.509 265.476 348.184 247.118C351.957 228.263 375.722 217.255 361.641 195.66C343.067 167.174 255.337 142.332 261.982 112.341C263.183 106.916 271.418 98.2296 276.079 95.4274C278.35 94.0619 280.304 93.8239 282.907 94.1875C281.215 96.3131 278.159 95.7967 276.029 97.5248C272.403 100.468 270.081 104.764 266.453 107.731C264.892 109.008 264.269 110.216 264.068 112.234C263.465 118.274 267.216 125.864 270.995 130.381C291.808 155.258 370.508 173.693 367.7 211.057C365.827 235.97 334.851 242.14 358.762 270.779C370.69 285.065 385.787 297.112 384.114 317.864C380.502 362.678 328.824 377.616 316.855 416.011C310.506 436.38 321.892 470.337 314.615 498.925C309.613 518.571 300.94 539.69 289.518 556.531C281.07 568.984 270.548 582.055 264.095 595.636C257.078 610.402 255.132 628.084 250.486 643.747C246.627 656.757 240.841 669.192 237.41 682.325C232.237 702.131 235.34 724.218 232.841 744.487C230.259 765.428 223.987 785.767 220.955 806.621C218.155 825.88 218.832 845.486 216.447 864.806C213.364 889.776 205.428 915.75 198.662 940H197.208Z" fill="#EEEEEE" fill-opacity="0.15"/>
<path d="M884.888 0H886.966C883.432 8.43959 876.972 14.5269 874.464 26.5935C871.184 42.378 874.112 68.1585 866.21 82.2729C850.748 109.357 822.899 129.219 814.08 160.234C797.414 218.561 893.52 229.575 884.301 287.117C882.912 295.785 875.769 301.709 868.066 304.576C848.658 311.8 830.918 315.078 812.453 325.144C781.68 341.924 787.058 367.37 781.556 396.405C775.966 424.688 728.646 433.015 705.428 435.961C672.233 442.121 639.437 459.236 611.023 475.054L610.701 474.242C628.286 459.269 672.848 442.046 695.602 436.266C705.462 433.761 715.768 432.814 725.762 430.692C808.815 413.049 765.987 379.078 791.912 341.927C794.444 338.299 796.238 334.021 799.864 331.352C806.322 326.598 813.622 321.629 821.04 318.519C837.635 311.562 870.955 307.311 880.658 291.784C883.494 287.244 884.035 280.849 883.286 275.658C877.491 235.476 818.453 219.643 810.924 183.653C801.632 139.232 852.17 112.227 866.357 76.5606C868.71 70.6437 869.562 63.967 870.076 57.6565C872.144 32.2767 870.134 22.6846 884.888 0Z" fill="#EEEEEE" fill-opacity="0.15"/>
<path d="M0 399.308C13.1687 377.145 11.0722 355.012 14.5955 330.549C17.0981 313.173 24.7306 296.756 29.4226 279.924C37.5523 250.761 35.0621 230.437 60.5822 209.627C70.3057 201.698 81.3245 196.435 93.4678 193.373C126.238 185.112 215.264 179.726 243.658 196.917C246.272 198.499 248.788 200.633 249.451 203.77C250.122 206.95 248.16 210.671 246.307 213.121C238.931 222.88 205.377 237.138 207.211 248.835C208.626 257.86 214.776 264.816 222.027 269.758C243.689 284.524 288.155 296.533 293.479 325.69C296.098 340.035 287.316 354.424 279.325 365.655C278.144 367.316 277.119 368.747 275.442 369.943L274.486 369.638C276.203 363.639 281.432 358.525 285.022 353.565C292.534 343.185 294.164 328.09 287.793 316.905C272 289.18 198.02 273.562 205.798 245.552C210.096 230.078 253.229 217.072 246.037 203.509C242.588 197.006 233.498 194.112 226.795 192.412C193.315 183.921 101.708 186.21 72.1058 203.892C51.5895 216.147 43.1461 229.77 37.4792 252.673C34.9561 262.872 33.0275 273.159 30.0217 283.241C26.1935 296.081 21.2182 308.818 18.2354 321.874C11.8623 349.77 16.8447 377.934 0 403.241V399.308Z" fill="#EEEEEE" fill-opacity="0.15"/>
<path d="M88.2087 940C102.741 914.333 95.0166 904.6 102.301 880.568C106.353 867.2 116.005 854.953 117.644 840.96C119.918 821.54 112.223 801.544 119.416 782.522C128.636 758.14 159.677 750.25 171.991 727.024C179.651 712.577 180.405 695.506 184.363 679.866C188.758 662.498 196.573 646.14 201.498 628.923C206.513 611.384 207.795 592.562 214.693 575.602C229.794 538.473 265.384 524.361 265.156 476.092C265.003 443.519 251.878 414.535 266.628 382.697C268.011 379.711 270.953 373.48 274.107 372.17C269.921 384.507 264.26 391.094 261.991 405.094C256.811 437.058 273.299 467.873 263.777 500.206C254.789 530.726 226.795 549.708 215.49 578.534C209.326 594.251 208.444 611.535 203.846 627.69C199.111 644.326 191.163 660.217 186.999 676.948C182.812 693.776 181.78 713.105 173.479 728.504C161.581 750.575 129.939 760.795 121.738 781.863C114.158 801.331 121.441 822.277 119.131 842.397C117.599 855.737 108.25 866.478 104.611 879.119C98.5472 900.178 103.252 920.794 90.0914 940H88.2087Z" fill="#EEEEEE" fill-opacity="0.15"/>
<path d="M330.476 940C343.704 878.153 379.789 843.415 419.304 797.77C427.77 787.993 438.436 771.705 449.057 764.825C454.57 761.255 461.415 756.805 467.67 754.967C490.712 748.2 521.414 756.438 528.099 726.205C531.95 708.784 530.836 689.846 536.619 672.94C543.984 651.403 560.311 640.225 570.347 621.254C573.463 615.363 574.854 608.807 576.447 602.393C581.207 583.246 585.361 567.539 598.387 552.019C601.543 548.258 605.761 543.135 609.98 540.609C610.95 540.028 612.023 539.777 613.135 539.668L614.467 540.576C608.962 547.081 602.852 548.607 596.308 557.579C585.527 572.362 581.551 589.117 577.092 606.519C575.545 612.558 574.151 619.702 571.036 625.154C568.816 629.04 565.267 632.659 562.434 636.137C552.31 648.571 542.974 659.733 537.883 675.22C531.187 695.591 536.397 722.986 523.994 741.005C512.819 757.239 475.133 750.37 457.516 761.124C442.447 770.325 382.909 841.909 370.005 859.215C362.57 869.194 355.848 879.685 349.888 890.61C341.19 906.528 336.046 922.276 332.45 940H330.476Z" fill="#EEEEEE" fill-opacity="0.15"/>
<path d="M396.196 0H397.947C405.443 22.4348 419.725 61.4848 409.479 84.1327C405.162 94.3205 387.75 109.75 391.733 121.467C397.905 137.735 417.993 145.638 430.624 155.086C444.489 165.456 463.079 177.271 481.11 171.469C505.179 163.724 500.667 128.702 505.428 109.317C509.707 91.8946 515.971 76.1228 520.763 58.935C525.326 40.6817 527.609 18.8425 530.124 0H531.904C529.563 40.0735 517.368 74.3033 506.668 112.238C503.705 123.544 503.798 149.856 498.419 159.23C478.791 193.446 439.491 164.309 418.017 149.95C404.385 140.835 393.199 132.711 388.368 118.571C392.446 101.809 398.145 100.168 405.859 86.7617C419.341 63.3289 403.732 24.8127 396.196 0Z" fill="#EEEEEE" fill-opacity="0.15"/>
<path d="M837.473 0H838.806C838.347 8.22688 836.354 19.2687 835.056 27.4993C831.834 50.665 822.078 75.4495 802.599 89.8567C778.622 107.592 757.989 124.706 745.429 152.886C740.37 164.922 731.75 179.847 729.853 192.744C726.508 215.489 729.659 239.505 710.267 256.53C705.579 260.645 693.463 271.011 688.106 272.829L686.953 272.192C687.602 270.73 691.299 269.265 692.858 268.13C715.193 251.656 726.388 238.307 726.357 209.384C726.33 182.896 740.372 157.546 752.951 135.196C770.537 103.953 806.7 93.0831 822.997 61.8064C832.433 43.6946 833.97 20.1182 837.473 0Z" fill="#EEEEEE" fill-opacity="0.15"/>
<path d="M640.429 0H642.316C642.754 24.1788 640.174 59.2967 627.721 79.8028C612.081 108.288 584.094 99.4563 558.498 104.863C534.319 109.971 541.134 138.633 546.882 155.001C551.643 168.556 547.4 181.952 540.28 193.493C538.876 195.768 538.051 197.929 535.356 198.674C535.459 193.47 546.609 185.081 547.043 169.222C547.512 152.03 537.99 142.28 539.048 127.406C542.082 84.7903 593.784 113.165 617.393 89.4442C640.999 65.7269 638.934 30.5484 640.429 0Z" fill="#EEEEEE" fill-opacity="0.15"/>
<path d="M667.292 0H669.44C670.202 33.3788 663.928 66.5443 651.024 97.3392C645.408 110.799 638.012 124.815 633.103 138.635C627.459 154.523 624.591 172.142 617.37 188.008C613.872 195.693 595.364 212.873 587.83 216.829C583.54 219.081 582.545 219.943 578.478 222.91L577.327 222.536C577.732 221.795 599.519 205.512 604.022 200.88C625.258 179.031 621.492 166.185 630.451 139.914C635.065 126.383 644.229 109.345 649.84 95.5604C662.888 63.5144 667.694 34.3333 667.292 0Z" fill="#EEEEEE" fill-opacity="0.15"/>
<path d="M305.835 940C311.874 891.858 357.935 824.826 386.979 785.906C392.646 778.313 399.474 766.452 406.642 760.541C407.332 759.973 408.029 759.604 408.857 759.297C408.931 762.242 399.592 772.813 397.205 775.988C380.615 798.055 364.233 819.82 349.664 843.323C331.192 873.125 315.077 905.779 307.115 940H305.835Z" fill="#EEEEEE" fill-opacity="0.15"/>
<path d="M808.96 0H811.348C811.01 4.92197 810.42 9.82342 809.581 14.6851C801.913 59.6594 771.488 73.0238 741.965 103.085C731.835 113.4 711.14 146.777 702.612 152.838L701.96 152.222C702.5 149.612 739.523 101.721 744.157 97.327C754.057 87.9379 773.032 72.6926 783.932 61.6875C799.997 45.1709 808.977 23.0373 808.96 0Z" fill="#EEEEEE" fill-opacity="0.15"/>
<path d="M147.954 0H153.951C148.576 3.38495 135.647 6.09784 129.555 8.32245C109.496 15.6481 88.8434 28.9818 82.9093 50.7379C73.3153 78.9172 106.558 120.274 77.8062 137.693C79.9524 132.548 86.137 127.303 87.1857 121.02C91.5227 95.0347 71.7584 73.7578 82.1226 46.2445C89.125 27.6558 106.798 15.2473 124.797 8.21731C131.656 5.53817 141.018 3.32415 147.301 0.318432L147.954 0Z" fill="#EEEEEE" fill-opacity="0.15"/>
<path d="M709.552 0H710.397C711.466 3.11997 712.177 10.0575 712.403 13.4504C715.23 54.4609 694.777 90.966 683.816 129.153C681.237 138.139 676.747 169.924 680.398 177.729L679.173 177.968C676.782 175.594 676.668 172.13 676.651 168.919C676.398 121.832 704.113 82.491 709.82 36.7988C711.376 24.3364 710.095 12.4815 709.552 0Z" fill="#EEEEEE" fill-opacity="0.15"/>
<path d="M572.093 0H573.888C573.663 17.0637 569.138 39.5861 581.418 52.8339C609.006 82.5974 611.794 13.9968 612.576 0H614.139C614.38 11.7573 612.291 35.8104 608.179 46.8207C604.584 56.445 599.986 59.1984 591.409 62.7753C565.486 49.6774 570.696 24.3721 572.093 0Z" fill="#EEEEEE" fill-opacity="0.15"/>
<path d="M252.885 0H257.616C259.264 1.27335 266.41 3.70478 268.612 4.53107C293.913 14.0259 329.574 40.4309 291.756 62.9026C286.041 66.2991 252.592 83.6219 248.313 82.6241C250.99 79.7022 256.252 79.0082 259.777 77.0758C278.544 66.789 325.338 52.78 297.246 24.5355C291.54 18.7978 281.618 12.201 274.411 8.66371C267.614 5.3284 259.666 4.11473 252.885 0Z" fill="#EEEEEE" fill-opacity="0.15"/>
<path d="M349.468 0H351.725C352.183 0.52864 352.625 1.07087 353.05 1.62595C371.017 24.8694 375.894 63.6745 348.504 81.3337C343.641 84.4691 319.122 100.703 314.814 100.069C318.646 88.5709 400.748 78.5519 349.468 0Z" fill="#EEEEEE" fill-opacity="0.15"/>
<path d="M311.183 0H314.183C330.571 9.82014 346.597 28.1514 342.639 48.5437C339.689 63.7424 326.779 72.7689 314.061 79.6492C310.091 81.7966 302.379 86.4261 297.969 85.505L298.1 84.8397C308.613 81.1009 328.675 70.0459 335.064 61.0816C353.423 35.317 329.521 13.9069 311.183 0Z" fill="#EEEEEE" fill-opacity="0.15"/>
<path d="M859.194 0H860.65C851.376 41.3777 858.508 72.6858 824.968 103.015L823.931 102.635C824.581 100.319 836.944 87.3389 839.852 82.7164C855.672 57.5733 850.131 27.1331 859.194 0Z" fill="#EEEEEE" fill-opacity="0.15"/>
<path d="M0 186.656C20.0303 177.382 46.0576 160.373 64.476 147.543C67.9959 145.092 74.0023 138.21 77.8062 137.693C74.8123 147.079 11.0074 185.017 0 188.439V186.656Z" fill="#EEEEEE" fill-opacity="0.15"/>
<path d="M357.661 940C358.557 921.508 371.224 887.694 385.082 875.19C386.516 873.896 387.845 872.784 389.595 871.938C386.602 877.714 381.214 882.523 377.671 888.079C367.16 904.56 363.269 921.3 358.914 940H357.661Z" fill="#EEEEEE" fill-opacity="0.15"/>
<path d="M0 253.086C5.35485 262.535 5.59502 278.903 2.74072 289.203C2.05769 291.668 1.34722 294.236 0 296.422V253.086Z" fill="#EEEEEE" fill-opacity="0.15"/>
<path d="M1396.96 0H1399.51C1401.05 2.86918 1406.1 7.77874 1409.31 9.47854C1418.55 14.3863 1430.85 11.7371 1440.12 8.03368C1443.71 6.59912 1444.8 4.32736 1450.08 2.77516L1450.29 3.63838C1450.01 4.04083 1448.78 5.64305 1448.32 5.85374C1427.69 15.1299 1411.95 22.2796 1396.96 0Z" fill="#EEEEEE" fill-opacity="0.15"/>
<path d="M0 228.546C4.43737 221.583 18.0695 205.03 25.8359 203.189L26.5359 203.87C24.489 207.566 16.6447 212.248 13.2026 215.619C7.8982 220.814 3.72721 226.45 0 232.864V228.546Z" fill="#EEEEEE" fill-opacity="0.15"/>
<path d="M628.027 532.649C630.934 529.705 638.962 526.353 643.068 526.266C640.795 529.244 631.655 531.746 628.027 532.649Z" fill="#EEEEEE" fill-opacity="0.15"/>
<path d="M573.478 225.054L574.512 225.05C573.971 227.894 566.006 232.666 563.448 234.836C552.724 244.033 543.544 254.891 536.258 266.994C522.773 289.073 513.449 314.78 503.15 338.567C495.089 357.185 484.227 377.55 479.719 397.299C472.291 429.836 474.186 464.437 458.389 494.745C449.373 512.043 435.673 526.899 421.383 540.045C415.642 545.327 409.152 550.356 404.113 556.309C401.68 559.183 398.154 563.842 397.972 567.784C397.867 570.063 398.354 570.468 399.822 571.997C402.878 572.905 405.636 572.701 408.743 572.118C424.832 569.099 438.835 561.004 451.095 550.295C486.277 519.565 511.612 477 538.672 439.306C562.993 405.426 588.196 372.176 611.812 337.827C621.56 323.65 670.271 276.019 686.229 273.482C686.416 273.453 686.604 273.438 686.792 273.415C681.66 278.939 673.077 283.394 666.89 287.908C650.445 299.906 634.257 313.382 621.297 329.128C608.805 344.307 597.805 361.308 586.273 377.257C565.724 405.189 545.448 433.32 525.448 461.647C503.639 492.652 481.417 527.242 452.275 551.951C440.409 562.012 419.261 575.97 402.877 574.267C399.678 573.934 398.222 572.854 396.224 570.453C393.217 559.017 412.552 545.324 419.844 538.702C474.902 488.716 463.896 465.188 476.91 400.686C480.565 382.571 525.159 278.976 536.067 262.573C545.737 248.033 558.927 234.669 573.478 225.054Z" fill="#EEEEEE" fill-opacity="0.15"/>
<path d="M890.679 462.946L890.799 463.083L890.691 464.411L891.245 462.82C891.578 467.998 880.504 474.744 884.19 493.384C887.7 511.142 908.527 552.315 906.77 566.582C906.345 570.037 905.038 573.201 902.197 575.34C894.775 580.929 882.055 577.302 873.778 575.7C862.201 573.46 850.194 570.753 838.354 571.428C819.629 572.498 800.624 581.735 781.86 576.941C760.176 571.4 745.071 552.409 720.193 548.629C697.886 545.24 661.101 551.229 640.47 560.53C634.65 563.154 628.026 567.691 622.905 571.544C601.055 587.981 608.059 620.713 604.364 644.081C602.089 658.472 586.26 665.887 575.613 673.854C543.347 697.997 562.835 736.179 557.695 768.482C556.864 773.711 554.583 781.543 550.613 785.274C537.492 797.606 495.865 783.521 476.023 789.54C455.448 795.782 445.609 821.878 432.414 836.914C426.98 843.106 419.633 847.994 413.013 852.827L412.049 852.119C413.582 848.504 426.539 840.039 430.434 835.78C440.069 825.247 446.421 812.063 455.929 801.452C479.451 775.202 504.553 790.256 533.591 788.611C539.856 788.256 547.093 786.783 551.378 781.779C560.606 771.006 554.902 740.325 554.08 726.705C550.384 665.41 589.78 676.01 601.203 647.684C603.403 642.229 603.398 636.194 603.565 630.408C604.177 609.288 602.614 591.557 617.471 574.87C629.837 560.981 646.518 555.712 664.102 551.457C687.402 545.82 713.864 541.408 736.829 550.932C744.372 554.06 751.367 558.623 758.354 562.811C767.597 568.35 776.797 573.966 787.547 575.963C804.175 579.051 821.344 570.024 838.088 569.59C858.107 569.071 877.837 577.403 897.458 576.171L898.027 576.132C898.912 575.406 899.778 574.658 900.624 573.887C915.08 560.633 880.174 506.491 881.268 483.264C881.642 475.332 884.757 468.259 890.679 462.946Z" fill="#EEEEEE" fill-opacity="0.15"/>
<path d="M455.545 343.677L456.081 344.202C456.479 348.483 440.244 368.6 436.986 374.155C433.786 379.613 431.121 385.301 429.404 391.404C420.902 421.638 441.619 445.848 429.621 477.645C413.77 519.656 357.649 540.01 339.755 595.102C329.961 625.256 330.921 657.647 326.993 688.801C325.47 700.881 314.038 739.075 319.936 748.486C320.409 749.242 321.289 750.241 322.204 750.392C325.204 750.884 327.719 749.61 329.89 747.648C341.418 737.229 354.288 706.603 363.362 691.906C385.912 655.381 406.634 663.875 426.477 639.966C435.129 629.54 439.657 616.508 447.034 605.322C458.781 587.507 473.99 571.742 487.239 555.019C493.249 547.433 506.866 526.683 513.337 521.817L513.422 523.511C510.406 529.211 505.681 534.615 501.799 539.774C486.611 559.955 469.037 578.334 454.105 598.607C442.318 614.611 436.288 634.025 421.48 648.017C406.555 662.119 388.934 661.577 373.221 680.818C361.734 694.88 339.729 747.302 326.601 752.968C324.219 753.996 322.625 753.643 320.432 752.679C318.142 750.001 316.955 747.635 316.408 744.125C314.458 731.604 323.676 700.034 325.415 684.118C331.68 626.788 328.527 583.91 373.159 539.855C388.369 524.84 405.939 510.671 418.638 493.416C429.03 479.295 434.167 461.519 431.232 444.048C429.71 434.987 426.875 426.169 425.517 417.068C421.294 388.767 439.597 365.043 455.545 343.677Z" fill="#EEEEEE" fill-opacity="0.15"/>
<path d="M214.477 28.4996C219.46 26.5136 228.514 27.4644 233.632 28.4187C239.623 29.5355 249.16 31.7138 252.701 36.911C253.073 39.1307 253.268 39.9909 252.33 42.1074C247.305 53.45 211.669 65.4587 199.773 71.9556C195.054 74.5322 191.49 78.9897 186.579 80.8936C190.59 67.9929 245.824 53.2614 250.212 42.8616C250.835 41.3871 251.137 40.031 250.567 38.5364C249.636 36.0988 247.57 34.7545 245.268 33.7583C223.612 24.3896 160.475 36.7643 138.097 45.5018C128.605 49.2085 118.534 55.0584 114.393 64.8341C106.822 82.7122 123.778 100.244 129.781 116.05C133.095 124.779 133.204 131.625 129.35 140.103C125.952 145.492 121.883 149.388 116.472 152.792C101.816 162.014 84.2338 165.947 68.9966 174.368C61.4822 178.521 53.8936 183.593 47.0148 188.74C41.4628 192.893 36.7333 197.451 30.343 200.436C33.9992 194.888 40.9557 190.247 46.34 186.498C55.6093 180.041 65.3131 173.894 75.5638 169.104C96.2672 159.431 117.263 155.771 130.087 134.977C130.591 107.515 113.252 100.21 110.919 77.8679C110.119 70.2045 111.983 62.8791 116.917 56.889C132.508 37.9621 190.352 30.5877 214.477 28.4996Z" fill="#EEEEEE" fill-opacity="0.15"/>
<path d="M663.253 409.506C660 411.5 617.622 433.398 610.841 437.231C599.813 443.466 588.488 450.642 578.027 457.831C553.406 474.748 535.314 495.222 517.178 518.652L515.83 519.002L515.851 517.636C553.718 463.216 600.607 440.236 657.303 410.372C657.402 410.083 659.432 409.22 661.028 408.515L662.926 407.569C666.5 405.5 675.61 401.237 679.508 399.128C685.384 395.949 691.091 391.94 696.51 388.041C731.248 363.053 731.13 329.187 759.366 308.51C777.195 295.454 802.646 294.479 820.243 280.999C824.625 277.642 827.899 273.276 828.569 267.678C830.938 247.874 792.982 225.442 781.684 210.539C773.724 200.039 769.787 187.314 771.788 174.115C775.505 149.599 801.734 119.433 821.234 104.848L821.853 105.612C819.848 109.582 814.594 113.47 811.323 116.711C795.454 132.428 777.513 150.434 774.031 173.482C768.1 212.742 804.955 222.13 823.566 248.046C829.97 256.964 831.134 264.284 829.413 274.779C810.844 295.814 778.707 295.945 756.977 313.162C746.523 321.445 740.671 331.893 734.656 343.55C716.627 378.484 699.025 392.566 663.253 409.506Z" fill="#EEEEEE" fill-opacity="0.15"/>
<path d="M532.411 201.269L533.056 201.945C533.024 205.881 512.544 229.955 508.938 235.945C502.581 246.507 498.199 259.188 493.66 270.662C483.897 295.342 473.987 320.535 458.504 342.315C457.793 341.609 457.818 341.154 457.561 340.207C466.904 325.681 475.309 310.565 481.989 294.594C490.078 275.256 496.519 255.03 506.717 236.655C513.798 223.896 522.968 212.353 532.411 201.269Z" fill="#EEEEEE" fill-opacity="0.15"/>
<path d="M606.546 475.834L607.928 476.058L608.499 477.023C577.029 496.78 551.602 524.319 532.041 555.64L531.439 555.698L530.491 554.887C531.822 550.052 536.633 544.628 539.532 540.508C558.645 513.343 579.831 495.052 606.546 475.834Z" fill="#EEEEEE" fill-opacity="0.15"/>
<path d="M407.368 854.491L408.532 854.885C407.197 858.79 397.689 865.013 394.258 868.149L393.234 867.873L393.217 866.677C396.927 861.82 402.624 858.302 407.368 854.491Z" fill="#EEEEEE" fill-opacity="0.15"/>
<path d="M626.869 532.322L627.8 532.405L627.5 533.567L619.572 538.087L618.253 537.912L618.105 536.726C620.87 534.652 623.641 533.518 626.869 532.322Z" fill="#EEEEEE" fill-opacity="0.15"/>
<path d="M295.849 86.0669L297.053 86.467C295.638 88.8694 289.787 90.6282 287.173 91.7862L286.402 91.7553L286.339 90.8889C289.425 89.0126 292.539 87.509 295.849 86.0669Z" fill="#EEEEEE" fill-opacity="0.15"/>
<path d="M897.43 455.928L898.783 456.446C898.252 459.204 896.073 460.559 894.097 462.493L892.939 462.133L892.71 460.855L897.43 455.928Z" fill="#EEEEEE" fill-opacity="0.15"/>
</g>
<defs>
<clipPath id="clip0_1908_1011">
<rect width="1920" height="940" fill="white"/>
</clipPath>
</defs>
</svg>
