<svg width="64" xmlns="http://www.w3.org/2000/svg" height="64" id="screenshot-0c44917b-ebd3-8015-8007-a61f4331eebe" viewBox="393 1 64 64" style="-webkit-print-color-adjust::exact" xmlns:xlink="http://www.w3.org/1999/xlink" fill="none" version="1.1">
  <g id="shape-0c44917b-ebd3-8015-8007-a61f4331eebe">
    <defs>
      <clipPath id="frame-clip-0c44917b-ebd3-8015-8007-a61f4331eebe-render-25" class="frame-clip frame-clip-def">
        <rect rx="0" ry="0" x="393" y="1" width="64" height="64" transform="matrix(1.000000, 0.000000, 0.000000, 1.000000, 0.000000, 0.000000)">
        </rect>
      </clipPath>
    </defs>
    <g class="frame-container-wrapper" opacity="1">
      <g class="frame-container-blur">
        <g class="frame-container-shadows">
          <g clip-path="url(#frame-clip-0c44917b-ebd3-8015-8007-a61f4331eebe-render-25)" fill="none">
            <g class="fills" id="fills-0c44917b-ebd3-8015-8007-a61f4331eebe">
              <rect rx="0" ry="0" x="393" y="1" width="64" height="64" transform="matrix(1.000000, 0.000000, 0.000000, 1.000000, 0.000000, 0.000000)" class="frame-background" style="fill:#ffffff;fill-opacity:0">
              </rect>
            </g>
            <g class="frame-children">
              <g id="shape-0c44917b-ebd3-8015-8007-a61f4331eebf" style="opacity:1">
                <g class="fills" id="fills-0c44917b-ebd3-8015-8007-a61f4331eebf">
                  <path d="M401.25787353515625,49.1860466003418L430.650146484375,31.156993865966797L445.8973693847656,31.156993865966797C446.0143737792969,31.156993865966797,446.13031005859375,31.179763793945312,446.2384338378906,31.2239990234375C446.3465576171875,31.268230438232422,446.44476318359375,31.333065032958984,446.52740478515625,31.414779663085938C446.6100769042969,31.49649429321289,446.67559814453125,31.593490600585938,446.72021484375,31.700210571289062C446.76483154296875,31.806934356689453,446.7876281738281,31.921279907226562,446.7873840332031,32.036712646484375C446.7994689941406,32.18647003173828,446.7664794921875,32.336421966552734,446.6924743652344,32.467750549316406C446.61846923828125,32.599082946777344,446.5068054199219,32.7059440612793,446.3714599609375,32.774932861328125L431.9352722167969,41.30961608886719C430.9974060058594,41.863285064697266,430.6688537597656,42.97471618652344,430.6688537597656,43.80726623535156L430.654296875,49.1860466003418L449,49.1860466003418L449,17.926393508911133C449.0004577636719,17.776479721069336,448.97003173828125,17.628036499023438,448.9106750488281,17.49003028869629C448.85125732421875,17.35202407836914,448.76416015625,17.22731590270996,448.6545104980469,17.12343978881836C448.544921875,17.019561767578125,448.4150695800781,16.938671112060547,448.27288818359375,16.885652542114258C448.13067626953125,16.832632064819336,447.9790344238281,16.808582305908203,447.8271789550781,16.814956665039062L430.3215637207031,16.814956665039062L401,34.76608657836914L401,49.1860466003418L401.25787353515625,49.1860466003418L401.25787353515625,49.1860466003418" fill-rule="nonzero" style="fill:#ffffff;fill-opacity:1">
                  </path>
                </g>
              </g>
            </g>
          </g>
        </g>
      </g>
    </g>
  </g>
</svg>