<svg width="300" xmlns="http://www.w3.org/2000/svg" height="30.779" id="screenshot-a8137be4-0753-54df-8205-766bd96c805e" viewBox="0 0 300 30.779" style="-webkit-print-color-adjust::exact" xmlns:xlink="http://www.w3.org/1999/xlink" fill="none" version="1.1">
  <g id="shape-a8137be4-0753-54df-8205-766bd96c805e">
    <defs>
      <clipPath id="frame-clip-a8137be4-0753-54df-8205-766bd96c805e-render-36" class="frame-clip frame-clip-def">
        <rect rx="0" ry="0" x="0" y="0" width="300" height="30.778684755289458" transform="matrix(1.000000, 0.000000, 0.000000, 1.000000, 0.000000, 0.000000)">
        </rect>
      </clipPath>
    </defs>
    <g class="frame-container-wrapper" opacity="1">
      <g class="frame-container-blur">
        <g class="frame-container-shadows">
          <g clip-path="url(#frame-clip-a8137be4-0753-54df-8205-766bd96c805e-render-36)" fill="none">
            <g class="fills" id="fills-a8137be4-0753-54df-8205-766bd96c805e">
              <rect rx="0" ry="0" x="0" y="0" width="300" height="30.778684755289458" transform="matrix(1.000000, 0.000000, 0.000000, 1.000000, 0.000000, 0.000000)" class="frame-background">
              </rect>
            </g>
            <g class="frame-children">
              <g id="shape-87a0497b-d68c-5cc6-bf44-c8b69a940881" style="opacity:1">
                <g class="fills" id="fills-87a0497b-d68c-5cc6-bf44-c8b69a940881">
                  <path d="M300,0.8040660619735718L291.1181945800781,0.8040660619735718L280.4801025390625,12.683492660522461L280.4801025390625,0.8040660619735718L273.0230407714844,0.8040660619735718L273.0600891113281,30.046871185302734L280.4801025390625,30.046871185302734L280.4801025390625,18.934457778930664L290.56982421875,30.046871185302734L300,30.046871185302734L286.40313720703125,15.608885765075684L300,0.8040660619735718L300,0.8040660619735718M260.99908447265625,12.829854965209961L254.19973754882812,12.062843322753906C250.21461486816406,11.623756408691406,249.22897338867188,10.636274337768555,249.22897338867188,9.2838134765625C249.22897338867188,7.784989356994629,251.2761993408203,6.432528495788574,255.2594757080078,6.432528495788574C259.0982360839844,6.432528495788574,261.1083984375,7.859097480773926,261.4733581542969,10.015624046325684L268.7840881347656,10.015624046325684C268.4135437011719,3.836914539337158,263.22601318359375,0,255.66148376464844,0C246.67039489746094,0,242.13687133789062,3.5812430381774902,242.13687133789062,9.904462814331055C242.13687133789062,15.058636665344238,245.13453674316406,17.472686767578125,251.34844970703125,18.13039207458496L258.2571105957031,18.8603515625C260.8897705078125,19.153076171875,262.09588623046875,20.177610397338867,262.09588623046875,21.493019104003906C262.09588623046875,22.99184226989746,260.34136962890625,24.344301223754883,256.1005859375,24.344301223754883C251.20208740234375,24.344301223754883,249.22897338867188,23.10114860534668,248.89918518066406,20.614843368530273L241.73486328125,20.614843368530273C242.06463623046875,27.341949462890625,246.44993591308594,30.776830673217773,255.84490966796875,30.776830673217773C264.4339599609375,30.776830673217773,269.2231750488281,27.01217269897461,269.2231750488281,21.346656799316406C269.2231750488281,16.41109848022461,266.37188720703125,13.450505256652832,260.99908447265625,12.829854965209961L260.99908447265625,12.829854965209961M214.90423583984375,30.046871185302734L238.44448852539062,30.046871185302734L238.44448852539062,23.72365379333496L222.36129760742188,23.72365379333496L222.36129760742188,18.42311668395996L235.30047607421875,18.42311668395996L235.30047607421875,12.062843322753906L222.36129760742188,12.062843322753906L222.36129760742188,7.127285957336426L238.44448852539062,7.127285957336426L238.44448852539062,0.8040660619735718L214.90423583984375,0.8040660619735718L214.90423583984375,30.046871185302734L214.90423583984375,30.046871185302734M197.3592987060547,0.8040660619735718L183.68832397460938,0.8040660619735718L183.68832397460938,30.046871185302734L197.3592987060547,30.046871185302734C207.85107421875,30.046871185302734,210.737548828125,26.135852813720703,210.737548828125,15.204999923706055C210.737548828125,4.933704853057861,207.9603729248047,0.8040660619735718,197.3592987060547,0.8040660619735718L197.3592987060547,0.8040660619735718M197.05917358398438,23.725505828857422L191.1305694580078,23.725505828857422L191.1305694580078,7.127285957336426L197.05917358398438,7.127285957336426C201.7390594482422,7.127285957336426,203.12672424316406,8.407492637634277,203.12672424316406,15.204999923706055C203.13414001464844,21.41891098022461,201.5630645751953,23.725505828857422,197.05917358398438,23.725505828857422L197.05917358398438,23.725505828857422M163.43846130371094,0C152.8003387451172,0,147.28118896484375,6.541836738586426,147.28118896484375,15.351362228393555C147.28118896484375,24.197940826416016,152.8003387451172,30.776830673217773,163.43846130371094,30.776830673217773C174.11178588867188,30.776830673217773,179.63095092773438,24.197940826416016,179.63095092773438,15.351362228393555C179.63095092773438,6.541836738586426,174.11178588867188,0,163.43846130371094,0L163.43846130371094,0M163.43846130371094,24.197940826416016C157.9193115234375,24.197940826416016,154.88461303710938,20.83531379699707,154.88461303710938,15.351362228393555C154.88461303710938,9.978570938110352,157.9193115234375,6.578890323638916,163.43846130371094,6.578890323638916C168.99652099609375,6.578890323638916,171.99232482910156,9.978570938110352,171.99232482910156,15.351362228393555C171.99232482910156,20.83531379699707,168.99465942382812,24.197940826416016,163.43846130371094,24.197940826416016L163.43846130371094,24.197940826416016M119.7928695678711,7.127285957336426L129.22303771972656,7.127285957336426L129.22303771972656,30.046871185302734L136.6800994873047,30.046871185302734L136.6800994873047,7.127285957336426L146.07508850097656,7.127285957336426L146.07508850097656,0.8040660619735718L119.7928695678711,0.8040660619735718L119.7928695678711,7.127285957336426L119.7928695678711,7.127285957336426M108.93798065185547,18.8603515625C108.93798065185547,22.662065505981445,106.59803009033203,24.197940826416016,102.61289978027344,24.197940826416016C98.73893737792969,24.197940826416016,96.21743774414062,22.58980941772461,96.21743774414062,18.8603515625L96.21743774414062,0.8040660619735718L88.76036834716797,0.8040660619735718L88.76036834716797,19.70146942138672C88.76036834716797,28.146015167236328,96.28968048095703,30.776830673217773,102.61289978027344,30.776830673217773C108.90092468261719,30.776830673217773,116.3931884765625,28.146015167236328,116.3931884765625,19.70146942138672L116.3931884765625,0.8040660619735718L108.93798065185547,0.8040660619735718L108.93798065185547,18.8603515625L108.93798065185547,18.8603515625M66.93756866455078,0.8040660619735718L55.71584701538086,30.046871185302734L63.4285774230957,30.046871185302734L65.38687133789062,24.56291961669922L77.91473388671875,24.56291961669922L79.84153747558594,30.046871185302734L87.80809020996094,30.046871185302734L76.44926452636719,0.8040660619735718L66.93756866455078,0.8040660619735718L66.93756866455078,0.8040660619735718M67.60639190673828,18.349008560180664L71.70267486572266,6.8864359855651855L75.73042297363281,18.35271453857422L67.60639190673828,18.349008560180664L67.60639190673828,18.349008560180664M0.2297331541776657,30.048725128173828L26.415607452392578,13.759902954101562L39.99950408935547,13.759902954101562C40.103790283203125,13.759902954101562,40.207054138183594,13.780475616455078,40.303382873535156,13.820440292358398C40.39970779418945,13.860404968261719,40.487205505371094,13.91897964477539,40.56086349487305,13.99280834197998C40.634517669677734,14.066636085510254,40.69288635253906,14.154269218444824,40.732627868652344,14.250688552856445C40.772369384765625,14.347108840942383,40.79269790649414,14.450419425964355,40.79245376586914,14.554706573486328C40.8032341003418,14.690011978149414,40.77382278442383,14.825489044189453,40.70790100097656,14.944143295288086C40.64198303222656,15.062796592712402,40.5424919128418,15.159343719482422,40.42191696166992,15.221674919128418L27.560565948486328,22.93255615234375C26.725006103515625,23.432781219482422,26.432281494140625,24.436939239501953,26.432281494140625,25.189128875732422L26.419313430786133,30.048725128173828L42.76371383666992,30.048725128173828L42.76371383666992,1.8063695430755615C42.76408767700195,1.6709256172180176,42.737003326416016,1.5368112325668335,42.68410110473633,1.412125587463379C42.631202697753906,1.2874399423599243,42.55357360839844,1.1747699975967407,42.45591354370117,1.0809199810028076C42.358253479003906,0.9870699644088745,42.24258804321289,0.9139871001243591,42.11589813232422,0.8660847544670105C41.98920440673828,0.8181824684143066,41.85411834716797,0.7964544892311096,41.71879577636719,0.8022133111953735L26.122882843017578,0.8022133111953735L0,17.020633697509766L0,30.048725128173828L0.2297331541776657,30.048725128173828L0.2297331541776657,30.048725128173828" fill-rule="nonzero" style="fill:#ffffff;fill-opacity:1">
                  </path>
                </g>
              </g>
            </g>
          </g>
        </g>
      </g>
    </g>
  </g>
</svg>